<?xml version="1.0" encoding="UTF-8"?>
<svg id="antennes" xmlns="http://www.w3.org/2000/svg" viewBox="0 0 595.28 841.89">
  <g id="_1_" data-name="1&amp;apos;">
    <path d="m263.81,171.75c4.13-8.13,8.26-16.27,12.39-24.4,2.06-4.05,4.1-8.1,6.17-12.15,1.38-2.71,3.03-6.27,6.07-7.48.86-.34,2.12-.33,3.23.1.39.15.91.47,1.24.85.29.33.37.59.39.93.14,2.55,3.24,3.31,4.66,1.26,1.95-2.82,2.28-6.27,2.43-9.61.13-2.69.11-6.21,1.71-8.25,2.54-3.25,8.49-2.97,10.59.41.84,1.34,2.78,1.69,3.93.51,8.03-8.26,16.67-17.85,16.81-30.07.02-1.39-1.16-2.45-2.5-2.5-30.02-1.13-60.05-2.26-90.07-3.4-8.46-.32-16.92-.64-25.38-.96-1.73-.07-2.7,1.64-2.41,3.16,1.99,10.34,8.45,19.02,15.52,26.53,7.94,8.43,16.62,16.24,25.3,23.91,5.11,4.51,10.3,8.93,15.57,13.26,1.04.86,2.52,1.02,3.54,0,.88-.88,1.05-2.67,0-3.54-9.13-7.5-18.03-15.28-26.67-23.33-7.69-7.16-15.87-14.39-21.85-23.1-3.15-4.59-5.53-9.57-6.59-15.05l-2.41,3.16c30.02,1.13,60.05,2.26,90.07,3.4,8.46.32,16.92.64,25.38.96l-2.5-2.5c-.12,10.76-8.31,19.29-15.35,26.53l3.93.51c-3.55-5.7-11.91-6.75-17.1-2.69-3.06,2.4-4.03,6.14-4.34,9.86-.29,3.46.14,7.28-1.93,10.28l4.66,1.26c-.21-3.88-3.35-6.48-7.05-6.99-4.22-.58-7.7,1.76-10.16,5-2.71,3.57-4.47,7.91-6.49,11.89l-7.1,13.97c-2.67,5.25-5.33,10.5-8,15.75-1.45,2.86,2.86,5.4,4.32,2.52h0Z" style="fill: #000000; stroke-width: 0px;"/>
  </g>
</svg>