<?xml version="1.0" encoding="UTF-8"?>
<svg id="Corps" xmlns="http://www.w3.org/2000/svg" viewBox="0 0 595.28 841.89">
  <g id="corps">
    <path d="m203.08,450.64c-10.98,17.49-10.28,41.58,1.71,58.4,6.16,8.64,14.8,15.23,23.91,20.65,14.85,8.84,31.33,14.94,48.35,17.9,14.97,2.6,30.26,2.79,45.46,2.5,6.69-.13,13.56-.38,19.73-2.98,6.98-2.93,12.4-8.58,17.52-14.15,6.27-6.83,12.49-13.93,16.38-22.35,2.84-6.14,4.36-12.83,5.24-19.54,3.27-24.92-2.32-50.91-15.55-72.28-5.81-9.39-13.06-17.94-17.65-27.98-5.95-13.03-7.12-27.9-13.45-40.75-11.99-24.33-42.17-36.89-68.77-31.59-6.94,1.38-13.8,3.89-19.26,8.39-10.13,8.35-13.94,22.18-14.93,35.27s.24,26.4-2.37,39.26c-2.31,11.4-7.61,22.11-14.78,31.27-5.78,7.38-12.87,13.95-16.71,22.5" style="fill: #ffff00; stroke-width: 0px;"/>
    <path d="m200.92,449.38c-11,17.68-10.81,41.7.53,59.19,6.15,9.48,15.18,16.7,24.73,22.53,10.26,6.26,21.35,11.21,32.83,14.74,11.96,3.68,24.34,5.62,36.81,6.39,6.46.4,12.93.5,19.41.46s12.5.02,18.67-.83c5.85-.81,11.32-2.82,16.11-6.32s8.56-7.56,12.41-11.79c4.01-4.4,7.95-8.92,11.29-13.86s6.02-10.54,7.71-16.39c3.26-11.29,3.95-23.54,3.03-35.21-.91-11.53-3.53-22.93-7.86-33.66-2.18-5.4-4.73-10.63-7.71-15.63-3.02-5.05-6.48-9.82-9.8-14.67s-6.51-9.82-8.92-15.19c-2.39-5.33-3.93-11.02-5.41-16.65-2.85-10.78-5.63-21.77-12.22-30.98-5.48-7.67-12.78-13.91-21.07-18.38-17.21-9.26-39.17-11.49-57.34-3.64-5.04,2.18-9.65,5.37-13.23,9.56s-5.89,8.61-7.7,13.52c-3.95,10.7-4.26,22.21-4.41,33.48-.09,6.4-.15,12.81-.9,19.17-.69,5.83-2.16,11.56-4.3,17.03s-4.84,10.29-8.05,14.96-6.94,8.74-10.54,13.02-6.93,8.62-9.23,13.65c-.56,1.23-.35,2.69.9,3.42,1.07.63,2.86.34,3.42-.9,4.58-10.04,13.3-17.36,19.52-26.31,6.49-9.34,11.07-20.09,12.8-31.36,1.9-12.33.9-24.81,1.91-37.2.79-9.59,3.13-19.51,8.88-27.4,6.2-8.5,16.44-12.35,26.52-13.81,8.79-1.28,17.89-.49,26.41,1.94s16.47,6.48,23.15,12.17c7.1,6.04,12.39,13.63,15.64,22.36,4.02,10.82,5.66,22.37,10.13,33.04,4.5,10.74,11.99,19.68,18.14,29.45,11.81,18.75,17.57,41.07,16.46,63.19-.58,11.54-2.82,23.14-9.06,33.03-3.04,4.81-6.72,9.16-10.53,13.38s-7.41,8.29-11.76,11.7-9.21,5.41-14.64,6.27c-5.82.92-11.84.77-17.72.81-12.45.09-24.98-.28-37.28-2.34-11.41-1.9-22.63-5.19-33.22-9.84-10.16-4.46-20.23-10-28.69-17.24-7.77-6.65-13.82-14.87-16.77-24.74-2.77-9.27-2.94-19.28-.41-28.63,1.24-4.6,3.14-8.94,5.65-12.99,1.7-2.74-2.62-5.25-4.32-2.52h0Z" style="fill: #1d1d1b; stroke-width: 0px;"/>
  </g>
</svg>