<?xml version="1.0" encoding="UTF-8"?>
<svg id="Membres" xmlns="http://www.w3.org/2000/svg" viewBox="0 0 595.28 841.89">
  <g id="M3">
    <path d="m219.35,423.7l-15.43-2.31c-4.1-.61-8.51-.97-12.36-2.63-1.54-.66-3.34-1.84-4.22-2.95s-1.22-2.33-1.29-3.46c-.08-1.38.1-2.51.65-3.49.05-.09.56-.8.34-.54.06-.07.71-.68.42-.46.59-.45.73-.48,1.56-.63l-2.43-.64c2.08,2.25,2.08,5.38,1.09,8.21-1.11,3.18-3.67,5.61-6.84,6.73-4.13,1.45-8.62,1.1-12.8.03-3.52-.91-7.9-2.26-10.13-5.35-.98-1.36-1.27-2.76-.89-4.25s1.1-2.36,2.56-2.6l-2.82-3.67c-3.67,6.9-11.79,9.38-18.88,11.11-3.74.91-8.25,2.41-11.51-.17-2.7-2.14-4.03-5.72-4.9-8.94-.55-2.05-1.01-4.17-1.13-6.29-.11-1.87-.02-4.06,1.21-5.6.83-1.04,2.39-1.85,3.42-1.73.52.06,1.12.44,1.24.59.39.49.52.99.51,1.55,0,1.25-.48,2.61-1.5,3.56-1.28,1.19-3.39,1.68-5.2,1.81-3.83.26-8.07-.09-11.71-1.39s-5.97-4.55-4.56-8.45c1.6-4.43,6.6-5.77,10.85-5.32l-2.5-2.5c-.24,2.74-2.56,4.78-5.17,5.23l2.43.64c-2.68-2.17-5.54-4.39-7.48-7.29-1.7-2.54-2.83-5.96-1.63-8.95,1.03-2.58,3.66-3.9,6.2-4.62,3.39-.96,7.02-1.16,10.52-1.12,4.58.05,9.08.76,13.48,2.05,3.09.9,4.42-3.92,1.33-4.82-5.77-1.69-11.85-2.45-17.86-2.17-4.8.23-10.21.83-14.22,3.75-4.48,3.26-5.86,8.83-4.22,14.03s5.74,8.94,9.86,12.28c.96.78,1.62,1.25,2.92,1.04.58-.1,1.13-.25,1.68-.46,1.34-.52,2.53-1.24,3.6-2.2,2.14-1.91,3.31-4.57,3.56-7.39.12-1.45-1.25-2.37-2.5-2.5-5.52-.59-11.52,1.52-14.49,6.42-2.82,4.64-2.28,10.87,1.98,14.45,3.98,3.36,9.49,4.05,14.51,4.29,5.23.26,11.48-.68,14.05-5.89,2.24-4.55.67-10.81-4.99-11.52-2.6-.33-5.17.76-7.08,2.51-2.17,1.99-3.08,4.91-3.25,7.78s.4,5.81,1.06,8.58c.57,2.37,1.37,4.7,2.46,6.88,2.29,4.56,6.31,8.06,11.6,8.18,3.28.07,6.64-.93,9.8-1.73,2.7-.69,5.37-1.49,7.95-2.56,5.27-2.18,10.13-5.43,12.87-10.58,1.1-2.06-.7-4.02-2.82-3.67-4.12.67-6.53,5.06-6.38,8.97.18,4.61,3.58,8.11,7.49,10.14,8.19,4.26,20.14,6.09,27.9,0,3.07-2.4,5.25-6.09,5.85-9.95.31-2.05.3-4.16-.34-6.15-.55-1.72-1.83-4.6-3.75-5.13s-4.33,1.03-5.52,2.38-1.97,3.04-2.27,4.81c-.67,3.97.53,8.02,3.57,10.74,3.87,3.46,9.05,4.56,14.04,5.32,6.39.97,12.78,1.92,19.17,2.87,1.33.2,2.69-.33,3.08-1.75.32-1.18-.4-2.87-1.75-3.08h0Z" style="fill: #1d1d1b; stroke-width: 0px;"/>
    <path d="m377.27,435.4c5.98-4.63,14.33-4.49,21.48-4.01,1.81.12,3.86.05,5.6.6,1.37.43,1.71,1.66,1.9,2.99.25,1.76.22,3.56.47,5.33s.7,3.67,1.37,5.41c2.66,6.92,8.5,12.58,16.28,12.52,3.46-.03,6.89-1.17,9.53-3.42,1.22-1.04,3.01-2.91,3.03-4.62.01-2.1-1.65-3.81-3.59-4.35-4.49-1.24-7.74,3.58-10.09,6.61-2.63,3.4-4.9,7.04-6.33,11.12-2.85,8.13-1.27,16.8-.68,25.16.54,7.68-.07,15.51-5.8,21.24-5.03,5.03-12.28,7.01-19.14,5.08-3.49-.98-6.68-2.88-9.17-5.54-.88-.94-2.27-2.64-1.96-4.05.24-1.08,2.02-1.08,2.93-1.14,7.64-.48,15.26.49,22.68,2.31,15.38,3.77,29.71,10.73,44.51,16.18,7.3,2.69,14.75,5.05,22.42,6.45,3.95.72,7.97,1.21,11.99,1.35s8.49-.35,11.32-3.54c2.72-3.06,3.28-7.13,3.72-11.05.54-4.82,1.06-9.65,1.48-14.49.84-9.7,1.24-19.45.54-29.17-1.36-18.75-6.38-36.96-12.26-54.74-1.49-4.51-3.04-8.99-4.6-13.48-1.47-4.22-2.81-8.56-4.88-12.53-3.73-7.16-10.44-11.3-16.97-15.61-2.97-1.97-5.84-4.04-8.27-6.65l.39,3.03c1.19-2.16,3.13-3.46,5.54-3.89l-3.16-2.41c1.9,15.05-1.2,29.95-4.99,44.45-1.96,7.49-4.09,14.92-5.9,22.45-.84,3.5-1.72,7.03-2.18,10.6-.42,3.27-.17,6.76,2.07,9.36,2.36,2.74,6.25,3.41,9.56,4.32,1.85.51,3.7,1.02,5.56,1.53s3.94,1.33,5.94,1.38c4.13.1,5.7-3.67,7.35-6.79,1.77-3.33,3.51-6.68,5.14-10.08,3.18-6.65,6.01-13.55,7.65-20.75.83-3.65,1.37-7.39,1.5-11.13.12-3.27-.27-6.5-.33-9.77-.05-2.53,0-5.64,1.86-7.49,1.21-1.2,3.02-1.59,4.51-2.31s2.74-1.74,3.75-3c4.17-5.27,3.2-12.84,1.88-18.95-.68-3.14-5.5-1.81-4.82,1.33.96,4.43,1.93,10.19-.65,14.1-1.48,2.25-4.46,2.58-6.7,4.08s-3.82,4.05-4.39,6.78-.48,5.75-.29,8.63c.21,3.24.29,6.44-.03,9.67-.66,6.85-2.78,13.52-5.38,19.86s-5.97,12.71-9.28,18.88c-.47.88-.76,2.05-1.92,1.92-1.79-.2-3.64-.96-5.38-1.44-1.85-.51-3.7-1.02-5.56-1.53-1.51-.42-3.11-.74-4.54-1.38-2.55-1.15-2.84-3.57-2.62-6.11.29-3.33,1.25-6.69,2.02-9.94,1.66-7,3.63-13.93,5.47-20.88,4.12-15.54,7.74-31.65,5.7-47.8-.22-1.71-1.42-2.72-3.16-2.41-3.6.65-6.77,3-8.53,6.19-.55,1-.38,2.2.39,3.03,4.29,4.6,9.85,7.65,14.96,11.2,2.37,1.65,4.64,3.46,6.55,5.64,2.14,2.44,3.58,5.43,4.73,8.44,2.67,6.99,4.99,14.14,7.34,21.24s4.61,14.47,6.51,21.81c3.86,14.93,6.1,30.09,5.74,45.54-.18,7.89-.88,15.76-1.72,23.61-.35,3.3-.49,6.76-1.36,9.97-.76,2.77-2.29,4.54-5.19,5.09s-6.25.11-9.21-.2-6.04-.85-9.02-1.5c-6.2-1.36-12.25-3.3-18.2-5.47-12.14-4.43-23.91-9.87-36.22-13.86-5.94-1.93-12.01-3.5-18.2-4.38-3.17-.45-6.36-.75-9.56-.81s-6.77-.3-9.63.99c-3.29,1.48-4.25,5.13-3.06,8.34s3.61,5.49,6.22,7.42c5.23,3.87,11.96,5.49,18.38,4.56,5.98-.87,11.61-4.23,15.38-8.93,4.24-5.29,5.77-11.76,5.74-18.44s-1.41-13.5-1.13-20.29,3.04-12.57,7.22-17.78c1.02-1.28,2.06-2.64,3.27-3.75.36-.32.86-.6,1.13-.68.37-.11.1.36.02-.45l.34-1.26c-1.91,3.53-6.31,4.88-10.08,4.11-4.62-.94-7.93-4.84-9.48-9.19-.87-2.44-1.19-4.88-1.35-7.45s-.55-5.47-2.51-7.44c-2.24-2.24-5.58-2.24-8.53-2.47s-5.69-.38-8.54-.3c-6.52.17-12.82,1.61-18.05,5.66-1.07.83-.87,2.67,0,3.54,1.05,1.05,2.46.83,3.54,0h0Z" style="fill: #1d1d1b; stroke-width: 0px;"/>
  </g>
</svg>