<?xml version="1.0" encoding="UTF-8"?>
<svg id="visage" xmlns="http://www.w3.org/2000/svg" viewBox="0 0 595.28 841.89">
  <g id="bec">
    <path d="m276.13,261.75c-23.22-.83-48.74-4.26-65.25-22.39-3.88-4.26-6.99-9.24-8.9-14.68l-4.82,1.33c2.91,7.67,1.86,16.08,4.07,23.91,2.02,7.15,6.65,13.2,12.02,18.2s11.73,9.54,17.98,13.69,13.32,8.23,20.51,11.31c8.2,3.51,16.74,5.91,25.65,6.68,1.35.12,2.5-1.23,2.5-2.5,0-1.45-1.15-2.38-2.5-2.5-14.86-1.27-28.68-7.72-41.1-15.65-6.08-3.89-12.1-8.07-17.56-12.81-5.05-4.38-9.85-9.57-12.12-15.98-2.94-8.29-1.5-17.43-4.63-25.68-.48-1.26-1.69-2.13-3.08-1.75-1.24.34-2.19,1.8-1.75,3.08,3.79,10.82,11.46,19.63,20.85,26.05,10.4,7.11,22.7,10.86,35.06,12.73,7.64,1.16,15.34,1.68,23.06,1.96,3.22.12,3.21-4.88,0-5h0Z" style="fill: #1d1d1b; stroke-width: 0px;"/>
  </g>
</svg>