<?xml version="1.0" encoding="UTF-8"?>
<svg id="yeux" xmlns="http://www.w3.org/2000/svg" viewBox="0 0 595.28 841.89">
  <g id="_1" data-name="1">
    <path d="m271.31,197.94c-9.87-1.09-20.85-1.97-29.42,4.08-3.57,2.52-8.02,6.96-6.76,11.79,1.02,3.93,5.21,5.89,8.84,6.73,5.22,1.2,10.7,1.74,16.03,2.14s10.83.5,16.25.27c2.75-.12,5.49-.31,8.23-.59,2.49-.25,5.05-.47,7.48-1.08,4.44-1.12,8.99-4.63,8.65-9.7-.38-5.79-7.02-8.26-11.67-9.85-5.39-1.84-11.18-2.59-16.86-2.25-3.2.19-3.22,5.19,0,5,4.23-.25,8.44.11,12.55,1.18,2.01.52,4,1.18,5.9,2.02,1.54.68,3.43,1.44,4.52,2.79.84,1.05.65,2.27-.04,3.35-.9,1.4-2.43,2.1-3.98,2.53-4.17,1.16-8.78,1.29-13.08,1.52-9.38.51-18.84.1-28.13-1.35-2.98-.46-7.04-.78-9.24-2.95-.76-.76-.91-1.63-.2-2.9.85-1.53,2.14-2.86,3.51-3.94,7.68-6.06,18.39-4.78,27.42-3.78,1.34.15,2.5-1.26,2.5-2.5,0-1.48-1.15-2.35-2.5-2.5h0Z" style="fill: #64503c; stroke-width: 0px;"/>
    <path d="m250.44,210.77c9.65,1.08,19.37,1.46,29.07,1.13,3.21-.11,3.22-5.11,0-5-9.71.33-19.42-.05-29.07-1.13-1.34-.15-2.5,1.26-2.5,2.5,0,1.48,1.15,2.35,2.5,2.5h0Z" style="fill: #64503c; stroke-width: 0px;"/>
  </g>
</svg>