<?xml version="1.0" encoding="UTF-8"?>
<svg id="antennes" xmlns="http://www.w3.org/2000/svg" viewBox="0 0 595.28 841.89">
  <g id="_1" data-name="1">
    <path d="m267.37,169.2c-1.66-7.28-3.56-15.25-1.24-22.6,1.57-5,5.86-10.11,11.35-10.77,3.45-.41,6.7,1.14,9.04,3.6l.51-3.93c-4.06,2.15-9.08-1.47-9.75-5.86-.92-5.92,3.54-10.84,8.48-13.3,5.35-2.66,11.47-2.39,16.98-4.51,2.88-1.11,5.48-2.83,7.13-5.5,1.4-2.26,1.91-5.06,1.61-7.68-.71-6.09-4.84-10.92-10.65-12.78-6.12-1.96-12.73-.44-18.24,2.52-5.05,2.72-9.42,6.51-14.39,9.38-4.63,2.68-9.76,4.07-14.91,1.93-3.26-1.36-6.04-3.75-8.4-6.33-2.07-2.26-4.2-5.15-4.29-8.35-.06-2.2.88-4.95,3.14-5.73,1.95-.68,4.21.99,4.04,2.84l1.84-2.41c-13.3,2.45-27.81-3.68-35.38-14.88-1.79-2.65-6.13-.15-4.32,2.52,8.91,13.18,25.39,20.05,41.02,17.18,1.14-.21,1.74-1.38,1.84-2.41.29-3.2-1.96-6.01-4.79-7.22-3.08-1.33-6.4-.73-8.91,1.49-2.33,2.07-3.52,5.39-3.48,8.46.04,3.56,1.66,6.9,3.78,9.67,4.27,5.6,10.39,10.42,17.58,11.18,6.2.66,11.96-2.29,16.97-5.63s9.97-7.65,15.92-9.34c5.52-1.57,12.49-.79,15.5,4.69,1.19,2.16,1.58,4.69.87,6.96-.75,2.39-2.98,3.98-5.3,4.81-2.95,1.05-6.08,1.42-9.13,2.01-3.4.66-6.76,1.75-9.78,3.49-5.95,3.42-10.56,9.94-9.71,17.06.39,3.25,1.79,6.28,4.37,8.38,2.36,1.91,5.39,3.16,8.47,2.95,1.58-.1,3.03-.52,4.43-1.26s1.57-2.81.51-3.93c-5.51-5.78-14.18-6.72-20.66-1.99s-9.47,12.87-9.29,20.97c.12,5.29,1.27,10.52,2.44,15.66.71,3.14,5.54,1.81,4.82-1.33h0Z" style="fill: #1d1d1b; stroke-width: 0px;"/>
  </g>
</svg>