<?xml version="1.0" encoding="UTF-8"?>
<svg id="antennes" xmlns="http://www.w3.org/2000/svg" viewBox="0 0 595.28 841.89">
  <g id="_2" data-name="2">
    <path d="m258.37,170.87c-.35-6.18-.84-12.35-1.48-18.5-.31-3.04-.66-6.07-1.05-9.1s-.66-5.95-1.31-8.85c-.59-2.62-1.67-5.01-3.35-7.1-1.48-1.84-3.35-3.29-5.21-4.72-3.54-2.73-6.67-5.5-8.19-9.84s-1.68-9.16-1.47-13.79c.24-5.07,1.19-10.13,1-15.21-.19-5.14-1.68-10.43-5.83-13.76-3.61-2.9-8.74-4.3-12.98-1.85-5.83,3.37-1.72,10.49,2.95,12.57,4.32,1.93,9.69,1.43,13.06-2.09,2.23-2.32-1.3-5.86-3.54-3.54-1.89,1.97-5.02,2.26-7.4,1.13-1.3-.62-2.36-1.47-2.87-2.8-.08-.21-.14-.46-.14-.68,0,.32-.2.12.11-.06.11-.07.24-.15.34-.21.61-.38,1.33-.55,1.97-.58,3.3-.18,6.44,2.28,7.88,5.2,2.05,4.16,1.56,9.24,1.12,13.7-.83,8.54-1.71,17.54,1.89,25.6,1.82,4.07,4.91,6.95,8.38,9.62,3.21,2.47,6.17,4.84,7.25,8.92.69,2.64.96,5.4,1.3,8.1.39,3.03.74,6.06,1.05,9.1.65,6.24,1.15,12.49,1.5,18.75.18,3.2,5.18,3.22,5,0h0Z" style="fill: #1d1d1b; stroke-width: 0px;"/>
    <path d="m277.08,169.72c-3.14-4.17-3.39-10.14.25-14.12,1.7-1.86,3.91-3.15,6.41-3.59,2.91-.51,5.89-.18,8.49-1.87,4.95-3.22,5.95-9.85,3.71-14.99-1.14-2.6-3.03-4.87-5.18-6.71-.97-.83-2.01-1.64-3.05-2.38.45.31-.2.53.12.14.16-.19.2-.61.29-.85.33-.82.73-1.63,1.11-2.43,1.41-2.95,3.02-5.79,4.82-8.52,1.67-2.54,3.84-4.87,5.08-7.67.59-1.35.97-2.79.89-4.27s-.86-3.13-.67-4.43c.1-.7.47-1.35,1.01-1.93.74-.78,1.62-1.34,2.6-1.81,4.67-2.25,10.19-.92,15.08-2.7,2.61-.95,4.97-2.58,6.33-5.06s1.77-5.62.95-8.38c-.96-3.21-3.42-5.6-6.5-6.79-2.62-1.01-7.46-1.33-9.08,1.58s1.02,7.01,2.87,9.19c2.06,2.42,5,4.15,8.1,4.8,1.32.28,2.7-.39,3.08-1.75.34-1.24-.42-2.8-1.75-3.08-2.29-.48-4.23-1.62-5.78-3.38-.61-.7-1.15-1.55-1.52-2.41-.11-.24-.26-1.3-.48-1.43l-.72,1.01c.21-.07.43-.12.64-.17.26-.05.46-.06.72-.07,4.22-.09,7.09,4.17,5.31,8.03-2.02,4.4-8.36,3.99-12.37,4.34-4.61.4-9.92,2.07-12.39,6.33-.6,1.03-.94,2.14-1.07,3.32-.17,1.59.37,3,.59,4.54.35,2.41-1.62,4.56-2.94,6.36-1.77,2.39-3.39,4.88-4.86,7.46s-3.05,5.49-4.05,8.39c-.5,1.47-.44,3.07.43,4.39.8,1.2,2.11,1.87,3.21,2.75,1.92,1.55,3.71,3.43,4.69,5.72,1.61,3.75.26,8.66-4.16,9.35-1.62.25-3.28.22-4.9.52-1.41.26-2.77.78-4.05,1.41-2.66,1.32-4.94,3.48-6.49,6-3.29,5.35-2.87,12.64.9,17.64.81,1.08,2.16,1.64,3.42.9,1.06-.62,1.71-2.34.9-3.42h0Z" style="fill: #1d1d1b; stroke-width: 0px;"/>
  </g>
</svg>