<?xml version="1.0" encoding="UTF-8"?>
<svg id="Antennes" xmlns="http://www.w3.org/2000/svg" viewBox="0 0 595.28 841.89">
  <g id="_2_LHa" data-name="2&amp;apos; LHa">
    <path d="M245.8,177.43c-10.6-18.95-21.2-37.9-31.81-56.86-32.53,19.58-41.25,28.35-39.75,31.9.96,2.27,6.06,2.28,6.5,5.28.42,2.82-3.48,6.6-7.76,7.1-3.46.4-7.72-1.27-8.26-3.81-.58-2.71,3.03-6.73,9.51-8.56" style="fill: none; stroke: #000; stroke-miterlimit: 10; stroke-width: 4px;"/>
    <path d="M293.29,177.43c8.77-21.79,17.54-43.58,26.31-65.38,30.7,13.64,38.48,20.7,37.52,24.53-.65,2.61-5.36,3.7-5.11,6.64.25,2.84,4.92,5.61,9.19,5.11,3.46-.41,7.21-3.02,7.15-5.62-.07-2.77-4.5-5.85-11.23-6.13" style="fill: none; stroke: #000; stroke-miterlimit: 10; stroke-width: 4px;"/>
  </g>
</svg>