<?xml version="1.0" encoding="UTF-8"?>
<svg id="Antennes" xmlns="http://www.w3.org/2000/svg" viewBox="0 0 595.28 841.89">
  <g id="antenne_1" data-name="antenne 1">
    <path id="_1_LHa" data-name="1 LHa" d="M266.13,173.98c.78,7.13.82-6.79,0-9-.53-1.42-3.3-8.92-9-9-5.49-.08-10.16,6.77-9,9,.92,1.77,5.82,1.22,9,0,5.6-2.15,8.17-7.27,9-9,2.69-5.58,4.24-15.16,0-18-5.45-3.64-18.8,4.97-18,9,.87,4.4,19.81,9.4,27,0,4-5.23,2.88-12.97,0-18-3.38-5.9-10.86-10.94-18-9-4.81,1.3-9.82,5.86-9,9,1.79,6.82,31.8,9.16,36,0,2.96-6.45-7.71-16.76-9-18-10.48-10.12-28.97-16.05-36-9-4.63,4.65-4.44,15.1,0,18,4.68,3.06,14.51-2.01,18-9,4.79-9.59.05-23.74-9-27-3.48-1.25-6.87-.63-9,0" style="fill: none; stroke: #000; stroke-miterlimit: 10; stroke-width: 4px;"/>
  </g>
</svg>