<?xml version="1.0" encoding="UTF-8"?>
<svg id="Corps" xmlns="http://www.w3.org/2000/svg" viewBox="0 0 595.28 841.89">
  <g id="corps">
    <path id="corps_LHa" data-name="corps LHa" d="M258.57,321.55c49.31-2.07,82.06,49.29,88.85,80.68,1.04,4.82,1.58,9.68,2.55,18.38,4.18,37.52,2.71,39.94,6.3,67.91,2.56,19.94,3.01,33.78-2.72,37.79-3.23,2.25-8.72,1.31-12.26-1.02-8.76-5.76-2.86-21.05-11.23-27.57-5.33-4.15-15.07-1.93-19.91,2.04-7.09,5.8-.19,17.02-7.15,24.51-6.3,6.78-21.05,7.4-27.57,1.02-7.6-7.43-6.05-24.02-13.97-32.45-5.81-6.18-12.55-7.12-19.46-2.27-10.53,7.38-.76,29.04-11.5,36.77-9.31,6.7-24.34-.68-25.02-1.02-7.11-3.6-11.91-9.63-16.85-19.91-4.97-10.35-14.11-33.4-12.26-81.7.54-14.03.81-21.05,2.04-26.55,6.94-30.92,35.85-74.74,80.17-76.6Z" style="fill: #66b32e; stroke: #000; stroke-miterlimit: 10; stroke-width: 4px;"/>
  </g>
</svg>