<?xml version="1.0" encoding="UTF-8"?>
<svg id="Membres" xmlns="http://www.w3.org/2000/svg" viewBox="0 0 595.28 841.89">
  <g id="M3_LHa" data-name="M3 LHa">
    <line x1="345.97" y1="526.71" x2="360.27" y2="584.92" style="fill: none; stroke: #000; stroke-linecap: round; stroke-linejoin: round; stroke-width: 4px;"/>
    <path d="M355.2,590.54c3.31-4.28,10.88-4.15,13.79,0,2.33,3.33,1.13,8.48-2.04,11.23-2.32,2.02-6.12,3.13-9.19,1.53-4.26-2.21-5.59-8.84-2.55-12.77Z" style="fill: #66b32e; stroke: #000; stroke-miterlimit: 10; stroke-width: 4px;"/>
    <line x1="216.27" y1="529.14" x2="201.98" y2="587.35" style="fill: none; stroke: #000; stroke-linecap: round; stroke-linejoin: round; stroke-width: 4px;"/>
    <path d="M207.04,592.97c-3.31-4.28-10.88-4.15-13.79,0-2.33,3.33-1.13,8.48,2.04,11.23,2.32,2.02,6.12,3.13,9.19,1.53,4.26-2.21,5.59-8.84,2.55-12.77Z" style="fill: #66b32e; stroke: #000; stroke-miterlimit: 10; stroke-width: 4px;"/>
    <line x1="290.4" y1="531.12" x2="276.1" y2="589.34" style="fill: none; stroke: #000; stroke-linecap: round; stroke-linejoin: round; stroke-width: 4px;"/>
    <path d="M281.17,594.95c-3.31-4.28-10.88-4.15-13.79,0-2.33,3.33-1.13,8.48,2.04,11.23,2.32,2.02,6.12,3.13,9.19,1.53,4.26-2.21,5.59-8.84,2.55-12.77Z" style="fill: #66b32e; stroke: #000; stroke-miterlimit: 10; stroke-width: 4px;"/>
  </g>
</svg>