<?xml version="1.0" encoding="UTF-8"?>
<svg id="Membres" xmlns="http://www.w3.org/2000/svg" viewBox="0 0 595.28 841.89">
  <g id="M5_LHa" data-name="M5 LHa">
    <path d="M178.31,406.8c-4.7,1.61-12.2,3.42-20.94,2.04-20.73-3.27-32.73-22.08-39.83-33.19-6.6-10.33-9.2-18.85-13.28-32.17-3.45-11.29-6.21-20.28-3.06-22.47,3.85-2.67,15.77,5.4,23.49,15.32,11.54,14.81,7.39,25.61,15.83,36.77,5.32,7.04,16.08,14.78,40.34,15.83l-2.55,17.87Z" style="fill: #66b32e; stroke: #000; stroke-miterlimit: 10; stroke-width: 4px;"/>
    <path d="M350.54,412.53c4.74,1.52,12.27,3.18,20.97,1.63,20.66-3.68,32.3-22.71,39.17-33.96,6.39-10.46,8.83-19.02,12.65-32.42,3.23-11.36,5.81-20.4,2.62-22.52-3.9-2.6-15.66,5.71-23.19,15.77-11.25,15.04-6.89,25.75-15.11,37.07-5.18,7.14-15.79,15.1-40.02,16.61l2.9,17.82Z" style="fill: #66b32e; stroke: #000; stroke-miterlimit: 10; stroke-width: 4px;"/>
    <path d="M355.93,480.34c4.61,1.86,12,4.08,20.79,3.18,20.88-2.14,33.89-20.26,41.58-30.97,7.15-9.96,10.21-18.32,15.01-31.4,4.06-11.09,7.3-19.92,4.29-22.27-3.7-2.88-16.04,4.53-24.29,14.01-12.33,14.16-8.77,25.17-17.81,35.85-5.7,6.74-16.86,13.89-41.14,13.61l1.57,17.99Z" style="fill: #66b32e; stroke: #000; stroke-miterlimit: 10; stroke-width: 4px;"/>
    <path d="M175.79,449.24c-4.34,2.43-11.38,5.57-20.22,5.8-20.98.53-36.19-15.79-45.18-25.44-8.36-8.97-12.46-16.87-18.88-29.24-5.44-10.48-9.77-18.83-7.08-21.54,3.3-3.33,16.48,2.46,25.87,10.82,14.03,12.48,11.9,23.85,22.22,33.3,6.51,5.96,18.49,11.63,42.54,8.27l.72,18.04Z" style="fill: #66b32e; stroke: #000; stroke-miterlimit: 10; stroke-width: 4px;"/>
    <path d="M183.29,491.13c-3.79,3.22-10.1,7.66-18.73,9.57-20.49,4.55-38.55-8.55-49.22-16.29-9.92-7.2-15.47-14.16-24.14-25.07-7.35-9.24-13.21-16.6-11.08-19.78,2.6-3.9,16.65-.75,27.47,5.65,16.16,9.56,16.26,21.12,28.2,28.41,7.53,4.6,20.38,7.86,43.34-.05l4.17,17.56Z" style="fill: #66b32e; stroke: #000; stroke-miterlimit: 10; stroke-width: 4px;"/>
  </g>
</svg>