<?xml version="1.0" encoding="UTF-8"?>
<svg id="Membres" xmlns="http://www.w3.org/2000/svg" viewBox="0 0 595.28 841.89">
  <g id="M2">
    <path d="m212.62,521.84c-14.37,3.9-28.29,9.42-41.44,16.41-1.83.97-1.38,3.25,0,4.32,16.34,12.59,32.68,25.18,49.02,37.76,4.61,3.55,9.22,7.11,13.84,10.66l.6-4.57c-22.88,5.2-45.91,9.75-68.96,14.14-6.49,1.24-12.99,2.46-19.49,3.69-2.09.39-2.45,3.62-.6,4.57,13.74,7.05,27.83,13.37,42.22,18.97l-.6-4.57c-6.82,4.26-13.87,8.65-19.12,14.86-5.11,6.04-8.66,13.93-7.65,21.98.17,1.34,1.03,2.5,2.5,2.5,1.22,0,2.67-1.15,2.5-2.5-1.95-15.58,12.85-25.39,24.29-32.53,1.95-1.22,1.37-3.8-.6-4.57-13.99-5.44-27.68-11.61-41.03-18.47l-.6,4.57c23.06-4.35,46.12-8.7,69.08-13.57,6.47-1.37,12.92-2.79,19.37-4.25,2.33-.53,2.15-3.37.6-4.57-16.34-12.59-32.68-25.18-49.02-37.76-4.61-3.55-9.22-7.11-13.84-10.66v4.32c12.78-6.79,26.28-12.11,40.25-15.9,3.1-.84,1.79-5.67-1.33-4.82h0Z" style="fill: #1d1d1b; stroke-width: 0px;"/>
    <path d="m361.9,531.79c3.74,4.18,7.38,8.46,11.23,12.53,1.85,1.95,3.97,3.32,6.67,3.66s5.54-.16,8.25-.41c11.51-1.07,23.01-2.14,34.52-3.21,6.54-.61,13.08-1.22,19.62-1.83l-2.16-3.76c-9.21,18.42-18.62,37.28-32.59,52.64-3.86,4.24-8.05,8.22-12.6,11.72-.9.69-1.47,1.66-1.15,2.82.29,1.07,1.31,1.81,2.41,1.84,19.24.4,38.48.8,57.71,1.21,5.47.11,10.95.23,16.42.34l-2.41-3.16c-3.06,7.39-6.13,14.78-9.19,22.17-.48,1.16.53,2.88,1.75,3.08,9.72,1.54,19.41,3.31,29.05,5.34,4.82,1.01,9.62,2.09,14.41,3.22,1.07.25,2.15.5,3.22.77.76.19,1.77.37,2.37.92,1.06.97.37,3.04.13,4.22-1.13,5.42-2.26,10.84-3.4,16.26-.28,1.32.39,2.7,1.75,3.08,1.24.34,2.8-.42,3.08-1.75,1.08-5.18,2.16-10.36,3.25-15.54.47-2.25,1.09-4.67.43-6.95-.7-2.41-2.6-3.85-4.89-4.66s-4.68-1.2-7-1.74c-2.56-.59-5.12-1.17-7.68-1.73-5.21-1.14-10.44-2.2-15.68-3.19-5.88-1.11-11.79-2.14-17.7-3.07l1.75,3.08c3.06-7.39,6.13-14.78,9.19-22.17.65-1.56-.96-3.13-2.41-3.16-19.24-.4-38.48-.8-57.71-1.21-5.47-.11-10.95-.23-16.42-.34l1.26,4.66c17.05-13.07,28.79-31.27,38.75-50.01,2.83-5.33,5.54-10.73,8.24-16.13.77-1.54-.13-3.95-2.16-3.76-11.18,1.04-22.35,2.08-33.53,3.12-5.55.52-11.09,1.03-16.64,1.55-2.79.26-5.59.54-8.38.78-2.24.19-4.38.31-6.12-1.33-2.06-1.93-3.86-4.19-5.74-6.3l-6.35-7.09c-2.15-2.4-5.68,1.14-3.54,3.54h0Z" style="fill: #1d1d1b; stroke-width: 0px;"/>
    <path d="m344.4,380.22c18.2-.02,36.4-.03,54.61-.05l27.43-.02h6.73c1.06,0,2.12-.01,3.18,0,.82,0,1.79-.05,2.56.29,1.09.49,1.17,1.98,1.23,3.02.11,1.96.11,3.92.26,5.88.72,9.67,3.07,19.06,6.86,27.98.53,1.24,2.36,1.52,3.42.9,1.29-.75,1.43-2.17.9-3.42-3.33-7.83-5.42-16.28-6.12-24.77-.17-2.07-.21-4.13-.29-6.2-.07-1.85-.3-3.84-1.32-5.43-2.53-3.95-7.62-3.25-11.68-3.25-18.7.02-37.4.03-56.1.05-10.56,0-21.11.02-31.67.03-3.22,0-3.22,5,0,5h0Z" style="fill: #1d1d1b; stroke-width: 0px;"/>
    <path d="m383.57,451.69c20.13,1.47,40.29,2.57,60.46,3.29,5.04.18,10.09.34,15.13.47,4.18.11,10.11,1.15,11.8-3.92.72-2.16.6-4.74.76-6.99.18-2.47.34-4.95.49-7.42.3-5.03.54-10.07.72-15.11.41-11.4.49-22.81.27-34.21-.06-3.21-5.06-3.22-5,0,.37,19.42-.15,38.86-1.6,58.23-.08,1.08-.1,2.19-.26,3.26-.05.33-.07.84-.33,1.08-.42.39-1.66.21-2.15.2-1.32-.02-2.65-.06-3.97-.1-4.8-.13-9.59-.27-14.39-.44-9.75-.34-19.51-.77-29.25-1.29-10.9-.58-21.8-1.27-32.69-2.06-1.35-.1-2.5,1.22-2.5,2.5,0,1.43,1.15,2.4,2.5,2.5h0Z" style="fill: #1d1d1b; stroke-width: 0px;"/>
  </g>
</svg>