<?xml version="1.0" encoding="UTF-8"?>
<svg id="Membres" xmlns="http://www.w3.org/2000/svg" viewBox="0 0 595.28 841.89">
  <g id="M9_LHa" data-name="M9 LHa">
    <path d="M218.34,529.14c1.67,8.68-12.37,10.05-11.86,16.85.43,5.73,10.5,6.02,11.74,12.26,1.32,6.65-11.76,9.96-11.76,16.6,0,7.24,10.44,11.25,10.23,18.63-.14,4.85-3.4,8.72-6.13,11.23" style="fill: none; stroke: #000; stroke-miterlimit: 10; stroke-width: 4px;"/>
    <path d="M281.87,526.88c1.47,7.66-12.46,8.92-11.86,16.85.43,5.73,10.5,6.02,11.74,12.26,1.32,6.65-8.84,9.75-8.68,18.38.13,7.24,7.36,9.47,7.15,16.85-.14,4.85-3.4,8.72-6.13,11.23" style="fill: none; stroke: #000; stroke-miterlimit: 10; stroke-width: 4px;"/>
    <path d="M343.91,526.88c1.67,8.68-12.37,10.05-11.86,16.85.43,5.73,10.5,6.02,11.74,12.26,1.32,6.65-8.84,9.75-8.68,18.38.13,7.24,7.36,9.47,7.15,16.85-.14,4.85-3.4,8.72-6.13,11.23" style="fill: none; stroke: #000; stroke-miterlimit: 10; stroke-width: 4px;"/>
    <path d="M249.34,487.53c.46.26-4.04,10.72,7.15,11.23,5.59.26-6.53,7.22-6.64,12.77-.13,6.2,7.59,7.64,7.66,13.79.08,6.48-8.46,7.99-8.68,14.81-.21,6.38,7.17,7.88,7.15,14.81-.02,5.06-14.69,9.79-6.64,13.79,9.25,4.6-3.17,10.19,0,14.81,2.06,3,4.67,2.69,6.13,5.62,1.67,3.35.14,7.55-1.53,10.72" style="fill: none; stroke: #000; stroke-miterlimit: 10; stroke-width: 4px;"/>
    <path d="M316.8,496.72c.46.26-4.04,10.72,7.15,11.23,5.59.26-6.53,7.22-6.64,12.77-.13,6.2,7.59,7.64,7.66,13.79.08,6.48-8.46,7.99-8.68,14.81-.21,6.38,12.72,10.7,7.15,14.81-10.38,7.66,3.61,21.13-4.77,17.87-9.19-3.57-8.78,4.57-5.61,9.19,2.06,3,10.9-1.39,12.36,1.53,1.67,3.35-4.51,9.63-6.18,12.8" style="fill: none; stroke: #000; stroke-miterlimit: 10; stroke-width: 4px;"/>
    <path d="M355.8,523.82c4.16,3.97-4.6,9.19,7.66,14.81,5.53,2.53-10.72,5.88-11.74,11.23-1.22,6.42,11.04,10.15,10.72,17.87-.3,7.38-18.41,9.08-11.18,12.61,17.63,8.61,4.14,16.55,11.69,25.17" style="fill: none; stroke: #000; stroke-miterlimit: 10; stroke-width: 4px;"/>
    <path d="M194.2,517.75c-4.16,3.97,4.6,9.19-7.66,14.81-5.53,2.53,10.72,5.88,11.74,11.23,1.22,6.42-11.04,10.15-10.72,17.87.3,7.38,18.41,9.08,11.18,12.61-17.63,8.61-4.14,16.55-11.69,25.17" style="fill: none; stroke: #000; stroke-miterlimit: 10; stroke-width: 4px;"/>
    <path d="M295.22,526.08c4.16,3.97-4.6,9.19,7.66,14.81,5.53,2.53-10.72,5.88-11.74,11.23-1.22,6.42,11.04,10.15,10.72,17.87-.3,7.38-18.41,9.08-11.18,12.61,17.63,8.61,4.14,16.55,11.69,25.17" style="fill: none; stroke: #000; stroke-miterlimit: 10; stroke-width: 4px;"/>
    <path d="M233.42,520.75c4.16,3.97-4.6,9.19,7.66,14.81,5.53,2.53-10.72,5.88-11.74,11.23-1.22,6.42,11.04,10.15,10.72,17.87-.3,7.38-18.41,9.08-11.18,12.61,17.63,8.61,4.14,16.55,11.69,25.17" style="fill: none; stroke: #000; stroke-miterlimit: 10; stroke-width: 4px;"/>
  </g>
</svg>