<?xml version="1.0" encoding="UTF-8"?>
<svg id="Membres" xmlns="http://www.w3.org/2000/svg" viewBox="0 0 595.28 841.89">
  <g id="M1_LHa" data-name="M1 LHa">
    <path d="M402.59,383.4c-16.45,20.09-32.9,40.18-49.35,60.27l-.51-19.55,34.6-46.69,8.17-35.92c-.18-.23-6.18-9.13-3.92-14.71,2.24-5.51,9.45-7.77,15.01-5.62,5.13,1.99,8.69,7.67,7.48,13.27-1.3,5.99-7.3,8.31-7.74,8.47-2.19,8.19-2.98,14.32-5.17,22.52-.55,3.08,2.08,4.22,3.46,4.62,17.79-5.92,22.89-14.62,24.65-20.65,1.14-3.87.82-8,4.21-10.67,4.49-3.54,11.17-2.84,15.21.9,4.38,4.05,5.51,11.52,1.54,15.95-4.01,4.48-14.26,1.98-14.55,1.92-3.75,4.63-6.57,8.1-9.83,12.11-2.29,2.83-5.18,5.13-8.46,6.7-4.94,2.36-10.37,5.32-14.82,7.08Z" style="fill: #66b32e; stroke: #000; stroke-miterlimit: 10; stroke-width: 4px;"/>
  </g>
</svg>