<?xml version="1.0" encoding="UTF-8"?>
<svg id="Membres" xmlns="http://www.w3.org/2000/svg" viewBox="0 0 595.28 841.89">
  <g id="M7_LHa" data-name="M7 LHa">
    <path d="M178.82,474.75c-4.32-2.89-27.5-18.13-34.5-11.86-8.44,7.56,8.03,45.15,18.23,44.19,4.12-.39,7.27-7.08,7.44-12.35.55-17.2-30.16-36.32-43.8-28.13-10.28,6.17-9.5,27.03-4.18,40.28,5.16,12.85,17.17,24.96,22.74,22.61,4.65-1.96,5.04-14.06,1.77-22.75-5.52-14.68-24.74-28.43-40.43-21.75-14.49,6.17-22.58,28.35-11.54,47.53" style="fill: none; stroke: #000; stroke-linecap: round; stroke-linejoin: round; stroke-width: 4px;"/>
    <path d="M349.61,402.89c4.06,3.24,25.91,20.33,33.4,14.66,9.04-6.84-4.28-45.66-14.52-45.55-4.14.05-7.83,6.46-8.43,11.69-1.96,17.1,27.06,38.69,41.33,31.65,10.76-5.3,11.7-26.16,7.49-39.8-4.08-13.23-15.05-26.29-20.8-24.41-4.8,1.57-6.18,13.59-3.64,22.53,4.29,15.08,22.31,30.38,38.49,25.01,14.95-4.96,24.84-26.39,15.42-46.41" style="fill: none; stroke: #000; stroke-linecap: round; stroke-linejoin: round; stroke-width: 4px;"/>
    <path d="M353.88,451.01c2.28,4.67,14.67,29.49,23.87,27.58,11.1-2.3,15.74-43.08,6.44-47.37-3.76-1.74-9.84,2.47-12.63,6.94-9.11,14.6,7.83,46.56,23.74,46.33,11.99-.17,21.8-18.6,23.85-32.73,2-13.71-2.3-30.21-8.31-30.97-5.01-.64-11.42,9.62-12.96,18.78-2.6,15.46,7.11,37.01,24.03,39.12,15.63,1.94,33.77-13.17,33.86-35.29" style="fill: none; stroke: #000; stroke-linecap: round; stroke-linejoin: round; stroke-width: 4px;"/>
    <path d="M184.91,375.43c-1.4-5-9.1-31.65-18.5-31.44-11.33.26-23.26,39.53-14.89,45.43,3.38,2.39,10.13-.65,13.68-4.54,11.6-12.71.71-47.21-14.98-49.86-11.83-2-24.8,14.36-29.37,27.88-4.44,13.12-3.19,30.12,2.58,31.97,4.81,1.53,12.97-7.4,16.14-16.13,5.35-14.73-.31-37.69-16.57-42.81-15.02-4.73-35.59,6.86-39.67,28.6" style="fill: none; stroke: #000; stroke-linecap: round; stroke-linejoin: round; stroke-width: 4px;"/>
    <path d="M176.12,421.45c-1.89-1.85-12.03-11.63-16.12-9.16-4.93,2.98-.23,23.3,4.96,23.78,2.09.19,4.3-2.85,4.87-5.47,1.89-8.54-11.65-20.97-19.23-18.16-5.72,2.12-7.28,12.61-5.87,19.72,1.37,6.9,6.23,14.08,9.24,13.43,2.51-.54,3.84-6.55,3.02-11.2-1.38-7.85-9.69-16.52-18.15-14.66-7.82,1.72-13.94,12.04-10.22,22.65" style="fill: none; stroke: #000; stroke-linecap: round; stroke-linejoin: round; stroke-width: 4px;"/>
    <path d="M330.04,361.87c-.31-2.62-1.86-16.63,2.59-18.35,5.37-2.08,18.59,14.06,15.8,18.45-1.13,1.78-4.88,1.66-7.31.52-7.91-3.72-9.49-22.04-2.63-26.32,5.17-3.23,14.43,1.94,19.2,7.4,4.63,5.3,7.34,13.53,4.99,15.51-1.96,1.65-7.53-.96-10.71-4.45-5.37-5.88-7.16-17.76-.52-23.32,6.14-5.14,18.05-3.68,24.18,5.74" style="fill: none; stroke: #000; stroke-linecap: round; stroke-linejoin: round; stroke-width: 4px;"/>
    <path d="M358.08,504.22c2.01-1.71,12.81-10.78,16.71-8.02,4.71,3.32-1.38,23.26-6.59,23.38-2.1.05-4.09-3.14-4.48-5.79-1.29-8.65,13.07-20.12,20.44-16.79,5.56,2.51,6.39,13.08,4.49,20.08-1.84,6.79-7.19,13.61-10.14,12.76-2.46-.71-3.38-6.8-2.24-11.38,1.91-7.73,10.8-15.81,19.12-13.37,7.68,2.26,13.07,12.97,8.64,23.3" style="fill: none; stroke: #000; stroke-linecap: round; stroke-linejoin: round; stroke-width: 4px;"/>
  </g>
</svg>