<?xml version="1.0" encoding="UTF-8"?>
<svg id="Membres" xmlns="http://www.w3.org/2000/svg" viewBox="0 0 595.28 841.89">
  <g id="M4_LHa" data-name="M4 LHa">
    <path d="M188.92,363.11c-16.54-6.96-64.75-35.52-64.75-35.52l-66.28,44.67,68.29-33.13,55.22,40.68,7.52-16.71Z" style="fill: #000; stroke: #000; stroke-linecap: round; stroke-linejoin: round; stroke-width: 4px;"/>
    <path d="M174.4,410.91c-17.95.24-73.55-6.61-73.55-6.61l-42.84,67.48,49.3-57.7,66.89,15.16.19-18.33Z" style="fill: #000; stroke: #000; stroke-linecap: round; stroke-linejoin: round; stroke-width: 4px;"/>
    <path d="M336.53,365.85c16.54-6.96,64.75-35.52,64.75-35.52l66.28,44.67-68.29-33.13-55.22,40.68-7.52-16.71Z" style="fill: #000; stroke: #000; stroke-linecap: round; stroke-linejoin: round; stroke-width: 4px;"/>
    <path d="M351.06,413.65c17.95.24,73.55-6.61,73.55-6.61l42.84,67.48-49.3-57.7-66.89,15.16-.19-18.33Z" style="fill: #000; stroke: #000; stroke-linecap: round; stroke-linejoin: round; stroke-width: 4px;"/>
  </g>
</svg>