<?xml version="1.0" encoding="UTF-8"?>
<svg id="Membres" xmlns="http://www.w3.org/2000/svg" viewBox="0 0 595.28 841.89">
  <g id="M8_LHa" data-name="M8 LHa">
    <path d="M404.68,383.4c-17.03,19.6-34.06,39.2-51.09,58.8l.07-19.56,35.96-45.66,9.22-35.67c-.18-.24-5.91-9.31-3.49-14.81,2.4-5.44,9.67-7.49,15.17-5.18,5.07,2.14,8.47,7.93,7.09,13.48-1.47,5.95-7.54,8.1-7.98,8.24-2.43,8.12-3.39,14.23-5.83,22.35-.64,3.06,1.96,4.28,3.32,4.72,17.96-5.4,23.3-13.95,25.25-19.92,1.25-3.84,1.05-7.97,4.52-10.55,4.6-3.41,11.25-2.51,15.17,1.34,4.26,4.17,5.18,11.68,1.08,15.99-4.14,4.36-14.31,1.57-14.6,1.49-3.89,4.51-6.81,7.9-10.18,11.82-2.38,2.76-5.33,4.98-8.65,6.45-5.01,2.22-10.52,5.02-15.02,6.65Z" style="fill: #66b32e; stroke: #000; stroke-miterlimit: 10; stroke-width: 4px;"/>
    <path d="M125.03,383.4c17.03,19.6,34.06,39.2,51.09,58.8l-.07-19.56-35.96-45.66-9.22-35.67c.18-.24,5.91-9.31,3.49-14.81-2.4-5.44-9.67-7.49-15.17-5.18-5.07,2.14-8.47,7.93-7.09,13.48,1.47,5.95,7.54,8.1,7.98,8.24,2.43,8.12,3.39,14.23,5.83,22.35.64,3.06-1.96,4.28-3.32,4.72-17.96-5.4-23.3-13.95-25.25-19.92-1.25-3.84-1.05-7.97-4.52-10.55-4.6-3.41-11.25-2.51-15.17,1.34-4.26,4.17-5.18,11.68-1.08,15.99,4.14,4.36,14.31,1.57,14.6,1.49,3.89,4.51,6.81,7.9,10.18,11.82,2.38,2.76,5.33,4.98,8.65,6.45,5.01,2.22,10.52,5.02,15.02,6.65Z" style="fill: #66b32e; stroke: #000; stroke-miterlimit: 10; stroke-width: 4px;"/>
    <path d="M250.53,488.21c.46.26-4.04,10.72,7.15,11.23,5.59.26-6.53,7.22-6.64,12.77-.13,6.2,7.59,7.64,7.66,13.79.08,6.48-8.46,7.99-8.68,14.81-.21,6.38,7.17,7.88,7.15,14.81-.02,5.06-14.69,9.79-6.64,13.79,9.25,4.6-3.17,10.19,0,14.81,2.06,3,4.67,2.69,6.13,5.62,1.67,3.35.14,7.55-1.53,10.72" style="fill: none; stroke: #000; stroke-miterlimit: 10; stroke-width: 4px;"/>
    <path d="M318,497.4c.46.26-4.04,10.72,7.15,11.23,5.59.26-6.53,7.22-6.64,12.77-.13,6.2,7.59,7.64,7.66,13.79.08,6.48-8.46,7.99-8.68,14.81-.21,6.38,12.72,10.7,7.15,14.81-10.38,7.66,3.61,21.13-4.77,17.87-9.19-3.57-8.78,4.57-5.61,9.19,2.06,3,10.9-1.39,12.36,1.53,1.67,3.35-4.51,9.63-6.18,12.8" style="fill: none; stroke: #000; stroke-miterlimit: 10; stroke-width: 4px;"/>
    <path d="M356.99,524.49c4.16,3.97-4.6,9.19,7.66,14.81,5.53,2.53-10.72,5.88-11.74,11.23-1.22,6.42,11.04,10.15,10.72,17.87-.3,7.38-18.41,9.08-11.18,12.61,17.63,8.61,4.14,16.55,11.69,25.17" style="fill: none; stroke: #000; stroke-miterlimit: 10; stroke-width: 4px;"/>
    <path d="M195.39,518.43c-4.16,3.97,4.6,9.19-7.66,14.81-5.53,2.53,10.72,5.88,11.74,11.23,1.22,6.42-11.04,10.15-10.72,17.87.3,7.38,18.41,9.08,11.18,12.61-17.63,8.61-4.14,16.55-11.69,25.17" style="fill: none; stroke: #000; stroke-miterlimit: 10; stroke-width: 4px;"/>
    <path d="M296.41,526.75c4.16,3.97-4.6,9.19,7.66,14.81,5.53,2.53-10.72,5.88-11.74,11.23-1.22,6.42,11.04,10.15,10.72,17.87-.3,7.38-18.41,9.08-11.18,12.61,17.63,8.61,4.14,16.55,11.69,25.17" style="fill: none; stroke: #000; stroke-miterlimit: 10; stroke-width: 4px;"/>
    <path d="M234.61,521.43c4.16,3.97-4.6,9.19,7.66,14.81,5.53,2.53-10.72,5.88-11.74,11.23-1.22,6.42,11.04,10.15,10.72,17.87-.3,7.38-18.41,9.08-11.18,12.61,17.63,8.61,4.14,16.55,11.69,25.17" style="fill: none; stroke: #000; stroke-miterlimit: 10; stroke-width: 4px;"/>
  </g>
</svg>