<?xml version="1.0" encoding="UTF-8"?>
<svg id="Peau" xmlns="http://www.w3.org/2000/svg" viewBox="0 0 595.28 841.89">
  <g id="polis">
    <path d="M225.58,350.76c-.82,1.56-1.65,2.74-2.3,3.57-1.01,1.3-1.41,1.53-1.53,2.3-.3,1.88,1.53,4.08,1.53,4.09h0c.23.19,2.11,1.76,2.04,4.34-.06,1.98-1.23,3.27-1.53,3.57" style="fill: none; stroke: #000; stroke-miterlimit: 10; stroke-width: 4px;"/>
    <path d="M226.4,447.96c-.82,1.56-1.65,2.74-2.3,3.57-1.01,1.3-1.41,1.53-1.53,2.3-.3,1.88,1.53,4.08,1.53,4.09h0c.23.19,2.11,1.76,2.04,4.34-.06,1.98-1.23,3.27-1.53,3.57" style="fill: none; stroke: #000; stroke-miterlimit: 10; stroke-width: 4px;"/>
    <path d="M259.46,363.41c-.82,1.56-1.65,2.74-2.3,3.57-1.01,1.3-1.41,1.53-1.53,2.3-.3,1.88,1.53,4.08,1.53,4.09h0c.23.19,2.11,1.76,2.04,4.34-.06,1.98-1.23,3.27-1.53,3.57" style="fill: none; stroke: #000; stroke-miterlimit: 10; stroke-width: 4px;"/>
    <path d="M319.32,443.26c-.82,1.56-1.65,2.74-2.3,3.57-1.01,1.3-1.41,1.53-1.53,2.3-.3,1.88,1.53,4.08,1.53,4.09h0c.23.19,2.11,1.76,2.04,4.34-.06,1.98-1.23,3.27-1.53,3.57" style="fill: none; stroke: #000; stroke-miterlimit: 10; stroke-width: 4px;"/>
    <path d="M214.78,431.14c-.82,1.56-1.65,2.74-2.3,3.57-1.01,1.3-1.41,1.53-1.53,2.3-.3,1.88,1.53,4.08,1.53,4.09h0c.23.19,2.11,1.76,2.04,4.34-.06,1.98-1.23,3.27-1.53,3.57" style="fill: none; stroke: #000; stroke-miterlimit: 10; stroke-width: 4px;"/>
    <path d="M306.3,369.57c-.82,1.56-1.65,2.74-2.3,3.57-1.01,1.3-1.41,1.53-1.53,2.3-.3,1.88,1.53,4.08,1.53,4.09h0c.23.19,2.11,1.76,2.04,4.34-.06,1.98-1.23,3.27-1.53,3.57" style="fill: none; stroke: #000; stroke-miterlimit: 10; stroke-width: 4px;"/>
    <path d="M225.38,495.7c-.82,1.56-1.65,2.74-2.3,3.57-1.01,1.3-1.41,1.53-1.53,2.3-.3,1.88,1.53,4.08,1.53,4.09h0c.23.19,2.11,1.76,2.04,4.34-.06,1.98-1.23,3.27-1.53,3.57" style="fill: none; stroke: #000; stroke-miterlimit: 10; stroke-width: 4px;"/>
    <path d="M286.64,465.98c-.82,1.56-1.65,2.74-2.3,3.57-1.01,1.3-1.41,1.53-1.53,2.3-.3,1.88,1.53,4.08,1.53,4.09h0c.23.19,2.11,1.76,2.04,4.34-.06,1.98-1.23,3.27-1.53,3.57" style="fill: none; stroke: #000; stroke-miterlimit: 10; stroke-width: 4px;"/>
    <path d="M300.31,406.94c-.82,1.56-1.65,2.74-2.3,3.57-1.01,1.3-1.41,1.53-1.53,2.3-.3,1.88,1.53,4.08,1.53,4.09h0c.23.19,2.11,1.76,2.04,4.34-.06,1.98-1.23,3.27-1.53,3.57" style="fill: none; stroke: #000; stroke-miterlimit: 10; stroke-width: 4px;"/>
    <path d="M284.71,387.45c.82,1.56,1.65,2.74,2.3,3.57,1.01,1.3,1.41,1.53,1.53,2.3.3,1.88-1.53,4.08-1.53,4.09h0c-.23.19-2.11,1.76-2.04,4.34.06,1.98,1.23,3.27,1.53,3.57" style="fill: none; stroke: #000; stroke-miterlimit: 10; stroke-width: 4px;"/>
    <path d="M315.77,365.23c.82,1.56,1.65,2.74,2.3,3.57,1.01,1.3,1.41,1.53,1.53,2.3.3,1.88-1.53,4.08-1.53,4.09h0c-.23.19-2.11,1.76-2.04,4.34.06,1.98,1.23,3.27,1.53,3.57" style="fill: none; stroke: #000; stroke-miterlimit: 10; stroke-width: 4px;"/>
    <path d="M287.26,362.94c.82,1.56,1.65,2.74,2.3,3.57,1.01,1.3,1.41,1.53,1.53,2.3.3,1.88-1.53,4.08-1.53,4.09h0c-.23.19-2.11,1.76-2.04,4.34.06,1.98,1.23,3.27,1.53,3.57" style="fill: none; stroke: #000; stroke-miterlimit: 10; stroke-width: 4px;"/>
    <path d="M237.44,396.38c.82,1.56,1.65,2.74,2.3,3.57,1.01,1.3,1.41,1.53,1.53,2.3.3,1.88-1.53,4.08-1.53,4.09h0c-.23.19-2.11,1.76-2.04,4.34.06,1.98,1.23,3.27,1.53,3.57" style="fill: none; stroke: #000; stroke-miterlimit: 10; stroke-width: 4px;"/>
    <path d="M270.83,435.19c.82,1.56,1.65,2.74,2.3,3.57,1.01,1.3,1.41,1.53,1.53,2.3.3,1.88-1.53,4.08-1.53,4.09h0c-.23.19-2.11,1.76-2.04,4.34.06,1.98,1.23,3.27,1.53,3.57" style="fill: none; stroke: #000; stroke-miterlimit: 10; stroke-width: 4px;"/>
    <path d="M278.91,341.83c-.82,1.56-1.65,2.74-2.3,3.57-1.01,1.3-1.41,1.53-1.53,2.3-.3,1.88,1.53,4.08,1.53,4.09h0c.23.19,2.11,1.76,2.04,4.34-.06,1.98-1.23,3.27-1.53,3.57" style="fill: none; stroke: #000; stroke-miterlimit: 10; stroke-width: 4px;"/>
    <path d="M198.83,381.57c-.82,1.56-1.65,2.74-2.3,3.57-1.01,1.3-1.41,1.53-1.53,2.3-.3,1.88,1.53,4.08,1.53,4.09h0c.23.19,2.11,1.76,2.04,4.34-.06,1.98-1.23,3.27-1.53,3.57" style="fill: none; stroke: #000; stroke-miterlimit: 10; stroke-width: 4px;"/>
    <path d="M334.51,392.65c-.82,1.56-1.65,2.74-2.3,3.57-1.01,1.3-1.41,1.53-1.53,2.3-.3,1.88,1.53,4.08,1.53,4.09h0c.23.19,2.11,1.76,2.04,4.34-.06,1.98-1.23,3.27-1.53,3.57" style="fill: none; stroke: #000; stroke-miterlimit: 10; stroke-width: 4px;"/>
    <path d="M342.31,467.36c-.82,1.56-1.65,2.74-2.3,3.57-1.01,1.3-1.41,1.53-1.53,2.3-.3,1.88,1.53,4.08,1.53,4.09h0c.23.19,2.11,1.76,2.04,4.34-.06,1.98-1.23,3.27-1.53,3.57" style="fill: none; stroke: #000; stroke-miterlimit: 10; stroke-width: 4px;"/>
    <path d="M245.17,424.82c-.82,1.56-1.65,2.74-2.3,3.57-1.01,1.3-1.41,1.53-1.53,2.3-.3,1.88,1.53,4.08,1.53,4.09h0c.23.19,2.11,1.76,2.04,4.34-.06,1.98-1.23,3.27-1.53,3.57" style="fill: none; stroke: #000; stroke-miterlimit: 10; stroke-width: 4px;"/>
    <path d="M264.94,396.38c-.82,1.56-1.65,2.74-2.3,3.57-1.01,1.3-1.41,1.53-1.53,2.3-.3,1.88,1.53,4.08,1.53,4.09h0c.23.19,2.11,1.76,2.04,4.34-.06,1.98-1.23,3.27-1.53,3.57" style="fill: none; stroke: #000; stroke-miterlimit: 10; stroke-width: 4px;"/>
    <path d="M298.91,345.57c-.82,1.56-1.65,2.74-2.3,3.57-1.01,1.3-1.41,1.53-1.53,2.3-.3,1.88,1.53,4.08,1.53,4.09h0c.23.19,2.11,1.76,2.04,4.34-.06,1.98-1.23,3.27-1.53,3.57" style="fill: none; stroke: #000; stroke-miterlimit: 10; stroke-width: 4px;"/>
    <path d="M198.81,461.13c-.82,1.56-1.65,2.74-2.3,3.57-1.01,1.3-1.41,1.53-1.53,2.3-.3,1.88,1.53,4.08,1.53,4.09h0c.23.19,2.11,1.76,2.04,4.34-.06,1.98-1.23,3.27-1.53,3.57" style="fill: none; stroke: #000; stroke-miterlimit: 10; stroke-width: 4px;"/>
    <path d="M256.02,456.02c.82,1.56,1.65,2.74,2.3,3.57,1.01,1.3,1.41,1.53,1.53,2.3.3,1.88-1.53,4.08-1.53,4.09h0c-.23.19-2.11,1.76-2.04,4.34.06,1.98,1.23,3.27,1.53,3.57" style="fill: none; stroke: #000; stroke-miterlimit: 10; stroke-width: 4px;"/>
    <path d="M288.53,495.96c.82,1.56,1.65,2.74,2.3,3.57,1.01,1.3,1.41,1.53,1.53,2.3.3,1.88-1.53,4.08-1.53,4.09h0c-.23.19-2.11,1.76-2.04,4.34.06,1.98,1.23,3.27,1.53,3.57" style="fill: none; stroke: #000; stroke-miterlimit: 10; stroke-width: 4px;"/>
    <path d="M335.61,425.27c.82,1.56,1.65,2.74,2.3,3.57,1.01,1.3,1.41,1.53,1.53,2.3.3,1.88-1.53,4.08-1.53,4.09h0c-.23.19-2.11,1.76-2.04,4.34.06,1.98,1.23,3.27,1.53,3.57" style="fill: none; stroke: #000; stroke-miterlimit: 10; stroke-width: 4px;"/>
    <path d="M243.11,338.13c.82,1.56,1.65,2.74,2.3,3.57,1.01,1.3,1.41,1.53,1.53,2.3.3,1.88-1.53,4.08-1.53,4.09h0c-.23.19-2.11,1.76-2.04,4.34.06,1.98,1.23,3.27,1.53,3.57" style="fill: none; stroke: #000; stroke-miterlimit: 10; stroke-width: 4px;"/>
    <path d="M306.3,467.36c.82,1.56,1.65,2.74,2.3,3.57,1.01,1.3,1.41,1.53,1.53,2.3.3,1.88-1.53,4.08-1.53,4.09h0c-.23.19-2.11,1.76-2.04,4.34.06,1.98,1.23,3.27,1.53,3.57" style="fill: none; stroke: #000; stroke-miterlimit: 10; stroke-width: 4px;"/>
    <path d="M206.69,492.38c.82,1.56,1.65,2.74,2.3,3.57,1.01,1.3,1.41,1.53,1.53,2.3.3,1.88-1.53,4.08-1.53,4.09h0c-.23.19-2.11,1.76-2.04,4.34.06,1.98,1.23,3.27,1.53,3.57" style="fill: none; stroke: #000; stroke-miterlimit: 10; stroke-width: 4px;"/>
    <path d="M193.01,415.88c.82,1.56,1.65,2.74,2.3,3.57,1.01,1.3,1.41,1.53,1.53,2.3.3,1.88-1.53,4.08-1.53,4.09h0c-.23.19-2.11,1.76-2.04,4.34.06,1.98,1.23,3.27,1.53,3.57" style="fill: none; stroke: #000; stroke-miterlimit: 10; stroke-width: 4px;"/>
    <path d="M220.62,379.91c-.82,1.56-1.65,2.74-2.3,3.57-1.01,1.3-1.41,1.53-1.53,2.3-.3,1.88,1.53,4.08,1.53,4.09h0c.23.19,2.11,1.76,2.04,4.34-.06,1.98-1.23,3.27-1.53,3.57" style="fill: none; stroke: #000; stroke-miterlimit: 10; stroke-width: 4px;"/>
    <path d="M232.53,476.3c-.82,1.56-1.65,2.74-2.3,3.57-1.01,1.3-1.41,1.53-1.53,2.3-.3,1.88,1.53,4.08,1.53,4.09h0c.23.19,2.11,1.76,2.04,4.34-.06,1.98-1.23,3.27-1.53,3.57" style="fill: none; stroke: #000; stroke-miterlimit: 10; stroke-width: 4px;"/>
    <path d="M254.5,392.56c-.82,1.56-1.65,2.74-2.3,3.57-1.01,1.3-1.41,1.53-1.53,2.3-.3,1.88,1.53,4.08,1.53,4.09h0c.23.19,2.11,1.76,2.04,4.34-.06,1.98-1.23,3.27-1.53,3.57" style="fill: none; stroke: #000; stroke-miterlimit: 10; stroke-width: 4px;"/>
    <path d="M320.36,472.21c-.82,1.56-1.65,2.74-2.3,3.57-1.01,1.3-1.41,1.53-1.53,2.3-.3,1.88,1.53,4.08,1.53,4.09h0c.23.19,2.11,1.76,2.04,4.34-.06,1.98-1.23,3.27-1.53,3.57" style="fill: none; stroke: #000; stroke-miterlimit: 10; stroke-width: 4px;"/>
    <path d="M209.82,460.29c-.82,1.56-1.65,2.74-2.3,3.57-1.01,1.3-1.41,1.53-1.53,2.3-.3,1.88,1.53,4.08,1.53,4.09h0c.23.19,2.11,1.76,2.04,4.34-.06,1.98-1.23,3.27-1.53,3.57" style="fill: none; stroke: #000; stroke-miterlimit: 10; stroke-width: 4px;"/>
    <path d="M313.21,397.66c-.82,1.56-1.65,2.74-2.3,3.57-1.01,1.3-1.41,1.53-1.53,2.3-.3,1.88,1.53,4.08,1.53,4.09h0c.23.19,2.11,1.76,2.04,4.34-.06,1.98-1.23,3.27-1.53,3.57" style="fill: none; stroke: #000; stroke-miterlimit: 10; stroke-width: 4px;"/>
    <path d="M295.35,436.09c-.82,1.56-1.65,2.74-2.3,3.57-1.01,1.3-1.41,1.53-1.53,2.3-.3,1.88,1.53,4.08,1.53,4.09h0c.23.19,2.11,1.76,2.04,4.34-.06,1.98-1.23,3.27-1.53,3.57" style="fill: none; stroke: #000; stroke-miterlimit: 10; stroke-width: 4px;"/>
    <path d="M279.74,416.59c.82,1.56,1.65,2.74,2.3,3.57,1.01,1.3,1.41,1.53,1.53,2.3.3,1.88-1.53,4.08-1.53,4.09h0c-.23.19-2.11,1.76-2.04,4.34.06,1.98,1.23,3.27,1.53,3.57" style="fill: none; stroke: #000; stroke-miterlimit: 10; stroke-width: 4px;"/>
    <path d="M229.98,423.19c.82,1.56,1.65,2.74,2.3,3.57,1.01,1.3,1.41,1.53,1.53,2.3.3,1.88-1.53,4.08-1.53,4.09h0c-.23.19-2.11,1.76-2.04,4.34.06,1.98,1.23,3.27,1.53,3.57" style="fill: none; stroke: #000; stroke-miterlimit: 10; stroke-width: 4px;"/>
    <path d="M273.95,460.29c.82,1.56,1.65,2.74,2.3,3.57,1.01,1.3,1.41,1.53,1.53,2.3.3,1.88-1.53,4.08-1.53,4.09h0c-.23.19-2.11,1.76-2.04,4.34.06,1.98,1.23,3.27,1.53,3.57" style="fill: none; stroke: #000; stroke-miterlimit: 10; stroke-width: 4px;"/>
    <path d="M273.95,370.97c-.82,1.56-1.65,2.74-2.3,3.57-1.01,1.3-1.41,1.53-1.53,2.3-.3,1.88,1.53,4.08,1.53,4.09h0c.23.19,2.11,1.76,2.04,4.34-.06,1.98-1.23,3.27-1.53,3.57" style="fill: none; stroke: #000; stroke-miterlimit: 10; stroke-width: 4px;"/>
    <path d="M215.17,407.87c-.82,1.56-1.65,2.74-2.3,3.57-1.01,1.3-1.41,1.53-1.53,2.3-.3,1.88,1.53,4.08,1.53,4.09h0c.23.19,2.11,1.76,2.04,4.34-.06,1.98-1.23,3.27-1.53,3.57" style="fill: none; stroke: #000; stroke-miterlimit: 10; stroke-width: 4px;"/>
    <path d="M320.86,418.22c-.82,1.56-1.65,2.74-2.3,3.57-1.01,1.3-1.41,1.53-1.53,2.3-.3,1.88,1.53,4.08,1.53,4.09h0c.23.19,2.11,1.76,2.04,4.34-.06,1.98-1.23,3.27-1.53,3.57" style="fill: none; stroke: #000; stroke-miterlimit: 10; stroke-width: 4px;"/>
    <path d="M240.2,453.96c-.82,1.56-1.65,2.74-2.3,3.57-1.01,1.3-1.41,1.53-1.53,2.3-.3,1.88,1.53,4.08,1.53,4.09h0c.23.19,2.11,1.76,2.04,4.34-.06,1.98-1.23,3.27-1.53,3.57" style="fill: none; stroke: #000; stroke-miterlimit: 10; stroke-width: 4px;"/>
    <path d="M259.97,425.53c-.82,1.56-1.65,2.74-2.3,3.57-1.01,1.3-1.41,1.53-1.53,2.3-.3,1.88,1.53,4.08,1.53,4.09h0c.23.19,2.11,1.76,2.04,4.34-.06,1.98-1.23,3.27-1.53,3.57" style="fill: none; stroke: #000; stroke-miterlimit: 10; stroke-width: 4px;"/>
    <path d="M343.34,497.49c.82,1.56,1.65,2.74,2.3,3.57,1.01,1.3,1.41,1.53,1.53,2.3.3,1.88-1.53,4.08-1.53,4.09h0c-.23.19-2.11,1.76-2.04,4.34.06,1.98,1.23,3.27,1.53,3.57" style="fill: none; stroke: #000; stroke-miterlimit: 10; stroke-width: 4px;"/>
    <path d="M329.62,449.31c.82,1.56,1.65,2.74,2.3,3.57,1.01,1.3,1.41,1.53,1.53,2.3.3,1.88-1.53,4.08-1.53,4.09h0c-.23.19-2.11,1.76-2.04,4.34.06,1.98,1.23,3.27,1.53,3.57" style="fill: none; stroke: #000; stroke-miterlimit: 10; stroke-width: 4px;"/>
    <path d="M238.15,367.28c.82,1.56,1.65,2.74,2.3,3.57,1.01,1.3,1.41,1.53,1.53,2.3.3,1.88-1.53,4.08-1.53,4.09h0c-.23.19-2.11,1.76-2.04,4.34.06,1.98,1.23,3.27,1.53,3.57" style="fill: none; stroke: #000; stroke-miterlimit: 10; stroke-width: 4px;"/>
    <path d="M188.05,445.03c.82,1.56,1.65,2.74,2.3,3.57,1.01,1.3,1.41,1.53,1.53,2.3.3,1.88-1.53,4.08-1.53,4.09h0c-.23.19-2.11,1.76-2.04,4.34.06,1.98,1.23,3.27,1.53,3.57" style="fill: none; stroke: #000; stroke-miterlimit: 10; stroke-width: 4px;"/>
  </g>
</svg>