<?xml version="1.0" encoding="UTF-8"?>
<svg id="peau" xmlns="http://www.w3.org/2000/svg" viewBox="0 0 595.28 841.89">
  <g id="poils">
    <path d="m243.68,355.98c1.2,7.61,1.42,15.36.77,23.03-.11,1.35,1.23,2.5,2.5,2.5,1.45,0,2.39-1.15,2.5-2.5.68-8.14.32-16.29-.95-24.36-.21-1.33-1.88-2.08-3.08-1.75-1.42.39-1.96,1.74-1.75,3.08h0Z" style="fill: #1d1d1b; stroke-width: 0px;"/>
    <path d="m270.97,371.71c-2.28-.75-4.1.95-4.86,2.95s-.53,4.43-.63,6.51c-.23,4.69-.46,9.37-.69,14.06-.07,1.35,1.2,2.5,2.5,2.5,1.41,0,2.43-1.15,2.5-2.5.18-3.71.37-7.42.55-11.12.09-1.82.18-3.64.27-5.46.02-.49.07-.98.07-1.47l.02-.42c-.05.23-.04.19.02-.12,0-.04.11-.76.12-.42.16-.26.18-.29.04-.09-.39.28-.8.41-1.25.4,1.28.42,2.73-.49,3.08-1.75.37-1.36-.46-2.65-1.75-3.08h0Z" style="fill: #1d1d1b; stroke-width: 0px;"/>
    <path d="m248.65,439.14c.15,1.63.98,2.78,2.55,3.34.72.25,1.79.19,2.35.6.72.54.94,1.87,1.16,2.67.42,1.56.75,3.14,1,4.73.98,6.16.57,12.53-1.01,18.55-.82,3.12,4,4.44,4.82,1.33,1.69-6.44,2.11-13.14,1.22-19.74-.41-3.03-.9-6.27-2.24-9.04-.59-1.22-1.51-2.33-2.7-2.99-.55-.3-1.15-.47-1.76-.59-.29-.05-.58-.09-.86-.15-1.23-.28.31-.31.46,1.29-.13-1.34-1.06-2.5-2.5-2.5-1.25,0-2.63,1.15-2.5,2.5h0Z" style="fill: #1d1d1b; stroke-width: 0px;"/>
    <path d="m295.02,458.18c2.56,7.38,3.82,15.06,3.7,22.87-.05,3.22,4.95,3.22,5,0,.13-8.21-1.18-16.44-3.87-24.2-.44-1.27-1.71-2.12-3.08-1.75-1.24.34-2.19,1.79-1.75,3.08h0Z" style="fill: #1d1d1b; stroke-width: 0px;"/>
    <path d="m237.21,481.32c-4.31,3.56-8.62,7.13-12.94,10.69-1.01.84-.93,2.68,0,3.54,1.08.99,2.46.89,3.54,0,4.31-3.56,8.62-7.13,12.94-10.69,1.01-.84.93-2.68,0-3.54-1.08-.99-2.46-.89-3.54,0h0Z" style="fill: #1d1d1b; stroke-width: 0px;"/>
    <path d="m213.46,458.25c-2.71,2.7-4.66,6.2-5.44,9.95-.27,1.28.37,2.76,1.75,3.08,1.25.29,2.79-.38,3.08-1.75.17-.81.39-1.61.67-2.38.07-.18.14-.36.21-.55.12-.32-.05.11-.08.19.04-.11.1-.22.15-.33.17-.38.36-.75.55-1.11.38-.71.81-1.38,1.29-2.03.1-.13.36-.43-.08.1.06-.07.12-.15.18-.23.12-.15.25-.3.37-.45.29-.33.59-.65.9-.96.93-.92.99-2.62,0-3.54s-2.54-.99-3.54,0h0Z" style="fill: #1d1d1b; stroke-width: 0px;"/>
    <path d="m230.96,428.37c1.12,8.11,2.24,16.22,3.36,24.33.18,1.34,1.9,2.07,3.08,1.75,1.44-.4,1.93-1.73,1.75-3.08-1.12-8.11-2.24-16.22-3.36-24.33-.18-1.34-1.9-2.07-3.08-1.75-1.44.4-1.93,1.73-1.75,3.08h0Z" style="fill: #1d1d1b; stroke-width: 0px;"/>
    <path d="m250.54,406.54c3.01,7.71,6.02,15.43,9.03,23.14.49,1.26,1.68,2.13,3.08,1.75,1.2-.33,2.24-1.81,1.75-3.08-3.01-7.71-6.02-15.43-9.03-23.14-.49-1.26-1.68-2.13-3.08-1.75-1.2.33-2.24,1.81-1.75,3.08h0Z" style="fill: #1d1d1b; stroke-width: 0px;"/>
    <path d="m289.46,415.46l2.67,13.52c.25,1.29,1.86,2.14,3.08,1.75,1.37-.44,2.02-1.7,1.75-3.08l-2.67-13.52c-.25-1.29-1.86-2.14-3.08-1.75-1.37.44-2.02,1.7-1.75,3.08h0Z" style="fill: #1d1d1b; stroke-width: 0px;"/>
    <path d="m299.99,374.97v6.08c0,.64.28,1.31.73,1.77s1.15.76,1.77.73c1.35-.06,2.5-1.1,2.5-2.5v-6.08c0-.64-.28-1.31-.73-1.77s-1.15-.76-1.77-.73c-1.35.06-2.5,1.1-2.5,2.5h0Z" style="fill: #1d1d1b; stroke-width: 0px;"/>
    <path d="m274.99,343.22v10.81c0,1.31,1.15,2.56,2.5,2.5s2.5-1.1,2.5-2.5v-10.81c0-1.31-1.15-2.56-2.5-2.5s-2.5,1.1-2.5,2.5h0Z" style="fill: #1d1d1b; stroke-width: 0px;"/>
    <path d="m312.17,357.42c3.86,9.49,6.41,19.51,7.42,29.71.13,1.34,1.05,2.5,2.5,2.5,1.25,0,2.63-1.15,2.5-2.5-1.06-10.66-3.57-21.11-7.6-31.04-.51-1.25-1.66-2.13-3.08-1.75-1.19.33-2.26,1.82-1.75,3.08h0Z" style="fill: #1d1d1b; stroke-width: 0px;"/>
    <path d="m278.36,444.57v12.84c0,1.31,1.15,2.56,2.5,2.5s2.5-1.1,2.5-2.5v-12.84c0-1.31-1.15-2.56-2.5-2.5s-2.5,1.1-2.5,2.5h0Z" style="fill: #1d1d1b; stroke-width: 0px;"/>
    <path d="m268.52,498.68c-3.79,5.99-7.01,12.3-9.72,18.85-.52,1.25.56,2.75,1.75,3.08,1.44.39,2.56-.49,3.08-1.75,2.54-6.14,5.66-12.04,9.21-17.66.72-1.14.24-2.76-.9-3.42-1.2-.7-2.7-.25-3.42.9h0Z" style="fill: #1d1d1b; stroke-width: 0px;"/>
    <path d="m248.4,533.22c-.54,1.01-1.12,1.99-1.75,2.93-.33.5-.68.99-1.04,1.47-.05.07-.2.2-.22.29.19-.24.23-.29.12-.15-.04.05-.07.09-.11.14-.19.24-.38.47-.57.7-1.48,1.77-3.15,3.39-4.95,4.83-1.03.82-.92,2.69,0,3.54,1.09,1,2.44.87,3.54,0,3.82-3.04,7.01-6.92,9.31-11.22.62-1.15.33-2.77-.9-3.42-1.16-.61-2.76-.33-3.42.9h0Z" style="fill: #1d1d1b; stroke-width: 0px;"/>
    <path d="m204.65,446.7c-11.37,13.84-15.64,31.47-19.51,48.57-.71,3.13,4.11,4.47,4.82,1.33,3.64-16.13,7.47-33.28,18.22-46.36.86-1.04,1.02-2.52,0-3.54-.88-.88-2.67-1.05-3.54,0h0Z" style="fill: #1d1d1b; stroke-width: 0px;"/>
    <path d="m225.3,415.4c-6.78,5.77-13.71,11.36-20.78,16.76-1.07.82-1.64,2.15-.9,3.42.62,1.06,2.34,1.72,3.42.9,7.42-5.66,14.69-11.5,21.8-17.54,1.03-.88.9-2.64,0-3.54-1.02-1.02-2.5-.88-3.54,0h0Z" style="fill: #1d1d1b; stroke-width: 0px;"/>
    <path d="m235.25,387.47c-2.46,2.27-4.92,4.54-7.38,6.81-.96.89-.97,2.65,0,3.54,1.03.95,2.51.95,3.54,0,2.46-2.27,4.92-4.54,7.38-6.81.96-.89.97-2.65,0-3.54-1.03-.95-2.51-.95-3.54,0h0Z" style="fill: #1d1d1b; stroke-width: 0px;"/>
    <path d="m235.53,344.55c-11.01,12.84-17.53,29.08-18.4,45.98-.17,3.22,4.83,3.21,5,0,.8-15.5,6.82-30.66,16.93-42.44.88-1.02,1.01-2.53,0-3.54-.9-.9-2.65-1.03-3.54,0h0Z" style="fill: #1d1d1b; stroke-width: 0px;"/>
    <path d="m335.25,342.22c.43.46.84.93,1.24,1.41.11.13.2.26.04.05.1.12.19.25.28.38.19.25.37.51.54.77.72,1.07,1.36,2.2,1.91,3.37.07.14.13.29.19.43.17.36-.12-.32.02.05.12.29.23.58.34.88.22.59.41,1.19.58,1.79s.32,1.21.44,1.83c.06.31.12.62.17.93,0,.05.07.52.04.25-.04-.3.04.38.04.37.14,1.3,1.05,2.56,2.5,2.5,1.23-.06,2.65-1.11,2.5-2.5-.65-6.02-3.14-11.61-7.29-16.03-.9-.95-2.64-.97-3.54,0-.94,1.02-.96,2.52,0,3.54h0Z" style="fill: #1d1d1b; stroke-width: 0px;"/>
    <path d="m330.94,363.64c6.45,4.18,11.49,10.2,14.64,17.34.54,1.24,2.35,1.52,3.42.9,1.27-.75,1.44-2.18.9-3.42-3.45-7.83-9.26-14.49-16.43-19.13-1.13-.73-2.76-.23-3.42.9-.71,1.21-.24,2.68.9,3.42h0Z" style="fill: #1d1d1b; stroke-width: 0px;"/>
    <path d="m339.11,397.83c5.96,5.28,11.93,10.57,17.89,15.85,1.01.89,2.54,1,3.54,0,.91-.91,1.01-2.64,0-3.54-5.96-5.28-11.93-10.57-17.89-15.85-1.01-.89-2.54-1-3.54,0-.91.91-1.01,2.64,0,3.54h0Z" style="fill: #1d1d1b; stroke-width: 0px;"/>
    <path d="m356.14,432.12c5.41,4.57,9.49,10.48,11.72,17.09.43,1.28,1.72,2.12,3.08,1.75,1.25-.34,2.18-1.79,1.75-3.08-2.51-7.46-6.98-14.2-13-19.3-1.03-.87-2.52-1.01-3.54,0-.89.89-1.04,2.66,0,3.54h0Z" style="fill: #1d1d1b; stroke-width: 0px;"/>
    <path d="m345.28,466.87c-1.19,11.2-4,22.2-8.21,32.65-.5,1.25.55,2.75,1.75,3.08,1.43.39,2.57-.49,3.08-1.75,4.38-10.89,7.15-22.31,8.39-33.98.14-1.34-1.25-2.5-2.5-2.5-1.47,0-2.36,1.15-2.5,2.5h0Z" style="fill: #1d1d1b; stroke-width: 0px;"/>
    <path d="m315.71,453.38c-1.06,6.72-2.88,13.3-5.44,19.6-.51,1.25.55,2.75,1.75,3.08,1.43.39,2.57-.49,3.08-1.75,2.56-6.31,4.39-12.88,5.44-19.6.21-1.33-.34-2.69-1.75-3.08-1.19-.33-2.86.4-3.08,1.75h0Z" style="fill: #1d1d1b; stroke-width: 0px;"/>
    <path d="m314.21,423.62l2.62,12.85c.26,1.28,1.85,2.14,3.08,1.75,1.36-.44,2.03-1.7,1.75-3.08l-2.62-12.85c-.26-1.28-1.85-2.14-3.08-1.75-1.36.44-2.03,1.7-1.75,3.08h0Z" style="fill: #1d1d1b; stroke-width: 0px;"/>
    <path d="m329.08,422.94l2.16,18.23c.16,1.34,1.04,2.5,2.5,2.5,1.23,0,2.66-1.15,2.5-2.5l-2.16-18.23c-.16-1.34-1.04-2.5-2.5-2.5-1.23,0-2.66,1.15-2.5,2.5h0Z" style="fill: #1d1d1b; stroke-width: 0px;"/>
    <path d="m304.62,499.91c-2.65,6.75-6.78,12.88-11.95,17.95-2.3,2.26,1.24,5.79,3.54,3.54,5.81-5.71,10.26-12.58,13.23-20.16.49-1.26-.54-2.74-1.75-3.08-1.42-.39-2.58.48-3.08,1.75h0Z" style="fill: #1d1d1b; stroke-width: 0px;"/>
    <path d="m278.78,517.68c-4.83,7.09-6.61,15.78-5.36,24.22.2,1.34,1.89,2.07,3.08,1.75,1.43-.39,1.94-1.73,1.75-3.08-1.05-7.11.83-14.46,4.85-20.37.76-1.12.21-2.77-.9-3.42-1.23-.72-2.66-.22-3.42.9h0Z" style="fill: #1d1d1b; stroke-width: 0px;"/>
    <path d="m306.21,529.72c-1.01,11.22-5.57,22.12-12.85,30.71-.87,1.03-1.01,2.53,0,3.54.89.89,2.66,1.03,3.54,0,8.2-9.68,13.18-21.61,14.32-34.25.12-1.35-1.24-2.5-2.5-2.5-1.45,0-2.38,1.15-2.5,2.5h0Z" style="fill: #1d1d1b; stroke-width: 0px;"/>
    <path d="m327.58,537.18c2.04,7.43,4.07,14.86,6.11,22.29.85,3.1,5.67,1.78,4.82-1.33-2.04-7.43-4.07-14.86-6.11-22.29-.85-3.1-5.67-1.78-4.82,1.33h0Z" style="fill: #1d1d1b; stroke-width: 0px;"/>
    <path d="m355.39,518.91c2.55,7.41,5.09,14.82,7.64,22.23.44,1.28,1.72,2.12,3.08,1.75,1.24-.34,2.19-1.79,1.75-3.08-2.55-7.41-5.09-14.82-7.64-22.23-.44-1.28-1.72-2.12-3.08-1.75-1.24.34-2.19,1.79-1.75,3.08h0Z" style="fill: #1d1d1b; stroke-width: 0px;"/>
    <path d="m361.78,489.88c-1,6.29-2.01,12.58-3.01,18.87-.21,1.33.34,2.69,1.75,3.08,1.19.33,2.86-.41,3.08-1.75,1-6.29,2.01-12.58,3.01-18.87.21-1.33-.34-2.69-1.75-3.08-1.19-.33-2.86.41-3.08,1.75h0Z" style="fill: #1d1d1b; stroke-width: 0px;"/>
    <path d="m352.29,477.73c-2.96,4.89-4.61,10.46-4.88,16.17-.06,1.31,1.19,2.56,2.5,2.5,1.41-.06,2.43-1.1,2.5-2.5.03-.66.08-1.31.15-1.96,0-.09.12-.91.06-.51.05-.35.11-.69.17-1.04.22-1.21.51-2.4.86-3.57.74-2.43,1.58-4.28,2.96-6.57.68-1.12.28-2.8-.9-3.42s-2.7-.3-3.42.9h0Z" style="fill: #1d1d1b; stroke-width: 0px;"/>
    <path d="m380.6,481.72c4.26,6.84,7.87,14.07,10.71,21.61.48,1.26,1.69,2.13,3.08,1.75,1.21-.33,2.22-1.81,1.75-3.08-2.99-7.95-6.72-15.59-11.21-22.81-1.7-2.73-6.02-.22-4.32,2.52h0Z" style="fill: #1d1d1b; stroke-width: 0px;"/>
    <path d="m345.5,444.33c-7.44,7.85-14.29,16.24-20.52,25.08-.78,1.1-.2,2.78.9,3.42,1.25.73,2.64.21,3.42-.9,5.99-8.49,12.59-16.53,19.74-24.07,2.21-2.33-1.32-5.88-3.54-3.54h0Z" style="fill: #1d1d1b; stroke-width: 0px;"/>
    <path d="m353.08,462.7c2.54,5.27,4.6,10.74,6.23,16.38.38,1.3,1.76,2.11,3.08,1.75s2.12-1.77,1.75-3.08c-1.75-6.04-4.02-11.91-6.74-17.58-.58-1.22-2.32-1.54-3.42-.9-1.24.73-1.48,2.2-.9,3.42h0Z" style="fill: #1d1d1b; stroke-width: 0px;"/>
    <path d="m344.8,426.36c.2-.37-.33.32-.12.13.19-.18-.54.34-.14.12-.07.04-.55.19-.23.11.4-.1-.4-.04-.19.02.05.01.32.02.35,0-.08.03-.58-.12-.25-.01.45.14-.34-.23-.13-.08.03.03.26.19.3.18-.09.02-.49-.33-.07,0,.24.19-.21-.35-.06-.09s.3.51.44.78c.15.3-.2-.56-.01,0,.04.12.08.23.12.35.1.3.19.61.28.92.83,2.76,1.66,5.52,2.49,8.28.38,1.25,1.77,2.17,3.08,1.75s2.15-1.73,1.75-3.08c-.51-1.71-1.03-3.41-1.54-5.12-.48-1.58-.87-3.23-1.49-4.76-.72-1.78-1.88-3.42-3.83-3.94s-4.09.15-5.08,1.93c-.64,1.14-.31,2.78.9,3.42s2.74.32,3.42-.9h0Z" style="fill: #1d1d1b; stroke-width: 0px;"/>
    <path d="m320.1,401.04c-8.13,2.42-16.25,4.84-24.38,7.26-3.08.92-1.77,5.74,1.33,4.82,8.13-2.42,16.25-4.84,24.38-7.26,3.08-.92,1.77-5.74-1.33-4.82h0Z" style="fill: #1d1d1b; stroke-width: 0px;"/>
    <path d="m279.65,397.95c.34,6.99.22,13.99-.34,20.96-.11,1.35,1.23,2.5,2.5,2.5,1.44,0,2.39-1.15,2.5-2.5.56-6.97.68-13.98.34-20.96-.06-1.35-1.1-2.5-2.5-2.5-1.3,0-2.57,1.14-2.5,2.5h0Z" style="fill: #1d1d1b; stroke-width: 0px;"/>
    <path d="m292.49,355.38c.32,4.74.22,9.5-.3,14.22-.14,1.3,1.25,2.56,2.5,2.5,1.48-.07,2.35-1.1,2.5-2.5.52-4.72.62-9.48.3-14.22-.09-1.3-1.09-2.56-2.5-2.5-1.28.06-2.59,1.1-2.5,2.5h0Z" style="fill: #1d1d1b; stroke-width: 0px;"/>
    <path d="m257.49,346.6c-.5,5.4-.99,10.8-1.49,16.2-.12,1.31,1.24,2.56,2.5,2.5,1.46-.07,2.37-1.1,2.5-2.5.5-5.4.99-10.8,1.49-16.2.12-1.31-1.24-2.56-2.5-2.5-1.46.07-2.37,1.1-2.5,2.5h0Z" style="fill: #1d1d1b; stroke-width: 0px;"/>
    <path d="m300.75,337.12c2.47,7.03,4.26,14.26,5.37,21.63.2,1.34,1.89,2.07,3.08,1.75,1.43-.39,1.95-1.73,1.75-3.08-1.11-7.36-2.9-14.6-5.37-21.63-.45-1.27-1.71-2.12-3.08-1.75-1.23.34-2.2,1.8-1.75,3.08h0Z" style="fill: #1d1d1b; stroke-width: 0px;"/>
    <path d="m219.73,484.09l-7.55,8.68c-.44.51-.73,1.08-.73,1.77,0,.61.27,1.35.73,1.77.94.86,2.62,1.05,3.54,0l7.55-8.68c.44-.51.73-1.08.73-1.77,0-.61-.27-1.35-.73-1.77-.94-.86-2.62-1.05-3.54,0h0Z" style="fill: #1d1d1b; stroke-width: 0px;"/>
    <path d="m232.24,500.11c-.19.61-.39,1.21-.62,1.81-.06.16-.13.31-.19.47.08-.19.13-.29.02-.04-.12.28-.25.55-.38.82-.55,1.15-1.2,2.25-1.92,3.3-.17.25-.35.5-.52.74-.08.11-.16.21-.24.32.32-.43.03-.04-.04.05-.4.5-.82.98-1.26,1.44-.87.93-1.82,1.78-2.82,2.57s-.91,2.7,0,3.54c1.1,1.01,2.43.87,3.54,0,4.41-3.46,7.63-8.34,9.26-13.69.38-1.25-.45-2.78-1.75-3.08s-2.67.41-3.08,1.75h0Z" style="fill: #1d1d1b; stroke-width: 0px;"/>
    <path d="m211.01,506.11c-1.82,5.39-2.59,11.16-2.25,16.84.08,1.3,1.09,2.56,2.5,2.5,1.29-.06,2.59-1.1,2.5-2.5-.33-5.39.34-10.39,2.07-15.51.42-1.24-.48-2.79-1.75-3.08-1.38-.32-2.63.42-3.08,1.75h0Z" style="fill: #1d1d1b; stroke-width: 0px;"/>
    <path d="m257.95,472.31c1.24,6.01.34,12.39-2.48,17.83-.62,1.2-.31,2.71.9,3.42,1.12.66,2.8.31,3.42-.9,3.46-6.69,4.5-14.31,2.98-21.68-.27-1.32-1.84-2.09-3.08-1.75-1.37.38-2.02,1.75-1.75,3.08h0Z" style="fill: #1d1d1b; stroke-width: 0px;"/>
    <path d="m236.25,461.61c-1.85,3.3-3.15,6.93-3.75,10.67-.11.69-.11,1.3.25,1.93.3.52.9,1.01,1.49,1.15,1.2.27,2.86-.37,3.08-1.75.28-1.74.7-3.44,1.27-5.11.14-.4.28-.8.44-1.19.05-.13.33-.9.09-.24.06-.17.14-.33.22-.5.37-.83.78-1.64,1.23-2.43.64-1.14.31-2.78-.9-3.42s-2.74-.32-3.42.9h0Z" style="fill: #1d1d1b; stroke-width: 0px;"/>
  </g>
</svg>