<?xml version="1.0" encoding="UTF-8"?>
<svg id="Peau" xmlns="http://www.w3.org/2000/svg" viewBox="0 0 595.28 841.89">
  <g id="ecailles">
    <path d="M213.1,340.11c-.39,8.81,6.94,14.95,13.02,14.17,5.5-.71,10.67-7.18,9.57-14.94" style="fill: none; stroke: #000; stroke-miterlimit: 10; stroke-width: 4px;"/>
    <path d="M251.1,339.11c-.39,8.81,6.94,14.95,13.02,14.17,5.5-.71,10.67-7.18,9.57-14.94" style="fill: none; stroke: #000; stroke-miterlimit: 10; stroke-width: 4px;"/>
    <path d="M286.5,339.11c-.39,8.81,6.94,14.95,13.02,14.17,5.5-.71,10.67-7.18,9.57-14.94" style="fill: none; stroke: #000; stroke-miterlimit: 10; stroke-width: 4px;"/>
    <path d="M232.1,328.46c-.39,8.81,6.94,14.95,13.02,14.17,5.5-.71,10.67-7.18,9.57-14.94" style="fill: none; stroke: #000; stroke-miterlimit: 10; stroke-width: 4px;"/>
    <path d="M270.1,327.46c-.39,8.81,6.94,14.95,13.02,14.17,5.5-.71,10.67-7.18,9.57-14.94" style="fill: none; stroke: #000; stroke-miterlimit: 10; stroke-width: 4px;"/>
    <path d="M251.1,320.99c-.39,5.53,6.94,9.39,13.02,8.9,5.5-.45,10.67-4.51,9.57-9.38" style="fill: none; stroke: #000; stroke-miterlimit: 10; stroke-width: 4px;"/>
    <path d="M232.56,351.42c-.39,8.81,6.94,14.95,13.02,14.17,5.5-.71,10.67-7.18,9.57-14.94" style="fill: none; stroke: #000; stroke-miterlimit: 10; stroke-width: 4px;"/>
    <path d="M267.95,351.42c-.39,8.81,6.94,14.95,13.02,14.17,5.5-.71,10.67-7.18,9.57-14.94" style="fill: none; stroke: #000; stroke-miterlimit: 10; stroke-width: 4px;"/>
    <path d="M214.4,363.64c-.39,8.81,6.94,14.95,13.02,14.17,5.5-.71,10.67-7.18,9.57-14.94" style="fill: none; stroke: #000; stroke-miterlimit: 10; stroke-width: 4px;"/>
    <path d="M249.8,363.64c-.39,8.81,6.94,14.95,13.02,14.17,5.5-.71,10.67-7.18,9.57-14.94" style="fill: none; stroke: #000; stroke-miterlimit: 10; stroke-width: 4px;"/>
    <path d="M202.1,350.64c-.39,8.81,6.9,14.39,13.02,14.17,4.01-.15,10.81-4.7,9.72-12.46" style="fill: none; stroke: #000; stroke-miterlimit: 10; stroke-width: 4px;"/>
    <path d="M320.67,350.07c.39,8.81-6.9,14.39-13.02,14.17-4.01-.15-10.81-4.7-9.72-12.46" style="fill: none; stroke: #000; stroke-miterlimit: 10; stroke-width: 4px;"/>
    <path d="M285.65,363.48c-.39,8.81,6.94,14.95,13.02,14.17,5.5-.71,10.67-7.18,9.57-14.94" style="fill: none; stroke: #000; stroke-miterlimit: 10; stroke-width: 4px;"/>
    <path d="M196.47,375.55c-.39,8.81,6.94,14.95,13.02,14.17,5.5-.71,10.67-7.18,9.57-14.94" style="fill: none; stroke: #000; stroke-miterlimit: 10; stroke-width: 4px;"/>
    <path d="M231.87,375.55c-.39,8.81,6.94,14.95,13.02,14.17,5.5-.71,10.67-7.18,9.57-14.94" style="fill: none; stroke: #000; stroke-miterlimit: 10; stroke-width: 4px;"/>
    <path d="M267.73,375.39c-.39,8.81,6.94,14.95,13.02,14.17,5.5-.71,10.67-7.18,9.57-14.94" style="fill: none; stroke: #000; stroke-miterlimit: 10; stroke-width: 4px;"/>
    <path d="M303.58,375.47c-.39,8.81,6.94,14.95,13.02,14.17,5.5-.71,10.67-7.18,9.57-14.94" style="fill: none; stroke: #000; stroke-miterlimit: 10; stroke-width: 4px;"/>
    <path d="M330.29,363.13c.39,8.81-6.9,14.39-13.02,14.17-4.01-.15-10.81-4.7-9.72-12.46" style="fill: none; stroke: #000; stroke-miterlimit: 10; stroke-width: 4px;"/>
    <path d="M192.57,364.95c-.39,8.81,6.9,14.39,13.02,14.17,4.01-.15,10.81-4.7,9.72-12.46" style="fill: none; stroke: #000; stroke-miterlimit: 10; stroke-width: 4px;"/>
    <path d="M213.8,387.76c-.39,8.81,6.94,14.95,13.02,14.17,5.5-.71,10.67-7.18,9.57-14.94" style="fill: none; stroke: #000; stroke-miterlimit: 10; stroke-width: 4px;"/>
    <path d="M249.2,387.76c-.39,8.81,6.94,14.95,13.02,14.17,5.5-.71,10.67-7.18,9.57-14.94" style="fill: none; stroke: #000; stroke-miterlimit: 10; stroke-width: 4px;"/>
    <path d="M285.05,387.59c-.39,8.81,6.94,14.95,13.02,14.17,5.5-.71,10.67-7.18,9.57-14.94" style="fill: none; stroke: #000; stroke-miterlimit: 10; stroke-width: 4px;"/>
    <path d="M319.91,387.68c-.39,8.81,6.94,14.95,13.02,14.17,5.5-.71,10.67-7.18,9.57-14.94" style="fill: none; stroke: #000; stroke-miterlimit: 10; stroke-width: 4px;"/>
    <path d="M180.91,388.85c-.39,8.81,6.94,14.95,13.02,14.17,5.5-.71,10.67-7.18,9.57-14.94" style="fill: none; stroke: #000; stroke-miterlimit: 10; stroke-width: 4px;"/>
    <path d="M231.32,400.69c-.39,8.81,6.94,14.95,13.02,14.17,5.5-.71,10.67-7.18,9.57-14.94" style="fill: none; stroke: #000; stroke-miterlimit: 10; stroke-width: 4px;"/>
    <path d="M266.72,399.69c-.39,8.81,6.94,14.95,13.02,14.17,5.5-.71,10.67-7.18,9.57-14.94" style="fill: none; stroke: #000; stroke-miterlimit: 10; stroke-width: 4px;"/>
    <path d="M302.57,400.53c-.39,8.81,6.94,14.95,13.02,14.17,5.5-.71,10.67-7.18,9.57-14.94" style="fill: none; stroke: #000; stroke-miterlimit: 10; stroke-width: 4px;"/>
    <path d="M198.43,401.78c-.39,8.81,6.94,14.95,13.02,14.17,5.5-.71,10.67-7.18,9.57-14.94" style="fill: none; stroke: #000; stroke-miterlimit: 10; stroke-width: 4px;"/>
    <path d="M249.89,412.97c-.39,8.81,6.94,14.95,13.02,14.17,5.5-.71,10.67-7.18,9.57-14.94" style="fill: none; stroke: #000; stroke-miterlimit: 10; stroke-width: 4px;"/>
    <path d="M284.75,412.81c-.39,8.81,6.94,14.95,13.02,14.17,5.5-.71,10.67-7.18,9.57-14.94" style="fill: none; stroke: #000; stroke-miterlimit: 10; stroke-width: 4px;"/>
    <path d="M320.6,412.89c-.39,8.81,6.94,14.95,13.02,14.17,5.5-.71,10.67-7.18,9.57-14.94" style="fill: none; stroke: #000; stroke-miterlimit: 10; stroke-width: 4px;"/>
    <path d="M181.6,414.06c-.39,8.81,6.94,14.95,13.02,14.17,5.5-.71,10.67-7.18,9.57-14.94" style="fill: none; stroke: #000; stroke-miterlimit: 10; stroke-width: 4px;"/>
    <path d="M214.76,414.3c-.39,8.81,6.94,14.95,13.02,14.17,5.5-.71,10.67-7.18,9.57-14.94" style="fill: none; stroke: #000; stroke-miterlimit: 10; stroke-width: 4px;"/>
    <path d="M232.47,425.74c-.39,8.81,6.94,14.95,13.02,14.17,5.5-.71,10.67-7.18,9.57-14.94" style="fill: none; stroke: #000; stroke-miterlimit: 10; stroke-width: 4px;"/>
    <path d="M267.33,425.58c-.39,8.81,6.94,14.95,13.02,14.17,5.5-.71,10.67-7.18,9.57-14.94" style="fill: none; stroke: #000; stroke-miterlimit: 10; stroke-width: 4px;"/>
    <path d="M303.18,424.66c-.39,8.81,6.94,14.95,13.02,14.17,5.5-.71,10.67-7.18,9.57-14.94" style="fill: none; stroke: #000; stroke-miterlimit: 10; stroke-width: 4px;"/>
    <path d="M197.35,427.08c-.39,8.81,6.94,14.95,13.02,14.17,5.5-.71,10.67-7.18,9.57-14.94" style="fill: none; stroke: #000; stroke-miterlimit: 10; stroke-width: 4px;"/>
    <path d="M214.89,438.31c-.39,8.81,6.94,14.95,13.02,14.17,5.5-.71,10.67-7.18,9.57-14.94" style="fill: none; stroke: #000; stroke-miterlimit: 10; stroke-width: 4px;"/>
    <path d="M249.75,438.15c-.39,8.81,6.94,14.95,13.02,14.17,5.5-.71,10.67-7.18,9.57-14.94" style="fill: none; stroke: #000; stroke-miterlimit: 10; stroke-width: 4px;"/>
    <path d="M285.6,437.23c-.39,8.81,6.94,14.95,13.02,14.17,5.5-.71,10.67-7.18,9.57-14.94" style="fill: none; stroke: #000; stroke-miterlimit: 10; stroke-width: 4px;"/>
    <path d="M176.13,439.64c-.45,8.81,8.05,14.95,15.1,14.17,6.38-.71,12.37-7.18,11.1-14.94" style="fill: none; stroke: #000; stroke-miterlimit: 10; stroke-width: 4px;"/>
    <path d="M321.51,436.77c-.39,8.81,6.94,14.95,13.02,14.17,5.5-.71,10.67-7.18,9.57-14.94" style="fill: none; stroke: #000; stroke-miterlimit: 10; stroke-width: 4px;"/>
    <path d="M231.79,450.67c-.39,8.81,6.94,14.95,13.02,14.17,5.5-.71,10.67-7.18,9.57-14.94" style="fill: none; stroke: #000; stroke-miterlimit: 10; stroke-width: 4px;"/>
    <path d="M267.65,449.75c-.39,8.81,6.94,14.95,13.02,14.17,5.5-.71,10.67-7.18,9.57-14.94" style="fill: none; stroke: #000; stroke-miterlimit: 10; stroke-width: 4px;"/>
    <path d="M303.56,449.29c-.39,8.81,6.94,14.95,13.02,14.17,5.5-.71,10.67-7.18,9.57-14.94" style="fill: none; stroke: #000; stroke-miterlimit: 10; stroke-width: 4px;"/>
    <path d="M214.14,462.47c-.39,8.81,6.94,14.95,13.02,14.17,5.5-.71,10.67-7.18,9.57-14.94" style="fill: none; stroke: #000; stroke-miterlimit: 10; stroke-width: 4px;"/>
    <path d="M249,462.31c-.39,8.81,6.94,14.95,13.02,14.17,5.5-.71,10.67-7.18,9.57-14.94" style="fill: none; stroke: #000; stroke-miterlimit: 10; stroke-width: 4px;"/>
    <path d="M284.85,461.39c-.39,8.81,6.94,14.95,13.02,14.17,5.5-.71,10.67-7.18,9.57-14.94" style="fill: none; stroke: #000; stroke-miterlimit: 10; stroke-width: 4px;"/>
    <path d="M177.38,461.47c-.39,8.81,6.94,14.95,13.02,14.17,11.48-1.48,10.02-11.75,9.57-14.94" style="fill: none; stroke: #000; stroke-miterlimit: 10; stroke-width: 4px;"/>
    <path d="M320.76,460.93c-.39,8.81,6.94,14.95,13.02,14.17,5.5-.71,10.67-7.18,9.57-14.94" style="fill: none; stroke: #000; stroke-miterlimit: 10; stroke-width: 4px;"/>
    <path d="M232.4,474.19c-.39,7.73,6.94,13.12,13.02,12.43,5.5-.62,10.67-6.3,9.57-13.11" style="fill: none; stroke: #000; stroke-miterlimit: 10; stroke-width: 4px;"/>
    <path d="M267.25,474.28c-.39,8.81,6.94,14.95,13.02,14.17,5.5-.71,10.67-7.18,9.57-14.94" style="fill: none; stroke: #000; stroke-miterlimit: 10; stroke-width: 4px;"/>
    <path d="M303.11,473.37c-.39,8.81,6.94,14.95,13.02,14.17,5.5-.71,10.67-7.18,9.57-14.94" style="fill: none; stroke: #000; stroke-miterlimit: 10; stroke-width: 4px;"/>
    <path d="M195.64,473.45c-.39,8.81,6.94,14.95,13.02,14.17,11.48-1.48,10.02-11.75,9.57-14.94" style="fill: none; stroke: #000; stroke-miterlimit: 10; stroke-width: 4px;"/>
    <path d="M332.29,474.01c-.39,8.81,6.94,14.95,13.02,14.17,5.5-.71,7.99-6.01,9.57-14.94" style="fill: none; stroke: #000; stroke-miterlimit: 10; stroke-width: 4px;"/>
    <path d="M177.38,401.43c-.32,8.81,5.76,14.39,10.88,14.17,3.35-.15,9.03-4.7,8.12-12.46" style="fill: none; stroke: #000; stroke-miterlimit: 10; stroke-width: 4px;"/>
    <path d="M352.57,447.53c.25,8.81-4.54,14.39-8.57,14.17-2.64-.15-7.12-4.7-6.4-12.46" style="fill: none; stroke: #000; stroke-miterlimit: 10; stroke-width: 4px;"/>
    <path d="M347.31,401.43c.25,8.81-4.54,14.39-8.57,14.17-2.64-.15-7.12-4.7-6.4-12.46" style="fill: none; stroke: #000; stroke-miterlimit: 10; stroke-width: 4px;"/>
    <path d="M349.86,424.31c.25,8.81-4.54,14.39-8.57,14.17-2.64-.15-7.12-4.7-6.4-12.46" style="fill: none; stroke: #000; stroke-miterlimit: 10; stroke-width: 4px;"/>
    <path d="M214.89,485.3c-.39,7.73,6.94,13.12,13.02,12.43,5.5-.62,10.67-6.3,9.57-13.11" style="fill: none; stroke: #000; stroke-miterlimit: 10; stroke-width: 4px;"/>
    <path d="M285.57,485.56c-.39,8.81,6.94,14.95,13.02,14.17,11.48-1.48,10.02-11.75,9.57-14.94" style="fill: none; stroke: #000; stroke-miterlimit: 10; stroke-width: 4px;"/>
    <path d="M185.01,486.45c-.39,8.81,6.94,14.95,13.02,14.17,11.48-1.48,10.02-11.75,9.57-14.94" style="fill: none; stroke: #000; stroke-miterlimit: 10; stroke-width: 4px;"/>
    <path d="M180.41,473.01c-.21,8.81,3.85,14.39,7.27,14.17,2.24-.15,6.03-4.7,5.43-12.46" style="fill: none; stroke: #000; stroke-miterlimit: 10; stroke-width: 4px;"/>
    <path d="M202.34,498.56c-.39,8.81,6.94,14.95,13.02,14.17,11.48-1.48,10.02-11.75,9.57-14.94" style="fill: none; stroke: #000; stroke-miterlimit: 10; stroke-width: 4px;"/>
    <path d="M264.01,487.6c-.33,8.81,5.94,14.39,11.21,14.17,3.45-.15,9.31-4.7,8.37-12.46" style="fill: none; stroke: #000; stroke-miterlimit: 10; stroke-width: 4px;"/>
    <path d="M258.23,489.01c3.45-.15,9.31-4.7,8.37-12.46" style="fill: none; stroke: #000; stroke-miterlimit: 10; stroke-width: 4px;"/>
    <path d="M200.11,522.38c3.45-.15,9.31-4.7,8.37-12.46" style="fill: none; stroke: #000; stroke-miterlimit: 10; stroke-width: 4px;"/>
    <path d="M235.09,514.24c-4.12-.15-11.13-4.7-10-12.46" style="fill: none; stroke: #000; stroke-miterlimit: 10; stroke-width: 4px;"/>
    <path d="M357.65,500.92c-4.12-.15-11.13-4.7-10-12.46" style="fill: none; stroke: #000; stroke-miterlimit: 10; stroke-width: 4px;"/>
    <path d="M306.23,513.14c-4.12-.15-11.13-4.7-10-12.46" style="fill: none; stroke: #000; stroke-miterlimit: 10; stroke-width: 4px;"/>
    <path d="M228.67,526.69c-4.12-.16-11.13-5.25-10-13.89" style="fill: none; stroke: #000; stroke-miterlimit: 10; stroke-width: 4px;"/>
    <path d="M269.61,514.24c3.45-.15,9.31-4.7,8.37-12.46" style="fill: none; stroke: #000; stroke-miterlimit: 10; stroke-width: 4px;"/>
    <path d="M276.18,509.11c-.39,5.29,6.94,8.98,13.02,8.51,5.5-.43,10.67-4.31,9.57-8.97" style="fill: none; stroke: #000; stroke-miterlimit: 10; stroke-width: 4px;"/>
    <path d="M333.3,499.41c3.45-.15,9.31-4.7,8.37-12.46" style="fill: none; stroke: #000; stroke-miterlimit: 10; stroke-width: 4px;"/>
    <path d="M176.87,438.71c5.03-.15,13.59-4.7,12.21-12.46" style="fill: none; stroke: #000; stroke-miterlimit: 10; stroke-width: 4px;"/>
    <path d="M334.82,514.15c5.62-.23,15.16-7.4,13.63-19.6" style="fill: none; stroke: #000; stroke-miterlimit: 10; stroke-width: 4px;"/>
    <path d="M354.93,520.38c-4.12-.15-11.13-4.7-10-12.46" style="fill: none; stroke: #000; stroke-miterlimit: 10; stroke-width: 4px;"/>
    <path d="M295.76,527.36c-4.12-.13-11.13-4.07-10-10.77" style="fill: none; stroke: #000; stroke-miterlimit: 10; stroke-width: 4px;"/>
    <path d="M196.94,450.83c-.39,8.81,6.94,14.95,13.02,14.17,5.5-.71,10.67-7.18,9.57-14.94" style="fill: none; stroke: #000; stroke-miterlimit: 10; stroke-width: 4px;"/>
  </g>
</svg>