<?xml version="1.0" encoding="UTF-8"?>
<svg id="Peau" xmlns="http://www.w3.org/2000/svg" viewBox="0 0 595.28 841.89">
  <g id="carapace">
    <polygon points="212.54 433.83 200.62 440.71 188.69 433.83 188.69 420.06 200.62 413.18 212.54 420.06 212.54 433.83" style="fill: none; stroke: #1d1d1b; stroke-miterlimit: 10; stroke-width: 4px;"/>
    <polygon points="224.47 413.53 212.54 420.41 200.62 413.53 200.62 399.76 212.54 392.87 224.47 399.76 224.47 413.53" style="fill: none; stroke: #1d1d1b; stroke-miterlimit: 10; stroke-width: 4px;"/>
    <polygon points="236.95 433.83 225.03 440.71 213.1 433.83 213.1 420.06 225.03 413.18 236.95 420.06 236.95 433.83" style="fill: none; stroke: #1d1d1b; stroke-miterlimit: 10; stroke-width: 4px;"/>
    <polygon points="248.18 413.53 236.26 420.41 224.33 413.53 224.33 399.76 236.26 392.87 248.18 399.76 248.18 413.53" style="fill: none; stroke: #1d1d1b; stroke-miterlimit: 10; stroke-width: 4px;"/>
    <polygon points="236.26 392.13 224.33 399.02 212.41 392.13 212.41 378.36 224.33 371.48 236.26 378.36 236.26 392.13" style="fill: none; stroke: #1d1d1b; stroke-miterlimit: 10; stroke-width: 4px;"/>
    <polygon points="224.47 455.25 212.54 462.13 200.62 455.25 200.62 441.48 212.54 434.59 224.47 441.48 224.47 455.25" style="fill: none; stroke: #1d1d1b; stroke-miterlimit: 10; stroke-width: 4px;"/>
    <polygon points="260.8 433.83 248.88 440.71 236.95 433.83 236.95 420.06 248.88 413.18 260.8 420.06 260.8 433.83" style="fill: none; stroke: #1d1d1b; stroke-miterlimit: 10; stroke-width: 4px;"/>
    <polygon points="259.97 391.43 248.04 398.31 236.12 391.43 236.12 377.66 248.04 370.77 259.97 377.66 259.97 391.43" style="fill: none; stroke: #1d1d1b; stroke-miterlimit: 10; stroke-width: 4px;"/>
    <polygon points="271.89 371.13 259.97 378.01 248.04 371.13 248.04 357.36 259.97 350.47 271.89 357.36 271.89 371.13" style="fill: none; stroke: #1d1d1b; stroke-miterlimit: 10; stroke-width: 4px;"/>
    <polygon points="284.38 391.43 272.46 398.31 260.53 391.43 260.53 377.66 272.46 370.77 284.38 377.66 284.38 391.43" style="fill: none; stroke: #1d1d1b; stroke-miterlimit: 10; stroke-width: 4px;"/>
    <polygon points="295.61 371.13 283.68 378.01 271.76 371.13 271.76 357.36 283.68 350.47 295.61 357.36 295.61 371.13" style="fill: none; stroke: #1d1d1b; stroke-miterlimit: 10; stroke-width: 4px;"/>
    <polygon points="283.68 349.73 271.76 356.61 259.83 349.73 259.83 335.96 271.76 329.08 283.68 335.96 283.68 349.73" style="fill: none; stroke: #1d1d1b; stroke-miterlimit: 10; stroke-width: 4px;"/>
    <polygon points="271.89 412.84 259.97 419.73 248.04 412.84 248.04 399.08 259.97 392.19 271.89 399.08 271.89 412.84" style="fill: none; stroke: #1d1d1b; stroke-miterlimit: 10; stroke-width: 4px;"/>
    <polygon points="308.23 391.43 296.31 398.31 284.38 391.43 284.38 377.66 296.31 370.77 308.23 377.66 308.23 391.43" style="fill: none; stroke: #1d1d1b; stroke-miterlimit: 10; stroke-width: 4px;"/>
    <polygon points="248.18 455.25 236.26 462.13 224.33 455.25 224.33 441.48 236.26 434.59 248.18 441.48 248.18 455.25" style="fill: none; stroke: #1d1d1b; stroke-miterlimit: 10; stroke-width: 4px;"/>
    <polygon points="319.5 413.19 307.58 420.07 295.66 413.19 295.66 399.42 307.58 392.53 319.5 399.42 319.5 413.19" style="fill: none; stroke: #1d1d1b; stroke-miterlimit: 10; stroke-width: 4px;"/>
    <polygon points="333.06 433.83 321.13 440.71 309.21 433.83 309.21 420.06 321.13 413.18 333.06 420.06 333.06 433.83" style="fill: none; stroke: #1d1d1b; stroke-miterlimit: 10; stroke-width: 4px;"/>
    <polygon points="343.22 413.19 331.29 420.07 319.37 413.19 319.37 399.42 331.29 392.53 343.22 399.42 343.22 413.19" style="fill: none; stroke: #1d1d1b; stroke-miterlimit: 10; stroke-width: 4px;"/>
    <polygon points="331.29 391.79 319.37 398.67 307.44 391.79 307.44 378.02 319.37 371.14 331.29 378.02 331.29 391.79" style="fill: none; stroke: #1d1d1b; stroke-miterlimit: 10; stroke-width: 4px;"/>
    <polygon points="308.51 474.74 296.59 481.63 284.66 474.74 284.66 460.97 296.59 454.09 308.51 460.97 308.51 474.74" style="fill: none; stroke: #1d1d1b; stroke-miterlimit: 10; stroke-width: 4px;"/>
    <polygon points="272.17 453.33 260.25 460.21 248.33 453.33 248.33 439.56 260.25 432.67 272.17 439.56 272.17 453.33" style="fill: none; stroke: #1d1d1b; stroke-miterlimit: 10; stroke-width: 4px;"/>
    <polygon points="284.1 433.02 272.17 439.91 260.25 433.02 260.25 419.26 272.17 412.37 284.1 419.26 284.1 433.02" style="fill: none; stroke: #1d1d1b; stroke-miterlimit: 10; stroke-width: 4px;"/>
    <polygon points="296.59 453.33 284.66 460.21 272.74 453.33 272.74 439.56 284.66 432.67 296.59 439.56 296.59 453.33" style="fill: none; stroke: #1d1d1b; stroke-miterlimit: 10; stroke-width: 4px;"/>
    <polygon points="307.81 433.02 295.89 439.91 283.96 433.02 283.96 419.26 295.89 412.37 307.81 419.26 307.81 433.02" style="fill: none; stroke: #1d1d1b; stroke-miterlimit: 10; stroke-width: 4px;"/>
    <polygon points="295.89 411.63 283.96 418.51 272.04 411.63 272.04 397.86 283.96 390.97 295.89 397.86 295.89 411.63" style="fill: none; stroke: #1d1d1b; stroke-miterlimit: 10; stroke-width: 4px;"/>
    <polygon points="284.1 474.74 272.17 481.63 260.25 474.74 260.25 460.97 272.17 454.09 284.1 460.97 284.1 474.74" style="fill: none; stroke: #1d1d1b; stroke-miterlimit: 10; stroke-width: 4px;"/>
    <polygon points="320.44 453.33 308.51 460.21 296.59 453.33 296.59 439.56 308.51 432.67 320.44 439.56 320.44 453.33" style="fill: none; stroke: #1d1d1b; stroke-miterlimit: 10; stroke-width: 4px;"/>
    <polygon points="223.91 371.13 211.99 378.01 200.06 371.13 200.06 357.36 211.99 350.47 223.91 357.36 223.91 371.13" style="fill: none; stroke: #1d1d1b; stroke-miterlimit: 10; stroke-width: 4px;"/>
    <polygon points="212.54 392.13 200.62 399.02 188.69 392.13 188.69 378.36 200.62 371.48 212.54 378.36 212.54 392.13" style="fill: none; stroke: #1d1d1b; stroke-miterlimit: 10; stroke-width: 4px;"/>
    <polygon points="210.82 474.74 198.9 481.63 186.98 474.74 186.98 460.97 198.9 454.09 210.82 460.97 210.82 474.74" style="fill: none; stroke: #1d1d1b; stroke-miterlimit: 10; stroke-width: 4px;"/>
    <polygon points="296.02 495.41 284.1 502.29 272.17 495.41 272.17 481.64 284.1 474.75 296.02 481.64 296.02 495.41" style="fill: none; stroke: #1d1d1b; stroke-miterlimit: 10; stroke-width: 4px;"/>
    <polygon points="247.76 371.13 235.84 378.01 223.91 371.13 223.91 357.36 235.84 350.47 247.76 357.36 247.76 371.13" style="fill: none; stroke: #1d1d1b; stroke-miterlimit: 10; stroke-width: 4px;"/>
    <polygon points="260.25 474.74 248.33 481.63 236.4 474.74 236.4 460.97 248.33 454.09 260.25 460.97 260.25 474.74" style="fill: none; stroke: #1d1d1b; stroke-miterlimit: 10; stroke-width: 4px;"/>
    <polygon points="223.91 495.41 211.99 502.29 200.06 495.41 200.06 481.64 211.99 474.75 223.91 481.64 223.91 495.41" style="fill: none; stroke: #1d1d1b; stroke-miterlimit: 10; stroke-width: 4px;"/>
    <polygon points="319.37 369.93 307.44 376.82 295.52 369.93 295.52 356.16 307.44 349.28 319.37 356.16 319.37 369.93" style="fill: none; stroke: #1d1d1b; stroke-miterlimit: 10; stroke-width: 4px;"/>
    <polygon points="332.36 474.74 320.44 481.63 308.51 474.74 308.51 460.97 320.44 454.09 332.36 460.97 332.36 474.74" style="fill: none; stroke: #1d1d1b; stroke-miterlimit: 10; stroke-width: 4px;"/>
    <polygon points="259.97 350.47 248.04 357.36 236.12 350.47 236.12 336.7 248.04 329.82 259.97 336.7 259.97 350.47" style="fill: none; stroke: #1d1d1b; stroke-miterlimit: 10; stroke-width: 4px;"/>
    <polygon points="235.84 474.74 223.91 481.63 211.99 474.74 211.99 460.97 223.91 454.09 235.84 460.97 235.84 474.74" style="fill: none; stroke: #1d1d1b; stroke-miterlimit: 10; stroke-width: 4px;"/>
    <polygon points="344.98 455.25 333.06 462.13 321.13 455.25 321.13 441.48 333.06 434.59 344.98 441.48 344.98 455.25" style="fill: none; stroke: #1d1d1b; stroke-miterlimit: 10; stroke-width: 4px;"/>
    <line x1="200.06" y1="495.41" x2="188.69" y2="502.29" style="fill: none; stroke: #1d1d1b; stroke-miterlimit: 10; stroke-width: 4px;"/>
    <line x1="236.12" y1="336.7" x2="223.91" y2="331.52" style="fill: none; stroke: #1d1d1b; stroke-miterlimit: 10; stroke-width: 4px;"/>
    <line x1="320.44" y1="481.63" x2="320.44" y2="494.64" style="fill: none; stroke: #1d1d1b; stroke-miterlimit: 10; stroke-width: 4px;"/>
    <line x1="223.91" y1="495.41" x2="235.84" y2="502.29" style="fill: none; stroke: #1d1d1b; stroke-miterlimit: 10; stroke-width: 4px;"/>
    <line x1="296.02" y1="495.41" x2="307.81" y2="501.71" style="fill: none; stroke: #1d1d1b; stroke-miterlimit: 10; stroke-width: 4px;"/>
    <line x1="344.98" y1="441.48" x2="351.78" y2="437.2" style="fill: none; stroke: #1d1d1b; stroke-miterlimit: 10; stroke-width: 4px;"/>
    <line x1="344.98" y1="455.25" x2="353.7" y2="462.13" style="fill: none; stroke: #1d1d1b; stroke-miterlimit: 10; stroke-width: 4px;"/>
    <line x1="188.69" y1="420.06" x2="176.69" y2="415.39" style="fill: none; stroke: #1d1d1b; stroke-miterlimit: 10; stroke-width: 4px;"/>
    <line x1="188.69" y1="433.83" x2="176.69" y2="441.48" style="fill: none; stroke: #1d1d1b; stroke-miterlimit: 10; stroke-width: 4px;"/>
    <line x1="186.98" y1="460.97" x2="176.69" y2="453.89" style="fill: none; stroke: #1d1d1b; stroke-miterlimit: 10; stroke-width: 4px;"/>
    <line x1="283.68" y1="335.96" x2="290.76" y2="327.13" style="fill: none; stroke: #1d1d1b; stroke-miterlimit: 10; stroke-width: 4px;"/>
    <line x1="248.04" y1="329.82" x2="247.76" y2="321.88" style="fill: none; stroke: #1d1d1b; stroke-miterlimit: 10; stroke-width: 4px;"/>
    <line x1="271.76" y1="329.08" x2="271.65" y2="323.08" style="fill: none; stroke: #1d1d1b; stroke-miterlimit: 10; stroke-width: 4px;"/>
    <line x1="188.69" y1="392.13" x2="178.03" y2="399.02" style="fill: none; stroke: #1d1d1b; stroke-miterlimit: 10; stroke-width: 4px;"/>
    <line x1="211.99" y1="350.47" x2="211.99" y2="340.49" style="fill: none; stroke: #1d1d1b; stroke-miterlimit: 10; stroke-width: 4px;"/>
    <line x1="307.44" y1="349.28" x2="307.44" y2="337.59" style="fill: none; stroke: #1d1d1b; stroke-miterlimit: 10; stroke-width: 4px;"/>
    <line x1="248.33" y1="481.63" x2="248.33" y2="486.73" style="fill: none; stroke: #1d1d1b; stroke-miterlimit: 10; stroke-width: 4px;"/>
    <line x1="319.37" y1="356.16" x2="323.04" y2="353.04" style="fill: none; stroke: #1d1d1b; stroke-miterlimit: 10; stroke-width: 4px;"/>
    <line x1="331.29" y1="378.02" x2="337.24" y2="374.39" style="fill: none; stroke: #1d1d1b; stroke-miterlimit: 10; stroke-width: 4px;"/>
    <polyline points="332.36 474.74 344.98 481.63 354.79 474.74" style="fill: none; stroke: #1d1d1b; stroke-miterlimit: 10; stroke-width: 4px;"/>
    <line x1="343.22" y1="413.19" x2="349.55" y2="415.78" style="fill: none; stroke: #1d1d1b; stroke-miterlimit: 10; stroke-width: 4px;"/>
    <line x1="186.98" y1="474.74" x2="179.81" y2="478.19" style="fill: none; stroke: #1d1d1b; stroke-miterlimit: 10; stroke-width: 4px;"/>
    <line x1="272.17" y1="495.41" x2="266.07" y2="499.89" style="fill: none; stroke: #1d1d1b; stroke-miterlimit: 10; stroke-width: 4px;"/>
    <polyline points="333.06 498.85 344.98 498.32 344.98 481.63" style="fill: none; stroke: #1d1d1b; stroke-miterlimit: 10; stroke-width: 4px;"/>
    <line x1="344.98" y1="498.32" x2="357.81" y2="502.29" style="fill: none; stroke: #1d1d1b; stroke-miterlimit: 10; stroke-width: 4px;"/>
  </g>
</svg>