<?xml version="1.0" encoding="UTF-8"?>
<svg id="Têtes" xmlns="http://www.w3.org/2000/svg" viewBox="0 0 595.28 841.89">
  <g id="carré">
    <path d="m269.95,316.62c25.93-2.92,51.99-4.72,78.07-5.39-6.91-43.61-8.96-87.98-6.08-132.04.11-1.71.13-3.68-1.16-4.8-1.03-.9-2.52-.92-3.89-.9-45.52.71-91.04,1.43-136.56,2.14-1.41.02-2.99.12-3.94,1.17-.79.88-.88,2.15-.93,3.33-.88,19.87-1.6,39.74-2.17,59.62-.67,23.52-1.07,47.4,4.92,70.15.45,1.69.99,3.47,2.3,4.63,1.66,1.46,4.09,1.53,6.3,1.53,25.35-.02,50.7-.04,76.05-.06" style="fill: #66b32e; stroke-width: 0px;"/>
    <path d="m269.95,319.12c20.19-2.27,40.45-3.86,60.74-4.78,5.77-.26,11.55-.46,17.33-.61,1.76-.05,2.67-1.55,2.41-3.16-2.63-16.66-4.55-33.43-5.75-50.25-1.2-16.88-1.69-33.81-1.45-50.74.12-8.5.42-17,.91-25.49.2-3.43,1.29-8.07-1.14-10.97s-7.37-2.11-10.84-2.05c-17.28.27-34.55.54-51.83.81-17.19.27-34.39.54-51.58.81-8.56.13-17.11.27-25.67.4-3.71.06-8.25-.2-9.68,4.09-.59,1.78-.46,3.83-.54,5.68-.09,2.15-.19,4.31-.28,6.46-.72,17.13-1.32,34.26-1.8,51.39-.46,16.45-.77,32.99,1.22,49.36.5,4.15,1.13,8.29,1.95,12.39.75,3.77,1.37,7.9,3.02,11.4s5.37,4.64,9.07,4.71c4.24.08,8.48,0,12.72,0,17.15-.01,34.3-.03,51.45-.04,4.23,0,8.45,0,12.68,0,3.22,0,3.22-5,0-5-16.57.01-33.14.02-49.71.04-8.37,0-16.73.01-25.1.02-1.59,0-3.34.17-4.87-.36-1.26-.43-1.81-1.48-2.19-2.7-1.16-3.65-1.89-7.49-2.59-11.26-2.88-15.58-3.16-31.52-2.9-47.33.28-16.49.9-32.97,1.53-49.45.16-4.14.32-8.28.5-12.42.09-2.07.17-4.14.26-6.21.04-.99.09-1.99.13-2.98.03-.63-.09-1.61.22-2.2.41-.78,2.16-.54,2.92-.56,2.08-.03,4.15-.07,6.23-.1,4.15-.07,8.31-.13,12.46-.2,16.7-.26,33.39-.52,50.09-.78,16.61-.26,33.23-.52,49.84-.78,4.24-.07,8.47-.13,12.71-.2,1.9-.03,3.91-.26,5.81-.05,1.15.13,1.25.7,1.27,1.78.07,3.87-.44,7.82-.63,11.69-.2,4.08-.35,8.17-.46,12.26-.45,16.35-.22,32.71.68,49.04.91,16.47,2.51,32.9,4.77,49.24.55,3.97,1.14,7.93,1.76,11.89l2.41-3.16c-20.31.53-40.6,1.73-60.82,3.62-5.76.54-11.51,1.13-17.25,1.77-1.34.15-2.5,1.04-2.5,2.5,0,1.23,1.15,2.65,2.5,2.5h0Z" style="fill: #1d1d1b; stroke-width: 0px;"/>
  </g>
</svg>