<?xml version="1.0" encoding="UTF-8"?>
<svg id="Têtes" xmlns="http://www.w3.org/2000/svg" viewBox="0 0 595.28 841.89">
  <g id="ronde">
    <path d="m281,314.96c12,1.28,24.89,2.39,35.42-3.51,3.7-2.07,6.89-4.91,10.06-7.73,9.97-8.87,20.31-18.29,24.84-30.84,2.64-7.31,3.12-15.21,3.23-22.98.17-11.45-.48-23.28-5.46-33.59-2.84-5.88-6.99-11.03-11.35-15.89-6.46-7.2-13.61-14.02-22.25-18.36-13.14-6.59-28.43-6.88-43.13-7.04-11.37-.12-22.75-.24-34.12-.03-9.98.18-20.52.8-28.82,6.34-13.53,9.04-16.31,27.55-16.68,43.82-.39,16.93.52,34.19,6.22,50.13s16.74,30.59,32.19,37.52c11.42,5.13,35.28,3.66,47.69,1.99" style="fill: #66b32e; stroke-width: 0px;"/>
    <path d="m281,317.46c8.62.92,17.4,1.71,25.98.02,4.25-.83,8.4-2.37,12.07-4.68,3.9-2.45,7.31-5.61,10.73-8.67,6.23-5.57,12.34-11.32,17.26-18.11,2.47-3.4,4.53-7.05,6.11-10.95,1.78-4.39,2.72-9.04,3.26-13.73s.65-9.38.66-14.08c0-4.43-.14-8.86-.66-13.26-1.07-9.14-3.75-17.81-8.99-25.46-4.99-7.29-11.23-14.08-17.91-19.86s-14.35-10.27-22.96-12.71-17.87-3.1-26.89-3.33c-9.68-.24-19.38-.27-29.07-.26-9.19.01-18.56-.24-27.65,1.29-7.97,1.35-15.58,4.73-20.98,10.89-9.88,11.26-11.48,27.4-11.75,41.74-.35,18.42.95,37.35,8.25,54.49,6.02,14.14,16.46,27.11,30.57,33.78,6.06,2.86,12.82,3.71,19.45,4.09,7.23.42,14.49.17,21.7-.43,2.89-.24,5.78-.55,8.66-.93,1.34-.18,2.5-1.02,2.5-2.5,0-1.21-1.15-2.68-2.5-2.5-6.21.83-12.48,1.32-18.75,1.5-6.73.19-13.61.11-20.25-1.08-1.45-.26-2.89-.58-4.31-.98-.63-.18-1.26-.38-1.88-.6-.8-.28-.97-.35-1.59-.64-3.36-1.54-6.56-3.46-9.51-5.7-5.73-4.35-10.53-9.94-14.33-16.03-8.94-14.31-12.14-31.22-12.87-47.87-.36-8.16-.37-16.42.36-24.56.6-6.71,1.8-13.62,4.56-19.8s7.01-11.45,13.07-14.62c7.08-3.7,15.39-4.19,23.23-4.38,9.45-.23,18.91-.17,28.37-.08,8.9.08,17.84,0,26.71.86,8.32.82,16.69,2.67,24.08,6.7s13.38,9.68,18.95,15.75c5.73,6.25,11.18,12.96,14,21.07s3.4,16.7,3.39,25.2-.31,17.97-3.6,26.32c-2.85,7.24-7.96,13.42-13.37,18.9-2.85,2.88-5.85,5.62-8.87,8.32s-6.29,5.77-9.91,8.01c-6.96,4.31-15.22,5.1-23.23,4.83-4.05-.14-8.08-.54-12.11-.97-1.34-.14-2.5,1.25-2.5,2.5,0,1.47,1.15,2.36,2.5,2.5h0Z" style="fill: #1d1d1b; stroke-width: 0px;"/>
  </g>
</svg>