<?xml version="1.0" encoding="UTF-8"?>
<svg id="Têtes" xmlns="http://www.w3.org/2000/svg" viewBox="0 0 595.28 841.89">
  <g id="difforme">
    <path d="m239.26,174.84c16.81-3.1,34.38-6.16,50.74-1.22,16.97,5.12,31.46,18.55,49.17,19.27,6.77.27,13.61-1.38,20.28-.22,6.67,1.16,13.47,6.71,12.53,13.41-.61,4.31-4.11,7.52-6.99,10.78s-5.44,7.77-3.74,11.78c1.81,4.27,7.24,5.38,11.84,5.92,8.01.93,16.02,1.85,24.03,2.78,4.91.57,10.29,1.37,13.56,5.07,5.04,5.7,1.86,15.38-4.39,19.71s-14.32,4.8-21.92,5.12c-10.93.46-22.64.73-31.88-5.14-3.72-2.36-7.95-5.8-11.97-3.99-3.78,1.71-4.27,7.03-2.85,10.93s4.13,7.32,4.89,11.39c1.04,5.52-1.83,11.24-6.15,14.83s-9.88,5.33-15.4,6.35c-14.39,2.66-30.03,1.12-42.83,8.21-3.44,1.9-6.57,4.39-10.21,5.88-7.88,3.22-17.18,1.2-24.28-3.48-7.1-4.69-12.31-11.73-16.69-19.02-3.66-6.08-7.36-12.89-13.96-15.5-11.69-4.62-24.61,6.68-36.85,3.85-6.26-1.45-11.13-6.39-14.81-11.66-2.86-4.1-5.33-8.88-4.82-13.85.66-6.55,6.13-11.4,11.02-15.81,4.45-4.01,8.79-8.3,11.61-13.58,2.82-5.28,3.94-11.75,1.71-17.31-2.6-6.49-9.03-10.46-13.69-15.67s-7.21-14.15-1.88-18.66c4.62-3.9,11.77-1.6,16.71,1.89s9.54,8.17,15.54,8.9c1.65.2,3.44.05,4.79-.92,1.06-.75,1.75-1.91,2.27-3.09,2.71-6.2,1.34-13.44,3.16-19.95.29-1.05.72-2.15,1.63-2.76,1.2-.8,2.78-.48,4.18-.13,6.46,1.62,13.02,3.28,18.72,6.71,4.88,2.94,9.06,7.15,14.41,9.13s12.67.64,14.63-4.71" style="fill: #66b32e; stroke-width: 0px;"/>
    <path d="m239.92,177.25c14.65-2.7,30.02-5.54,44.84-2.39,13.01,2.77,23.88,10.68,35.93,15.86,6.04,2.59,12.35,4.51,18.96,4.69,7.18.2,14.97-2.07,21.93.42,4.48,1.6,9.24,5.92,7.65,11.12-.88,2.87-3.25,5.11-5.21,7.27-2.31,2.54-4.51,5.38-5.41,8.76s-.21,6.78,2.09,9.37c1.92,2.16,4.83,3.31,7.58,3.95,3.37.78,6.89,1.01,10.32,1.41,4,.46,8.01.93,12.01,1.39,3.47.4,7,.66,10.43,1.33,2.76.54,5.62,1.38,7.61,3.48,3.41,3.59,2.06,9.17-.54,12.92-3.43,4.96-9.98,6.71-15.65,7.36-6.58.76-13.4.97-20.02.7s-13.1-1.42-18.7-4.94c-2.79-1.76-5.56-3.96-8.88-4.62s-6.62.45-8.62,3.23c-1.62,2.25-2.03,5.26-1.7,7.96.41,3.36,2.03,6.27,3.55,9.23,1.4,2.72,2.55,5.52,2.06,8.64-.46,2.94-2.01,5.66-4.07,7.77-4.63,4.75-11.53,6.41-17.86,7.4-6.72,1.06-13.54,1.29-20.3,2.12-6.86.84-13.66,2.22-19.87,5.37-3.12,1.58-5.91,3.71-8.99,5.36-2.81,1.5-5.86,2.31-9.04,2.35-13.76.18-23.58-11-30.21-21.76-3.24-5.25-6.18-11-11.13-14.87s-11.34-4.66-17.61-3.43c-5.82,1.14-11.31,3.61-17.18,4.53-2.72.43-5.52.4-8.17-.41-2.84-.86-5.33-2.61-7.46-4.64-2.3-2.2-4.27-4.73-5.95-7.42-1.77-2.83-3.32-6.02-3.32-9.43,0-6.17,5.28-10.76,9.49-14.57,5.16-4.67,10.43-9.62,13.45-16.02s3.78-13.99.32-20.42c-3.03-5.63-8.47-9.28-12.74-13.86-3.08-3.31-6.01-8.97-4.13-13.46,2.24-5.32,9.23-3.57,13.17-1.37,5.66,3.16,9.97,8.44,16.42,10.18,3.43.92,7.47.84,10.04-1.95,2.43-2.64,3.24-6.55,3.69-9.99s.39-6.94.89-10.37c.13-.87.3-1.74.52-2.59.12-.44.21-1.16.54-1.53.73-.82,2.72.07,3.63.3,6.96,1.76,13.66,3.79,19.59,7.97,5.23,3.68,10.3,8.09,16.98,8.48,5.45.32,10.89-2.12,12.94-7.39.49-1.26-.54-2.74-1.75-3.08-1.41-.39-2.58.48-3.08,1.75-1.66,4.27-8.12,4.38-11.94,2.82-3.14-1.28-5.88-3.42-8.59-5.41s-5.65-3.97-8.84-5.4c-3.52-1.58-7.18-2.75-10.9-3.75-3.18-.85-7.42-2.65-10.51-.75s-3.39,6.49-3.73,9.69c-.38,3.58-.28,7.24-1.03,10.77-.32,1.51-.75,3.03-1.54,4.37s-1.95,1.67-3.45,1.62c-3.16-.11-6.08-1.95-8.58-3.72-2.63-1.86-5.05-4.04-7.79-5.74s-5.82-2.92-9.03-3.32c-6.51-.8-12.31,3.27-13.08,9.89-.7,6,2.52,11.91,6.57,16.09s9.95,8.02,12.14,13.82c2.48,6.58-.23,13.67-4.19,19.03-7.47,10.12-24.13,17.77-19.74,32.85,1.04,3.57,3,6.84,5.19,9.82,1.93,2.63,4.05,5.13,6.59,7.18s5.67,3.89,9.02,4.67c3.09.71,6.21.63,9.33.16,6.12-.93,11.83-3.53,17.91-4.66,2.59-.48,5.32-.61,7.89.08,2.87.76,5.23,2.49,7.23,4.65,4.33,4.68,6.98,10.72,10.6,15.92,3.9,5.6,8.51,10.78,14.29,14.5s12.85,5.79,19.68,5.01c3.69-.42,7.07-1.65,10.27-3.51,3.01-1.75,5.83-3.8,9-5.28,6.18-2.88,13.13-3.87,19.86-4.53,7.12-.7,14.31-1.06,21.33-2.5,6.68-1.38,13.64-4.08,18-9.57,2.05-2.58,3.61-5.59,4.12-8.88.55-3.6-.18-6.91-1.68-10.19-1.33-2.92-3.42-5.73-3.86-8.97-.26-1.88.02-4.35,1.46-5.44,2.41-1.83,5.8.63,7.83,1.94,2.89,1.87,5.73,3.57,9,4.73,6.56,2.34,13.73,2.66,20.63,2.54s14.21-.16,20.95-1.99c6.12-1.66,11.72-5.2,14.49-11.08,2.48-5.28,2.61-11.65-1.41-16.22-4.61-5.22-12.43-5.47-18.83-6.21-4.17-.48-8.34-.96-12.51-1.45-3.47-.4-7.01-.64-10.45-1.3-2.3-.44-5.15-1.12-6.62-3.13-1.77-2.43-.37-5.56,1.08-7.78,1.78-2.72,4.31-4.9,6.27-7.49s3.44-5.89,3.15-9.28c-.54-6.36-5.92-10.98-11.62-13.01-7.3-2.6-15.26-.47-22.77-.58-13.24-.2-24.71-8-36.16-13.7-6.29-3.13-12.79-5.79-19.73-7.04-7.68-1.38-15.5-1.39-23.25-.66s-14.98,2.04-22.4,3.41c-1.33.24-2.08,1.85-1.75,3.08.38,1.4,1.74,1.99,3.08,1.75h0Z" style="fill: #1d1d1b; stroke-width: 0px;"/>
  </g>
</svg>