<?xml version="1.0" encoding="UTF-8"?>
<svg id="Têtes" xmlns="http://www.w3.org/2000/svg" viewBox="0 0 595.28 841.89">
  <g id="triangle">
    <path d="M281.04,315.42c24.11-14.71,46.17-34.03,59.41-58.98,3.28-6.19,6.01-12.68,9.65-18.66,4.96-8.14,11.54-15.21,16.38-23.42,6.01-10.19,9.12-21.79,12.17-33.22-8.9-1.75-18.05-1.71-27.12-1.67-64.01.32-128.01.64-192.02.96,7.56,16.5,16.2,32.49,25.86,47.85,11.52,18.33,24.53,35.81,39.75,51.2,10.8,10.92,22.66,20.75,34.88,30.07,4.56,3.48,9.72,7.06,15.45,6.67" style="fill: #66b32e; stroke-width: 0px;"/>
    <path d="M282.31,317.58c18.02-11.02,34.91-24.46,48-41.15,3.29-4.19,6.36-8.54,9.11-13.1,2.97-4.92,5.45-10.1,7.99-15.25s5.58-10.49,9.09-15.35c3.4-4.71,7.07-9.23,10.26-14.09,7.32-11.16,10.91-24.08,14.31-36.85.33-1.23-.41-2.82-1.75-3.08-6.99-1.35-14.11-1.72-21.22-1.76s-14.19.04-21.28.08c-14.38.07-28.76.14-43.14.22-28.59.14-57.19.29-85.78.43-16.13.08-32.25.16-48.38.24-2.03.01-2.93,2.08-2.16,3.76,10.21,22.25,22.33,43.71,36.41,63.75,6.82,9.71,14.15,19.08,22.1,27.89s17.03,17.38,26.34,25.21c5.27,4.43,10.68,8.7,16.15,12.88,4.96,3.79,10.54,7.64,17.08,7.29,3.2-.17,3.22-5.17,0-5-5.44.29-10.07-3.19-14.19-6.33-4.65-3.54-9.23-7.16-13.72-10.89-9.15-7.59-17.91-15.64-25.98-24.36-15.88-17.15-29.24-36.5-41.01-56.65-6.88-11.79-13.17-23.91-18.87-36.32l-2.16,3.76c28.59-.14,57.19-.29,85.78-.43,28.51-.14,57.02-.29,85.53-.43,7.95-.04,15.91-.1,23.86-.12s15.63.11,23.3,1.59l-1.75-3.08c-2.95,11.04-5.91,22.28-11.69,32.24-2.88,4.97-6.41,9.51-9.85,14.09s-6.79,9.43-9.5,14.6-5.05,10.47-7.87,15.56c-2.54,4.59-5.4,9.01-8.51,13.24-6.07,8.24-13.18,15.71-20.84,22.48-8.74,7.73-18.26,14.51-28.2,20.59-2.74,1.68-.23,6,2.52,4.32h0Z" style="fill: #1d1d1b; stroke-width: 0px;"/>
  </g>
</svg>