<?xml version="1.0" encoding="UTF-8"?>
<svg id="visage" xmlns="http://www.w3.org/2000/svg" viewBox="0 0 595.28 841.89">
  <g id="nez">
    <path d="m264.65,259.64c-8.73,0-17.45-.01-26.18-.02-4.34,0-8.78-.28-13.11,0-2.14.14-3.83,1.07-4.86,2.99s-1.8,3.94-2.58,5.93c-1.41,3.63-3.42,8.13-1.9,12,1.38,3.5,4.81,5.66,7.92,7.48,3.42,2.01,7.28,3.67,11.3,3.73,1.99.03,3.91-.41,5.73-1.2,1.68-.73,3.22-1.86,5-2.32,4.12-1.07,8.48,1.46,12.22,2.84,4.27,1.57,8.9,2.3,13.11.18,2.87-1.45.34-5.77-2.52-4.32s-6.25.41-9.06-.61c-3.47-1.25-6.76-2.86-10.48-3.24-1.81-.18-3.7-.03-5.42.58s-3.17,1.57-4.79,2.31c-2.94,1.34-6.17.74-9.06-.47s-5.88-2.86-8.06-5c-.86-.85-1.46-1.79-1.44-3.04.02-1.74.81-3.54,1.37-5.16.6-1.73,1.26-3.43,2.01-5.1.34-.75.63-1.76,1.15-2.41.15-.19-.02-.12-.09-.07.28-.21.91-.12,1.21-.12,3.95-.05,7.9,0,11.85,0,8.89,0,17.78.01,26.67.02,3.22,0,3.22-5,0-5h0Z" style="fill: #1d1d1b; stroke-width: 0px;"/>
  </g>
</svg>