<?xml version="1.0" encoding="UTF-8"?>
<svg id="Visage" xmlns="http://www.w3.org/2000/svg" viewBox="0 0 595.28 841.89">
  <g id="corne">
    <g>
      <path d="M283.54,288c3.93,2.28,20.71,11.4,40.19,5.8,23.03-6.63,31.03-28.73,32.06-30.59.63-1.14,1.1-2.85-.03-3.51-.57-.34-1.29-.19-1.93,0-4.05,1.17-25.49,13.4-27.7,14.57-6.12,3.25-16.83,4.34-36.8-6.94.31,2.24.52,5.79-.48,9.96-1.25,5.21-3.78,8.83-5.32,10.72Z" style="fill: #d7bf99; stroke-width: 0px;"/>
      <path d="M282.28,290.16c11.53,6.66,25.42,9.59,38.56,6.92s24.47-11.32,31.81-22.62c1.89-2.91,3.48-5.97,4.9-9.13.93-2.05,2.16-4.35.79-6.53-1.88-2.98-5.43-1.54-7.93-.4-8.66,3.94-16.82,8.96-25.17,13.5-.19.1-.37.2-.56.3-.16.08-.32.16-.48.24-.1.05-.78.35-.42.2s-.2.08-.31.12c-.21.08-.42.16-.63.23-.44.15-.89.28-1.34.4s-.9.22-1.36.3c-.22.04-.44.08-.67.11-.47.08,0,0,.07,0-.17.02-.34.04-.5.06-1.13.11-2.26.14-3.4.11-2.79-.09-5.2-.56-8.12-1.38-3.63-1.02-7.14-2.43-10.54-4.07-2.17-1.04-4.29-2.17-6.39-3.34-1.47-.83-4.03.18-3.76,2.16.5,3.71.25,7.43-.86,11.02-.52,1.66-1.21,3.23-2.08,4.74-.36.64-.75,1.26-1.17,1.86-.45.66-.68.95-.95,1.29-.85,1.05-1.03,2.51,0,3.54.88.88,2.68,1.06,3.54,0,5.09-6.29,7.61-14.37,6.53-22.45l-3.76,2.16c6.71,3.77,13.9,7.22,21.5,8.73,4.63.92,9.54,1.16,14.1-.24,3.05-.94,5.79-2.69,8.56-4.23,4.66-2.6,9.34-5.19,14.06-7.68,2.03-1.07,4.07-2.14,6.16-3.11.38-.18.76-.35,1.14-.52.08-.04-.5.19-.01,0,.15-.06.3-.12.45-.17.13-.04.26-.08.38-.13.55-.22.51,0-.06-.54-.62-.61-.25-.52-.49-.22-.1.13-.18.44-.26.6-1.06,2.27-2.1,4.54-3.33,6.73-5.42,9.61-13.65,17.9-24.42,21.78-7.55,2.72-15.74,3.3-23.62,1.82-5.63-1.06-10.72-2.85-15.59-5.42-.63-.33-1.25-.67-1.86-1.03-2.79-1.61-5.31,2.71-2.52,4.32Z" style="fill: #000; stroke-width: 0px;"/>
    </g>
    <g>
      <path d="M251.04,288.64c-3.93,2.28-20.71,11.4-40.19,5.8-23.03-6.63-31.03-28.73-32.06-30.59-.63-1.14-1.1-2.85.03-3.51.57-.34,1.29-.19,1.93,0,4.05,1.17,25.49,13.4,27.7,14.57,6.12,3.25,16.83,4.34,36.8-6.94-.31,2.24-.52,5.79.48,9.96,1.25,5.21,3.78,8.83,5.32,10.72Z" style="fill: #d7bf99; stroke-width: 0px;"/>
      <path d="M249.78,286.48c-10.29,5.95-23.08,8.9-35.15,6.33-6.7-1.43-13.06-4.44-18.3-8.8-4.24-3.53-7.54-7.43-10.39-11.91-1.76-2.76-3.24-5.66-4.59-8.65-.13-.28-.26-.56-.39-.84-.05-.11-.2-.53-.26-.6-.25-.33.18-.43-.49.22-.54.52-.65.33-.06.54.13.05.25.08.38.13.15.05.3.12.45.17.49.18-.12-.06-.01,0,.38.18.76.34,1.14.52.95.44,1.89.91,2.82,1.38,4.8,2.43,9.52,5.03,14.22,7.64,2.97,1.64,5.89,3.51,8.97,4.93,10.41,4.77,22.53.5,32.17-4.16,2.1-1.01,4.16-2.11,6.19-3.25l-3.76-2.16c-1.08,8.08,1.44,16.15,6.53,22.45.85,1.05,2.65.88,3.54,0,1.04-1.04.85-2.48,0-3.54-.09-.11-.18-.23-.27-.34.15.2.13.18-.05-.07-.19-.25-.37-.51-.55-.77-.44-.64-.86-1.3-1.25-1.98-.86-1.51-1.56-3.08-2.08-4.74-1.12-3.58-1.36-7.3-.86-11.02.26-1.98-2.29-2.99-3.76-2.16-6.71,3.77-13.89,7.18-21.55,8.45-.31.05-.62.1-.93.14.32-.04-.46.05-.62.06-.65.06-1.3.11-1.95.13-1.13.04-2.27,0-3.4-.11-.13-.01-.27-.03-.4-.04-.37-.04.44.07.07.01-.22-.04-.45-.07-.67-.11-.49-.09-.97-.19-1.45-.32-.45-.12-.9-.25-1.34-.4-.26-.09-1.45-.58-.78-.28-3.19-1.44-6.21-3.36-9.26-5.06-4.87-2.7-9.75-5.4-14.74-7.9-1.7-.85-3.43-1.76-5.24-2.37-1.94-.65-4.31-.49-5.48,1.42s-.46,3.92.4,5.69c1.16,2.38,2.21,4.78,3.53,7.08,6.2,10.83,15.66,19.67,27.55,23.85,14.02,4.93,29.67,2.63,42.64-4.19.65-.34,1.3-.7,1.94-1.07,2.78-1.61.27-5.93-2.52-4.32Z" style="fill: #000; stroke-width: 0px;"/>
    </g>
    <path d="M287.36,263.66c1.39,2.87,2.11,6.01,2.11,9.19,0,11.85-10.03,21.61-22.21,21.61s-22.21-9.75-22.21-21.61c0-3.36.8-6.67,2.35-9.67" style="fill: none; stroke: #000; stroke-miterlimit: 10; stroke-width: 5px;"/>
    <path d="M283.18,287.84c-4.05,4.07-9.71,6.61-15.93,6.61-12.19,0-22.21-9.75-22.21-21.61,0-3.36.8-6.67,2.35-9.67" style="fill: none; stroke: #000; stroke-miterlimit: 10; stroke-width: 5px;"/>
    <path d="M287.36,263.66c.53,1.1.97,2.24,1.3,3.41" style="fill: none; stroke: #000; stroke-miterlimit: 10; stroke-width: 5px;"/>
  </g>
</svg>