<?xml version="1.0" encoding="UTF-8"?>
<svg id="visage" xmlns="http://www.w3.org/2000/svg" viewBox="0 0 595.28 841.89">
  <g id="bouche">
    <path d="m269.34,265.63c-5.4.48-11.34,1.24-14.98,5.76s-2.5,10.48,1.05,14.86c3.18,3.93,8.31,6.99,13.5,6.68,5.12-.31,10.05-3.6,11.07-8.86,1.32-6.77-2.93-12.35-7.29-16.98l-1.1,4.18c6.3-1.08,12.59-2.17,18.89-3.25,2.38-.41,2.39-4.42,0-4.82-5.09-.85-10.22-.81-15.28.24-4.42.92-9.46,2.52-12.67,5.86s-4.38,9.03-.86,12.56c2.87,2.87,8.5,2.93,10.52-.98s-.71-9.13-5.26-9.09-7.82,5.27-5.26,9.22,8.08,4.04,10.7.28.9-8.76-3.19-10.4c-4.32-1.73-8.85.76-10.26,5.06-1.33,4.07,1.09,10.16,6.14,9.44,5.49-.78,5.8-7.48,4.47-11.65-1.79-5.61-7.99-3.49-11.86-1.64-4.1,1.96-7.43,6.69-5.06,11.22,1.05,2.02,3.24,3.39,5.25,4.32,2.27,1.06,4.62,1.69,7.11,1.94,1.05.1,2.1.12,3.15.04,1.64-.13,3.03-.24,4.01-1.71,1.06-1.59,1.53-3.66,1.37-5.55-.35-4.13-3.15-7.81-7.39-8.45-4.02-.61-8.35,1.36-10.02,5.18-1.07,2.45-.83,5.25,1.11,7.19,1.64,1.64,4.22,2.58,6.42,3.17,4.68,1.26,9.75.6,13.46-2.67,3.33-2.95,4.39-7.63,2.55-11.68-.79-1.75-2.19-3.25-3.93-4.09-1.3-.63-3.39-.22-3.67,1.49-.37,2.3-.15,4.76-.75,7.02-.3,1.13-1.06,2.59-2.38,2.58l1.77,4.27c3.85-4.31,7.91-9.93,5.15-15.92-2.16-4.7-8.88-6.72-13.62-5.2-5.42,1.73-5.39,9.06-3.2,13.23s7.22,6.99,12.09,5.77c5.77-1.45,9.51-7.29,8.64-13.08-.18-1.21-1.64-1.96-2.74-1.79-1.3.2-2.04,1.18-2.17,2.46-.3,3.02-.76,6.43-2.71,8.89-1.44,1.83-3.82,3.18-6.12,2.37-2.11-.74-3.51-2.89-4.41-4.87-.49-1.09-.89-2.3-1.09-3.48-.06-.34-.12-.94-.09-1.19.01-.11.14-.6.13-.55,0,.07-.54.32.1-.04l-3.67-2.82c-1.89,5.85.45,12.59,5.07,16.52,5.17,4.38,12.15,5.37,18.66,4.15,2.79-.53,2.12-4.96-.66-4.91-1.83.03-3.65.07-5.48.1-3.26.06-3.17,4.74,0,5,1.61.13,3.25-.08,4.78-.6,2.78-.95,2.1-4.59-.66-4.91-2.58-.3-5.17-1.01-7.54-2.07-1.03-.46-2.18-.45-3.03.39-.73.73-1.03,2.14-.39,3.03,3.01,4.15,7.85,6.12,12.9,5.24,2.83-.49,2.08-4.89-.66-4.91-2.2-.02-4.27-.37-6.36-1.04l-.66,4.91c.49-.06.92-.13,1.32.22l1.1-4.18c-1.69.36-3.36.43-5.08.32l.66,4.91s.86-.26.45-.16c.04-.01.23.25.15.12l3.42-3.42c-5.97-3.86-9.2-10.95-8.56-17.97.12-1.35-1.24-2.5-2.5-2.5-1.45,0-2.38,1.15-2.5,2.5-.8,8.78,3.68,17.53,11.03,22.28,2.12,1.37,4.7-1.33,3.42-3.42s-3.94-3.23-6.25-2.26c-1.15.48-1.99,1.41-1.79,2.74s1.18,2.09,2.46,2.17c2.16.14,4.3-.06,6.41-.5,1.78-.38,2.49-2.97,1.1-4.18s-3.03-1.9-4.85-1.68c-1.24.15-2.3.84-2.46,2.17-.15,1.26.58,2.35,1.79,2.74,2.48.8,5.08,1.2,7.69,1.22l-.66-4.91c-2.65.46-5.67-.76-7.26-2.94l-3.42,3.42c3.24,1.45,6.53,2.35,10.06,2.75l-.66-4.91c-1.16.4-2.23.52-3.45.42v5c1.83-.03,3.65-.07,5.48-.1l-.66-4.91c-4.64.87-10.05.24-13.79-2.86-3.37-2.8-5.16-7.4-3.79-11.65.69-2.13-1.84-3.86-3.67-2.82-3.72,2.12-2.85,7.05-1.58,10.38,1.38,3.61,3.68,7.09,7.38,8.61,3.98,1.64,8.41.18,11.29-2.87,3.3-3.51,4.16-8.3,4.62-12.92l-4.91.66c.41,2.75-1.74,5.56-4.16,6.61s-5,.16-6.6-1.81c-.85-1.05-1.44-2.43-1.57-3.69-.1-.87-.09-2.72.79-3.41.92-.72,2.98-.38,4.05-.15,1.32.29,2.69.81,3.53,1.93,2.72,3.63-1.55,8.33-3.82,10.87-1.42,1.58-.48,4.26,1.77,4.27,2.82.01,5.23-1.83,6.45-4.31,1.41-2.85,1.01-5.92,1.5-8.96l-3.67,1.49c2.18,1.05,2.98,3.73,1.98,5.87-1.32,2.85-4.65,4.01-7.59,3.88-1.78-.08-3.57-.6-5.18-1.34-1.35-.62-2.47-1.18-1.68-2.77.97-1.97,3.74-2.66,5.56-1.85,2.52,1.12,2.79,4.53,1.35,6.56l1.49-1.15c-3.72.6-7.79-.26-10.9-2.39-3.29-2.25.26-5.03,2.69-6.02.6-.24,3.27-1.53,3.79-1.12.27.21.36,1.67.41,1.97.14.81.29,1.81.01,2.61-.37,1.06-.98,1.12-1.4.12-.45-1.07-.17-2.46.52-3.36.74-.95,1.93-1.24,3-.85s1.46,1.26,1.37,1.98c-.06.52-.23.93-.55,1.26-.29.3-.59.4-.93.36-.78-.09-1.62-.85-1.35-1.45.13-.3.5-.66.9-.79.31-.1.55-.05.72.06.19.13.44.62.47.81.05.32.02.73-.09.87-.48.61-1.52.52-2.36-.06-.93-.64-1.05-2.13-.73-3.3,1.12-4.06,6.52-5.61,10.08-6.53,4.68-1.21,9.62-1.45,14.39-.65v-4.82c-6.3,1.08-12.59,2.17-18.89,3.25-1.95.34-2.28,2.93-1.1,4.18,2.68,2.85,5.82,6.18,6.07,10.31.22,3.56-1.95,6.12-5.38,6.86s-6.98-1.13-9.41-3.47-4.64-5.83-2.75-9.02c2.31-3.91,7.62-4.32,11.66-4.67,1.34-.12,2.5-1.06,2.5-2.5,0-1.26-1.15-2.62-2.5-2.5h0Z" style="fill: #1d1d1b; stroke-width: 0px;"/>
  </g>
</svg>