<?xml version="1.0" encoding="UTF-8"?>
<svg id="Visage" xmlns="http://www.w3.org/2000/svg" viewBox="0 0 595.28 841.89">
  <g id="bouche_LHa" data-name="bouche LHa">
    <path d="M269.33,267.44c-8.63.63-18.09-.64-26.19-3.23-.66,1.63-.97,3.31-.84,4.98.73,9.25,14.67,16.07,26.04,14.94,9.23-.92,20.89-7.48,21.06-16.47.03-1.57-.3-3.09-.91-4.53-6.11,2.35-12.95,3.87-19.17,4.32Z" style="fill: #000; stroke: #000; stroke-miterlimit: 10; stroke-width: 4px;"/>
    <path d="M284.71,254.16c.42,4.21,3.21,7.65,6.9,8.62,3.84,1.01,7.04-1.07,7.56-1.43" style="fill: none; stroke: #1d1d1b; stroke-miterlimit: 10; stroke-width: 3px;"/>
    <path d="M248.04,255.16c-.42,4.21-3.21,7.65-6.9,8.62-3.84,1.01-7.04-1.07-7.56-1.43" style="fill: none; stroke: #1d1d1b; stroke-miterlimit: 10; stroke-width: 3px;"/>
    <path d="M261.15,248.19c1.29,1.29,1.29,3.4,0,4.69s-3.4,1.29-4.69,0-1.29-3.4,0-4.69,3.4-1.29,4.69,0Z" style="fill: #000; stroke-width: 0px;"/>
    <path d="M274.42,248.19c1.29,1.29,1.29,3.4,0,4.69s-3.4,1.29-4.69,0-1.29-3.4,0-4.69,3.4-1.29,4.69,0Z" style="fill: #000; stroke-width: 0px;"/>
  </g>
</svg>