<?xml version="1.0" encoding="UTF-8"?>
<svg id="visage" xmlns="http://www.w3.org/2000/svg" viewBox="0 0 595.28 841.89">
  <g id="museau">
    <path d="m265.98,256.57c-9.75.58-19.7,7.42-22.26,17.17-1.42,5.4,2.33,10.39,5.61,14.33,3.04,3.65,6.77,6.75,10.84,9.19s8.6,4.24,13.24,5.22c2.43.51,4.93.83,7.42.91s5.09.14,7.35-.59c2.81-.91,4.17-3.28,5.44-5.77,1.34-2.64,2.46-5.4,3.33-8.23,1.58-5.18,2.62-11.03,2.02-16.46-.33-3.01-1.22-5.89-3.23-8.22s-4.88-3.59-7.71-4.55c-6.45-2.19-13.2-3.53-19.95-4.33-1.34-.16-2.5,1.26-2.5,2.5,0,1.48,1.15,2.34,2.5,2.5,5.3.63,10.55,1.74,15.68,3.24,3.74,1.1,8.31,2.3,9.66,6.46s.66,9.35-.27,13.67c-.98,4.56-2.58,9.38-5.15,13.31-1.04,1.59-3.02,1.43-4.76,1.49-1.98.06-3.98-.02-5.94-.29-3.97-.54-7.91-1.74-11.5-3.5s-6.98-4.06-9.9-6.85-5.77-6.07-7.19-9.73c-.84-2.18.22-4.43,1.3-6.34s2.52-3.66,4.19-5.15c3.24-2.88,7.48-4.71,11.81-4.97,3.2-.19,3.22-5.19,0-5h0Z" style="fill: #1d1d1b; stroke-width: 0px;"/>
    <path d="m267.15,275.65v-1.35c.01-.34-.06-.67-.22-.96-.1-.31-.27-.58-.52-.8-.23-.24-.49-.42-.8-.52-.3-.16-.62-.23-.96-.22l-.66.09c-.42.12-.79.33-1.1.64l-.39.51c-.23.39-.34.81-.34,1.26v1.35c-.01.34.06.67.22.96.1.31.27.58.52.8.23.24.49.42.8.52.3.16.62.23.96.22l.66-.09c.42-.12.79-.33,1.1-.64l.39-.51c.23-.39.34-.81.34-1.26h0Z" style="fill: #1d1d1b; stroke-width: 0px;"/>
    <path d="m278.84,271.8h-1.35c-.34-.01-.67.06-.96.22-.31.1-.58.27-.8.52-.24.23-.42.49-.52.8-.16.3-.23.62-.22.96l.09.66c.12.42.33.79.64,1.1l.51.39c.39.23.81.34,1.26.34h1.35c.34.01.67-.06.96-.22.31-.1.58-.27.8-.52.24-.23.42-.49.52-.8.16-.3.23-.62.22-.96l-.09-.66c-.12-.42-.33-.79-.64-1.1l-.51-.39c-.39-.23-.81-.34-1.26-.34h0Z" style="fill: #1d1d1b; stroke-width: 0px;"/>
  </g>
</svg>