<?xml version="1.0" encoding="UTF-8"?>
<svg id="Visage" xmlns="http://www.w3.org/2000/svg" viewBox="0 0 595.28 841.89">
  <g id="bec_LHa" data-name="bec LHa">
    <g>
      <path d="M254.01,267.46c-2.72,3.53-.57,9.57,3.96,12.06,9.83,5.41,30.89-5.89,29.66-10.72-1.27-5.01-27.95-8.7-33.62-1.34Z" style="fill: #66b32e; stroke: #000; stroke-miterlimit: 10; stroke-width: 4px;"/>
      <path d="M254.59,268.49c-3.78-3.32-3.69-10.11-2.3-14.36,1.79-5.46,6.21-8.2,7.85-9.19,8.72-5.24,18.96-2.2,25.09-.38,8.29,2.46,17.47,5.18,22.21,13.79,6.73,12.2,1.21,30.23-6.13,32.55-2.03.64-4.79.27-5.36-.96-.88-1.89,4.16-4.17,5.55-9.77.8-3.19.39-7.38-1.91-9.96-2.68-3-7.17-2.96-12.45-2.68-21.96,1.14-28.2,4.79-32.55.96Z" style="fill: #66b32e; stroke: #000; stroke-miterlimit: 10; stroke-width: 4px;"/>
      <path d="M268.76,252.07c1.29,1.29,1.29,3.4,0,4.69s-3.4,1.29-4.69,0-1.29-3.4,0-4.69,3.4-1.29,4.69,0Z" style="fill: #000; stroke-width: 0px;"/>
    </g>
  </g>
</svg>