<?xml version="1.0" encoding="UTF-8"?>
<svg id="visage" xmlns="http://www.w3.org/2000/svg" viewBox="0 0 595.28 841.89">
  <g id="cornes">
    <path d="m244.36,259.17c-12.66-1.25-25.11,4.18-34.25,12.73-9.94,9.3-15.38,22.12-17.15,35.46-.92,6.94-.87,13.98-.06,20.93.21,1.78.45,3.57.75,5.34s.48,3.49,1.03,5.11c.46,1.35,1.23,2.7,2.49,3.45,1.72,1.01,3.81.53,5.17-.85,1.11-1.13,1.91-2.7,2.64-4.08.85-1.62,1.58-3.3,2.25-5,1.19-3.04,2.11-6.17,3.02-9.3,1.81-6.23,3.6-12.55,7.48-17.87,8-10.97,22.44-15.15,34.85-18.76,3.08-.9,1.77-5.72-1.33-4.82-11.26,3.28-22.99,6.93-32.04,14.72-4.61,3.97-7.93,8.95-10.23,14.55-2.43,5.92-3.73,12.22-5.87,18.24-1.01,2.84-2.24,5.61-3.88,8.15.03-.04-.43.66-.44.63-.05-.18,1,.05.89.06.26-.04-.09.3.02-.05-.01.04-.31-.63-.22-.41-.59-1.43-.71-3.17-.96-4.69-1.11-6.54-1.52-13.22-1.11-19.84.75-12.35,4.71-24.85,13.05-34.2,8.52-9.55,20.89-15.8,33.88-14.51,1.35.13,2.5-1.24,2.5-2.5,0-1.46-1.15-2.37-2.5-2.5h0Z" style="fill: #1d1d1b; stroke-width: 0px;"/>
    <path d="m293.06,262.74c10.9.38,21.8,4.29,30.32,11.15s14.75,16.64,19.79,26.53c2.61,5.11,5.28,10.32,7.24,15.72.99,2.75,1.8,5.62,1.97,8.55,0,.13.03,2.21.02,2.21-.54-.12,1.31-1.12,1.32-.77,0,.13-.64-.32-.56-.27-.95-.64-1.62-1.89-2.3-2.78-7.6-10.02-15.62-19.79-24.26-28.94-8.14-8.61-18.84-17.55-31.49-16.33-1.34.13-2.5,1.06-2.5,2.5,0,1.25,1.15,2.63,2.5,2.5,11.43-1.1,20.8,7.27,28.1,15.02,4.56,4.84,8.91,9.88,13.16,14.98s8.13,10.42,12.28,15.56c1.79,2.23,5.36,3.98,7.67,1.42,1.15-1.27,1.15-3.05,1.09-4.66-.07-1.72-.31-3.44-.66-5.12-1.3-6.17-4.27-11.94-7-17.58-5.19-10.73-11.15-21.45-19.99-29.64-9.96-9.23-23.13-14.59-36.69-15.06-3.22-.11-3.21,4.89,0,5h0Z" style="fill: #1d1d1b; stroke-width: 0px;"/>
  </g>
</svg>