<?xml version="1.0" encoding="UTF-8"?>
<svg id="visage" xmlns="http://www.w3.org/2000/svg" viewBox="0 0 595.28 841.89">
  <g id="Trompe">
    <path d="m259.32,261.58c-6.56-.72-12.36,3.49-15.67,8.85-3.89,6.29-4.05,13.62-2.41,20.66,1.86,7.94,5.67,15.27,8.04,23.06s3.63,15.49,2.1,23.22c-1.41,7.1-5.06,13.95-11.28,17.91-1.72,1.1-1.48,3.18,0,4.32,5.98,4.61,11.96,9.21,17.94,13.82.67.52,1.84.42,2.52,0,9.41-5.88,13.84-16.68,15.13-27.3.81-6.68.47-13.42.17-20.12-.27-6.29-.75-12.83.66-19.02,1.22-5.33,4.22-10.99,9.55-13.18,1.25-.51,2.13-1.66,1.75-3.08-.32-1.18-1.82-2.26-3.08-1.75-5.18,2.13-9.07,6.28-11.29,11.39-2.53,5.82-2.93,12.22-2.83,18.49.2,12.44,2.14,25.4-2.46,37.32-2,5.18-5.38,9.95-10.13,12.92h2.52c-5.98-4.61-11.96-9.21-17.94-13.82v4.32c5.84-3.72,9.9-9.46,12.21-15.92,2.57-7.18,2.6-14.95,1.31-22.39-1.39-8.04-4.56-15.46-7.41-23.05-2.47-6.58-4.9-14.09-2.71-21.08,1.82-5.81,6.81-11.29,13.3-10.57,1.34.15,2.5-1.26,2.5-2.5,0-1.47-1.15-2.35-2.5-2.5h0Z" style="fill: #1d1d1b; stroke-width: 0px;"/>
  </g>
</svg>