<?xml version="1.0" encoding="UTF-8"?><svg id="visage" xmlns="http://www.w3.org/2000/svg" viewBox="0 0 595.28 841.89"><g id="trompe_LHa"><path d="M356.43,292.35c-8.08,1.19-13.72,7.6-14.83,16.69-1.23,10.04,3,21.2,6.91,23.72" style="fill:#6c3; stroke:#1d1d1b; stroke-miterlimit:10; stroke-width:4px;"/><path d="M255.34,260.15c-2.7,5-1.62,15.08-1.32,17.62,1.32,11.11,24.79,13.11,30.26,15.24,24.27,9.47,46.54,23.53,49.19,26.76,2.23,2.72,6.22,6.35,9.7,9.33,5.26,4.51,11.95,7.13,18.81,7.05,1.72-.02,3.44-.28,5.11-.7.99-.24,2.03-.55,2.64-.88,8.92-4.77,11.2-10.11,11.87-15.3.7-5.38-1.68-13.35-3.63-16.14-2.11-3.02-4.42-5.88-7.64-7.66-5.57-3.08-13.82-5.69-22.04.29-17.76,12.92-53.06-11.24-63.83-32.17-2.82-5.48-4.46-12.04-9.7-13.28-5.74-1.35-13.98-.19-19.4,9.83Z" style="fill:#66b32e; stroke:#1d1d1b; stroke-miterlimit:10; stroke-width:4px;"/><path d="M361.72,301.61c-3.9.18-6.6,5.63-7.5,8.82-1.9,6.73.88,15.41,5.11,16,4.35.62,10.88-7.21,10.35-14.5-.36-4.81-3.88-10.5-7.96-10.32Z" style="fill:#fff; stroke:#1d1d1b; stroke-miterlimit:10; stroke-width:4px;"/></g></svg>