<?xml version="1.0" encoding="UTF-8"?>
<svg id="Visage" xmlns="http://www.w3.org/2000/svg" viewBox="0 0 595.28 841.89">
  <g id="nez">
    <path d="M257.67,247.35c-.02,5.38.07,9.4.22,12.7.05,1.08.14,2.71-.88,4.16-1.04,1.48-2.49,1.26-5.36,2.52-1.69.74-3.99,1.74-5.58,3.72-1.52,1.89-2.48,4.76-1.97,7.34.84,4.25,5.7,7.78,11.82,7.66" style="fill: none; stroke: #000; stroke-miterlimit: 10; stroke-width: 3px;"/>
    <path d="M274,247.35c.02,5.38-.07,9.4-.22,12.7-.05,1.08-.14,2.71.88,4.16,1.04,1.48,2.49,1.26,5.36,2.52,1.69.74,3.99,1.74,5.58,3.72,1.52,1.89,2.48,4.76,1.97,7.34-.84,4.25-5.7,7.78-11.82,7.66" style="fill: none; stroke: #000; stroke-miterlimit: 10; stroke-width: 3px;"/>
    <path d="M255.81,280.9c-1.12.34-2.25-.19-2.63-1.09-.38-.92.14-1.93.77-2.41,1.01-.77,2.43-.29,2.63-.22,2.64.95,2.09,4.5,4.93,6.9.87.73,2.22,1.5,4.38,1.75" style="fill: none; stroke: #000; stroke-miterlimit: 10; stroke-width: 3px;"/>
    <path d="M275.52,280.9c1.12.34,2.25-.19,2.63-1.09.38-.92-.14-1.93-.77-2.41-1.01-.77-2.43-.29-2.63-.22-2.64.95-2.09,4.5-4.93,6.9-.87.73-2.22,1.5-4.38,1.75" style="fill: none; stroke: #000; stroke-miterlimit: 10; stroke-width: 3px;"/>
    <path d="M259.88,293.35c.98,2.78,3.66,4.55,6.47,4.34,2.49-.18,4.68-1.9,5.53-4.34" style="fill: none; stroke: #000; stroke-miterlimit: 10; stroke-width: 4px;"/>
  </g>
</svg>