<?xml version="1.0" encoding="UTF-8"?>
<svg id="Visage" xmlns="http://www.w3.org/2000/svg" viewBox="0 0 595.28 841.89">
  <g id="museau">
    <path d="M264.82,247.36c10.86-.81,22.54,9.87,21.79,21.18-.67,10.13-11.11,17.56-20.24,17.49-8.92-.07-19.85-7.33-20.24-18.42-.38-10.93,9.71-19.59,18.68-20.26Z" style="fill: none; stroke: #1d1d1b; stroke-miterlimit: 10; stroke-width: 4px;"/>
    <path d="M258.53,262.39c2.41-.18,5,2.19,4.83,4.7-.15,2.25-2.46,3.89-4.49,3.88-1.98-.02-4.4-1.62-4.49-4.08-.08-2.42,2.15-4.34,4.14-4.49Z" style="fill: none; stroke: #1d1d1b; stroke-miterlimit: 10; stroke-width: 4px;"/>
    <path d="M274.3,262.39c2.41-.18,5,2.19,4.83,4.7-.15,2.25-2.46,3.89-4.49,3.88-1.98-.02-4.4-1.62-4.49-4.08-.08-2.42,2.15-4.34,4.14-4.49Z" style="fill: none; stroke: #1d1d1b; stroke-miterlimit: 10; stroke-width: 4px;"/>
  </g>
</svg>