<?xml version="1.0" encoding="UTF-8"?>
<svg id="yeux" xmlns="http://www.w3.org/2000/svg" viewBox="0 0 595.28 841.89">
  <g id="_3" data-name="3">
    <path d="m228.16,201.09c-2.6.68-5.32,1.58-7.08,3.74s-2.2,5.2-1.43,7.9c1.53,5.38,7.39,9,12.43,10.62s10.87.92,14.68-2.92,4.04-9.76,1.22-14.12c-3.31-5.11-9.96-6.87-15.62-5.06-3.05.97-1.75,5.8,1.33,4.82s6.83-.61,9.22,1.84c2.07,2.13,2.7,5.68,1,8.19-1.81,2.67-5.51,3.49-8.52,2.94-3.58-.66-7.76-2.76-9.95-5.76-.97-1.33-1.61-3.26-.8-4.81.87-1.67,3.22-2.11,4.87-2.54,3.11-.82,1.79-5.64-1.33-4.82h0Z" style="fill: #1d1d1b; stroke-width: 0px;"/>
    <path d="m234.26,213.86c.65.26,1.32.45,2,.56.88.15,1.77.24,2.67.2.45,0,.87-.12,1.26-.34.38-.22.67-.52.9-.9.27-.63.37-.83.41-1.52.02-.33-.04-.66-.11-.97-.14-.62-.5-1.15-.91-1.62-.83-.95-2.32-1.38-3.52-.99-.62.2-1.16.58-1.49,1.15-.31.54-.45,1.33-.25,1.93s.57,1.19,1.15,1.49,1.28.46,1.93.25c.06-.02.13-.03.19-.04l-.66.09c.06,0,.13,0,.19,0l-.66-.09c.1.01.19.04.28.08l-.6-.25c.09.04.17.09.25.15l-.51-.39c.09.07.17.15.24.25l-.39-.51c.06.08.11.16.15.25l-.25-.6c.04.09.06.18.08.28l-.09-.66c0,.08,0,.16,0,.24l.09-.66c-.01.06-.03.13-.05.19l.25-.6-.02.05,2.16-1.24c-.57.03-1.14,0-1.71-.07l.66.09c-.79-.11-1.56-.31-2.3-.6-.33-.1-.66-.12-1-.04-.33.02-.64.11-.93.3-.52.3-1.01.9-1.15,1.49-.15.64-.11,1.36.25,1.93l.39.51c.31.31.68.52,1.1.64h0Z" style="fill: #1d1d1b; stroke-width: 0px;"/>
    <path d="m306.51,212.88c-5.09-.59-10.14,3.14-10.99,8.21s1.81,9.57,6.38,11.57c3.98,1.74,8.72,1.93,12.99,1.3,5.32-.78,6.29-7.35,5.44-11.71-.95-4.81-4.43-8.88-9.03-10.54-1.27-.46-2.74.52-3.08,1.75-.38,1.39.47,2.62,1.75,3.08-.05-.02.69.28.38.14s.41.21.36.19c.32.17.64.35.94.56.17.11.34.23.49.35-.09-.07-.28-.26.06.06.3.28.6.54.88.84.14.15.27.3.4.45.07.08.37.49.14.16.22.3.42.6.61.92s.36.64.52.97c.07.15.14.29.21.44-.17-.41.12.34.14.43.54,1.62.64,2.38.49,4.13-.04.45.13-.57-.02.18-.03.16-.06.32-.1.48-.08.36-.19.71-.3,1.05s-.12.37-.36.75c-.44.71.12-.1-.19.25-.21.24.24-.05-.08.06-.68.22-1.27.2-2.13.25-.81.04-1.63.06-2.44.04-1.84-.04-2.76-.11-4.51-.59-.32-.09-.63-.18-.94-.29.05.02-.69-.27-.38-.14s-.4-.19-.36-.17c-.32-.16-.63-.33-.93-.52-.16-.1-.33-.21-.48-.33.34.25-.14-.13-.22-.2-.95-.87-1.68-2.07-1.79-3.34-.16-1.81.37-3.29,1.63-4.46s2.73-1.51,4.52-1.3c1.34.15,2.5-1.26,2.5-2.5,0-1.48-1.15-2.34-2.5-2.5h0Z" style="fill: #1d1d1b; stroke-width: 0px;"/>
    <path d="m307.22,224.09c3.22,0,3.22-5,0-5s-3.22,5,0,5h0Z" style="fill: #1d1d1b; stroke-width: 0px;"/>
    <path d="m272.96,203.7c-5.53-.44-8.62,5.9-8.13,10.63s3.77,9.42,8.66,10.81c4.53,1.28,9.88-.17,12.87-3.87,3.2-3.96,3.88-9.9.75-14.12-3.01-4.07-8.63-6.27-13.52-4.47-1.27.47-2.13,1.69-1.75,3.08.33,1.22,1.8,2.22,3.08,1.75.38-.14.76-.26,1.15-.35.15-.03.31-.06.47-.09-.54.08.23,0,.28,0,.32-.01.63-.01.95,0,.06,0,.82.11.28.02.24.04.47.09.7.14.35.09.69.2,1.03.31.1.04.57.25.18.07.15.07.29.14.43.21.36.18.7.39,1.03.62.13.09.27.18.39.28-.35-.28.17.16.23.22.29.27.56.56.83.86.32.37.11.15.05.06.11.16.22.33.33.5.19.3.36.62.5.94-.18-.4.02.08.05.18.08.29.16.57.23.86s.07.32.09.75c.02.47.02.96-.04,1.43.04-.3-.03.17-.04.18-.06.28-.12.56-.2.83-.13.44-.24.73-.37,1-1.44,2.97-4.21,4.23-7.29,4.03-1.13-.07-2.73-.64-3.61-1.37-1.18-.98-2.02-2.26-2.42-3.51-.13-.42-.23-.84-.32-1.27-.17-.76,0,.41-.05-.37-.02-.26-.03-.52-.03-.78,0-.97.03-1.36.42-2.41-.04.1-.18.34.06-.14.12-.24.25-.47.4-.7.13-.21.35-.48.72-.83.32-.3-.44.23.21-.17.01,0,.69-.36.31-.21.15-.06.32-.1.48-.15-.25.01-.22,0,.08,0,.17,0,.34,0,.52.02,1.35.11,2.5-1.23,2.5-2.5,0-1.44-1.15-2.39-2.5-2.5h0Z" style="fill: #1d1d1b; stroke-width: 0px;"/>
    <path d="m276.81,215.99c3.22,0,3.22-5,0-5s-3.22,5,0,5h0Z" style="fill: #1d1d1b; stroke-width: 0px;"/>
  </g>
</svg>