<?xml version="1.0" encoding="UTF-8"?>
<svg id="yeux" xmlns="http://www.w3.org/2000/svg" viewBox="0 0 595.28 841.89">
  <g id="_2" data-name="2">
    <path d="m223.67,218.87c1.26-1.97,2.75-3.74,4.45-5.34,1.57-1.47,3.54-3.24,5.6-3.95,1.74-.6,3.08,1.25,3.9,2.63,1.26,2.13,2.26,4.44,4.21,6.07l3.03-3.93c-3.98-2.64-6.47-8.02-11.66-9.22-6.28-1.45-11.33,3.68-13.66,8.97-.54,1.23-.36,2.68.9,3.42s2.66.22,3.42-.9c1.77-2.6,4.3-6.14,7.54-6.09s5.49,3.76,7.11,6.39,6.01.23,4.32-2.52c-2.57-4.17-6.04-8.77-11.43-8.86s-9.1,4.53-11.85,8.56l4.32,2.52c.91-2.06,2.14-4.15,3.94-5.54,1.63-1.26,3.36-1.58,5.12-.8.42.18,1.44.89,1.9,1.3.8.71,1.54,1.49,2.27,2.28,1.63,1.75,3.24,3.48,5.25,4.81,2.33,1.55,5.22-2.1,3.03-3.93s-2.95-4.67-4.66-6.83c-1.93-2.44-4.8-4.02-7.97-3.25-2.83.69-5.5,2.95-7.62,4.85-2.23,1.99-4.15,4.33-5.77,6.84-1.74,2.72,2.58,5.23,4.32,2.52h0Z" style="fill: #1d1d1b; stroke-width: 0px;"/>
    <path d="m285.55,217.09c4.94-1.56,8.9-6.28,14.28-5.9,3.93.28,7.83,3.12,9,6.99l4.82-1.33c-1.66-5.36-6.18-9.81-11.74-10.98s-11.84.86-15.53,5.36c-1.43,1.74-.46,4.04,1.77,4.27,4.6.46,8.22-3.3,12.71-3.69,3.32-.29,7.17,1.05,8.32,4.49,1.01,3.04,5.85,1.73,4.82-1.33-1.6-4.8-6.04-7.73-10.98-8.15-2.59-.22-5.28.32-7.67,1.28s-4.6,2.67-7.19,2.41l1.77,4.27c2.53-3.08,6.66-4.92,10.66-4.07s7.08,3.71,8.25,7.49c.95,3.06,5.76,1.76,4.82-1.33-1.66-5.45-6.58-9.58-12.19-10.47-3.11-.49-6.04-.01-8.88,1.34s-5.31,3.58-8.37,4.55-1.75,5.79,1.33,4.82h0Z" style="fill: #1d1d1b; stroke-width: 0px;"/>
  </g>
</svg>