<?xml version="1.0" encoding="UTF-8"?>
<svg id="Yeux" xmlns="http://www.w3.org/2000/svg" viewBox="0 0 595.28 841.89">
  <g id="_4" data-name="4">
    <path d="M236.27,189.05c2.39-1.91,11.08,3.84,16.29,10.86,4.3,5.81,7.69,14.47,5.43,16.29-2.39,1.91-11.08-3.84-16.29-10.86-4.3-5.81-7.69-14.47-5.43-16.29Z" style="fill: #66b32e; stroke: #1d1d1b; stroke-miterlimit: 10; stroke-width: 4px;"/>
    <path d="M293.45,189.42c-2.39-1.91-11.08,3.84-16.29,10.86-4.3,5.81-7.69,14.47-5.43,16.29,2.39,1.91,11.08-3.84,16.29-10.86,4.3-5.81,7.69-14.47,5.43-16.29Z" style="fill: #66b32e; stroke: #1d1d1b; stroke-miterlimit: 10; stroke-width: 4px;"/>
    <path d="M242.74,197.49c-1.27,1.27-1.27,3.37,0,4.64s3.37,1.27,4.64,0,1.27-3.37,0-4.64-3.37-1.27-4.64,0Z" style="fill: #000; stroke-width: 0px;"/>
    <path d="M238.96,192.59c-.9.9-.9,2.38,0,3.27s2.38.9,3.27,0,.9-2.38,0-3.27-2.38-.9-3.27,0Z" style="fill: #000; stroke-width: 0px;"/>
    <path d="M287.22,197.49c1.3,1.27,1.3,3.37,0,4.64s-3.43,1.27-4.73,0-1.3-3.37,0-4.64,3.43-1.27,4.73,0Z" style="fill: #000; stroke-width: 0px;"/>
    <path d="M291.08,192.59c.92.9.92,2.38,0,3.27s-2.42.9-3.34,0-.92-2.38,0-3.27,2.42-.9,3.34,0Z" style="fill: #000; stroke-width: 0px;"/>
    <path d="M236.34,213.15c2.39-1.91,11.08,3.84,16.29,10.86,4.3,5.81,7.69,14.47,5.43,16.29-2.39,1.91-11.08-3.84-16.29-10.86-4.3-5.81-7.69-14.47-5.43-16.29Z" style="fill: #66b32e; stroke: #1d1d1b; stroke-miterlimit: 10; stroke-width: 4px;"/>
    <path d="M293.52,213.53c-2.39-1.91-11.08,3.84-16.29,10.86-4.3,5.81-7.69,14.47-5.43,16.29,2.39,1.91,11.08-3.84,16.29-10.86,4.3-5.81,7.69-14.47,5.43-16.29Z" style="fill: #66b32e; stroke: #1d1d1b; stroke-miterlimit: 10; stroke-width: 4px;"/>
    <path d="M242.81,221.59c-1.27,1.27-1.27,3.37,0,4.64s3.37,1.27,4.64,0,1.27-3.37,0-4.64-3.37-1.27-4.64,0Z" style="fill: #000; stroke-width: 0px;"/>
    <path d="M239.03,216.69c-.9.9-.9,2.38,0,3.27s2.38.9,3.27,0,.9-2.38,0-3.27-2.38-.9-3.27,0Z" style="fill: #000; stroke-width: 0px;"/>
    <path d="M287.28,221.59c1.3,1.27,1.3,3.37,0,4.64s-3.43,1.27-4.73,0-1.3-3.37,0-4.64,3.43-1.27,4.73,0Z" style="fill: #000; stroke-width: 0px;"/>
    <path d="M291.14,216.69c.92.9.92,2.38,0,3.27s-2.42.9-3.34,0-.92-2.38,0-3.27,2.42-.9,3.34,0Z" style="fill: #000; stroke-width: 0px;"/>
  </g>
</svg>