<?xml version="1.0" encoding="UTF-8"?>
<svg id="Yeux" xmlns="http://www.w3.org/2000/svg" viewBox="0 0 595.28 841.89">
  <g id="_5" data-name="5">
    <path d="M231.69,224.06c4.78,5.09,15.86,5.09,20.63,0,8.11-8.63-2.86-30.95-10.32-30.95s-18.42,22.31-10.32,30.95Z" style="fill: #66b32e; stroke: #000; stroke-miterlimit: 10; stroke-width: 4px;"/>
    <path d="M237.11,205.9c-2.42,2.42-2.42,6.4,0,8.81s6.4,2.42,8.81,0c2.42-2.42,2.42-6.4,0-8.81s-6.4-2.42-8.81,0Z" style="fill: #000; stroke-width: 0px;"/>
    <path d="M296.44,224.06c-4.78,5.09-15.86,5.09-20.63,0-8.11-8.63,2.86-30.95,10.32-30.95,7.45,0,18.42,22.31,10.32,30.95Z" style="fill: #66b32e; stroke: #000; stroke-miterlimit: 10; stroke-width: 4px;"/>
    <path d="M291.02,205.9c2.42,2.42,2.42,6.4,0,8.81-2.42,2.42-6.4,2.42-8.81,0s-2.42-6.4,0-8.81,6.4-2.42,8.81,0Z" style="fill: #000; stroke-width: 0px;"/>
    <path d="M269.14,199.28c-2.54,2.71-8.44,2.71-10.98,0-4.32-4.6,1.53-16.48,5.49-16.48,3.97,0,9.81,11.88,5.49,16.48Z" style="fill: #66b32e; stroke: #000; stroke-miterlimit: 10; stroke-width: 4px;"/>
    <path d="M266.25,189.61c1.29,1.29,1.29,3.4,0,4.69s-3.4,1.29-4.69,0-1.29-3.4,0-4.69,3.4-1.29,4.69,0Z" style="fill: #000; stroke-width: 0px;"/>
    <path d="M315.48,232.6c-2.54,2.71-8.44,2.71-10.98,0-4.32-4.6,1.53-16.48,5.49-16.48,3.97,0,9.81,11.88,5.49,16.48Z" style="fill: #66b32e; stroke: #000; stroke-miterlimit: 10; stroke-width: 4px;"/>
    <path d="M312.59,222.93c1.29,1.29,1.29,3.4,0,4.69s-3.4,1.29-4.69,0-1.29-3.4,0-4.69,3.4-1.29,4.69,0Z" style="fill: #000; stroke-width: 0px;"/>
    <path d="M222.8,232.6c-2.54,2.71-8.44,2.71-10.98,0-4.32-4.6,1.53-16.48,5.49-16.48,3.97,0,9.81,11.88,5.49,16.48Z" style="fill: #66b32e; stroke: #000; stroke-miterlimit: 10; stroke-width: 4px;"/>
    <path d="M219.91,222.93c1.29,1.29,1.29,3.4,0,4.69s-3.4,1.29-4.69,0-1.29-3.4,0-4.69,3.4-1.29,4.69,0Z" style="fill: #000; stroke-width: 0px;"/>
  </g>
</svg>