<?xml version="1.0" encoding="UTF-8"?>
<svg id="Yeux" xmlns="http://www.w3.org/2000/svg" viewBox="0 0 595.28 841.89">
  <g id="_2" data-name="2">
    <path d="M222.88,190.81c3.64-2.91,16.84,5.83,24.75,16.5,6.54,8.82,11.69,21.99,8.25,24.75-3.64,2.91-16.84-5.83-24.75-16.5-6.54-8.82-11.69-21.99-8.25-24.75Z" style="fill: #66b32e; stroke: #1d1d1b; stroke-miterlimit: 10; stroke-width: 4px;"/>
    <path d="M309.77,191.38c-3.64-2.91-16.84,5.83-24.75,16.5-6.54,8.82-11.69,21.99-8.25,24.75,3.64,2.91,16.84-5.83,24.75-16.5,6.54-8.82,11.69-21.99,8.25-24.75Z" style="fill: #66b32e; stroke: #1d1d1b; stroke-miterlimit: 10; stroke-width: 4px;"/>
    <path d="M232.72,203.63c-1.93,1.93-1.93,5.11,0,7.05s5.11,1.93,7.05,0,1.93-5.11,0-7.05-5.11-1.93-7.05,0Z" style="fill: #000; stroke-width: 0px;"/>
    <path d="M226.97,196.18c-1.36,1.36-1.36,3.61,0,4.97s3.61,1.36,4.97,0,1.36-3.61,0-4.97-3.61-1.36-4.97,0Z" style="fill: #000; stroke-width: 0px;"/>
    <path d="M300.29,203.63c1.97,1.93,1.97,5.11,0,7.05s-5.22,1.93-7.19,0-1.97-5.11,0-7.05,5.22-1.93,7.19,0Z" style="fill: #000; stroke-width: 0px;"/>
    <path d="M306.16,196.18c1.39,1.36,1.39,3.61,0,4.97s-3.68,1.36-5.08,0-1.39-3.61,0-4.97,3.68-1.36,5.08,0Z" style="fill: #000; stroke-width: 0px;"/>
  </g>
</svg>