<?xml version="1.0" encoding="UTF-8"?>
<svg id="Yeux" xmlns="http://www.w3.org/2000/svg" viewBox="0 0 595.28 841.89">
  <g id="_8" data-name="8">
    <g>
      <path d="M234.73,207.03h-15.08c-1.61,0-2.85-1.53-2.41-3.08,1.01-3.58,3.77-6.81,7.82-9.03,2.75-1.51,5.97-2.48,9.34-2.82,1.48-.15,2.77.97,2.78,2.46l.03,9.99c0,1.37-1.11,2.49-2.48,2.49Z" style="fill: #66b32e; stroke: #1d1d1b; stroke-miterlimit: 10; stroke-width: 2px;"/>
      <path d="M244.36,207.03h15.08c1.61,0,2.85-1.53,2.41-3.08-1.01-3.58-3.77-6.81-7.82-9.03-2.75-1.51-5.97-2.48-9.34-2.82-1.48-.15-2.77.97-2.78,2.46l-.03,9.99c0,1.37,1.11,2.49,2.48,2.49Z" style="fill: #66b32e; stroke: #1d1d1b; stroke-miterlimit: 10; stroke-width: 2px;"/>
      <path d="M234.73,211h-15.08c-1.61,0-2.85,1.53-2.41,3.08,1.01,3.58,3.77,6.81,7.82,9.03,2.75,1.51,5.97,2.48,9.34,2.82,1.48.15,2.77-.97,2.78-2.46l.03-9.99c0-1.37-1.11-2.49-2.48-2.49Z" style="fill: #66b32e; stroke: #1d1d1b; stroke-miterlimit: 10; stroke-width: 2px;"/>
      <path d="M244.36,211h15.08c1.61,0,2.85,1.53,2.41,3.08-1.01,3.58-3.77,6.81-7.82,9.03-2.75,1.51-5.97,2.48-9.34,2.82-1.48.15-2.77-.97-2.78-2.46l-.03-9.99c0-1.37,1.11-2.49,2.48-2.49Z" style="fill: #66b32e; stroke: #1d1d1b; stroke-miterlimit: 10; stroke-width: 2px;"/>
      <path d="M236.12,207.03h-6.67c-.71,0-1.26-.68-1.07-1.36.45-1.58,1.67-3.01,3.46-4,1.22-.67,2.64-1.1,4.13-1.25.65-.07,1.23.43,1.23,1.09v4.42c.02.61-.48,1.1-1.08,1.1Z" style="fill: #000; stroke: #1d1d1b; stroke-miterlimit: 10; stroke-width: 2px;"/>
      <path d="M236.12,211h-6.67c-.71,0-1.26.68-1.07,1.36.45,1.58,1.67,3.01,3.46,4,1.22.67,2.64,1.1,4.13,1.25.65.07,1.23-.43,1.23-1.09v-4.42c.02-.61-.48-1.1-1.08-1.1Z" style="fill: #000; stroke: #1d1d1b; stroke-miterlimit: 10; stroke-width: 2px;"/>
      <path d="M242.98,207.03h6.67c.71,0,1.26-.68,1.07-1.36-.45-1.58-1.67-3.01-3.46-4-1.22-.67-2.64-1.1-4.13-1.25-.65-.07-1.23.43-1.23,1.09v4.42c-.02.61.48,1.1,1.08,1.1Z" style="fill: #000; stroke: #1d1d1b; stroke-miterlimit: 10; stroke-width: 2px;"/>
      <path d="M242.98,211h6.67c.71,0,1.26.68,1.07,1.36-.45,1.58-1.67,3.01-3.46,4-1.22.67-2.64,1.1-4.13,1.25-.65.07-1.23-.43-1.23-1.09v-4.42c-.02-.61.48-1.1,1.08-1.1Z" style="fill: #000; stroke: #1d1d1b; stroke-miterlimit: 10; stroke-width: 2px;"/>
    </g>
    <g>
      <path d="M287.33,207.03h-15.08c-1.61,0-2.85-1.53-2.41-3.08,1.01-3.58,3.77-6.81,7.82-9.03,2.75-1.51,5.97-2.48,9.34-2.82,1.48-.15,2.77.97,2.78,2.46l.03,9.99c0,1.37-1.11,2.49-2.48,2.49Z" style="fill: #66b32e; stroke: #1d1d1b; stroke-miterlimit: 10; stroke-width: 2px;"/>
      <path d="M296.96,207.03h15.08c1.61,0,2.85-1.53,2.41-3.08-1.01-3.58-3.77-6.81-7.82-9.03-2.75-1.51-5.97-2.48-9.34-2.82-1.48-.15-2.77.97-2.78,2.46l-.03,9.99c0,1.37,1.11,2.49,2.48,2.49Z" style="fill: #66b32e; stroke: #1d1d1b; stroke-miterlimit: 10; stroke-width: 2px;"/>
      <path d="M287.33,211h-15.08c-1.61,0-2.85,1.53-2.41,3.08,1.01,3.58,3.77,6.81,7.82,9.03,2.75,1.51,5.97,2.48,9.34,2.82,1.48.15,2.77-.97,2.78-2.46l.03-9.99c0-1.37-1.11-2.49-2.48-2.49Z" style="fill: #66b32e; stroke: #1d1d1b; stroke-miterlimit: 10; stroke-width: 2px;"/>
      <path d="M296.96,211h15.08c1.61,0,2.85,1.53,2.41,3.08-1.01,3.58-3.77,6.81-7.82,9.03-2.75,1.51-5.97,2.48-9.34,2.82-1.48.15-2.77-.97-2.78-2.46l-.03-9.99c0-1.37,1.11-2.49,2.48-2.49Z" style="fill: #66b32e; stroke: #1d1d1b; stroke-miterlimit: 10; stroke-width: 2px;"/>
      <path d="M288.71,207.03h-6.67c-.71,0-1.26-.68-1.07-1.36.45-1.58,1.67-3.01,3.46-4,1.22-.67,2.64-1.1,4.13-1.25.65-.07,1.23.43,1.23,1.09v4.42c.02.61-.48,1.1-1.08,1.1Z" style="fill: #000; stroke: #1d1d1b; stroke-miterlimit: 10; stroke-width: 2px;"/>
      <path d="M288.71,211h-6.67c-.71,0-1.26.68-1.07,1.36.45,1.58,1.67,3.01,3.46,4,1.22.67,2.64,1.1,4.13,1.25.65.07,1.23-.43,1.23-1.09v-4.42c.02-.61-.48-1.1-1.08-1.1Z" style="fill: #000; stroke: #1d1d1b; stroke-miterlimit: 10; stroke-width: 2px;"/>
      <path d="M295.58,207.03h6.67c.71,0,1.26-.68,1.07-1.36-.45-1.58-1.67-3.01-3.46-4-1.22-.67-2.64-1.1-4.13-1.25-.65-.07-1.23.43-1.23,1.09v4.42c-.02.61.48,1.1,1.08,1.1Z" style="fill: #000; stroke: #1d1d1b; stroke-miterlimit: 10; stroke-width: 2px;"/>
      <path d="M295.58,211h6.67c.71,0,1.26.68,1.07,1.36-.45,1.58-1.67,3.01-3.46,4-1.22.67-2.64,1.1-4.13,1.25-.65.07-1.23-.43-1.23-1.09v-4.42c-.02-.61.48-1.1,1.08-1.1Z" style="fill: #000; stroke: #1d1d1b; stroke-miterlimit: 10; stroke-width: 2px;"/>
    </g>
  </g>
</svg>