<?xml version="1.0" encoding="UTF-8"?>
<svg id="Yeux" xmlns="http://www.w3.org/2000/svg" viewBox="0 0 595.28 841.89">
  <g id="_9" data-name="9">
    <g>
      <path d="M265.78,203.36c4.72,0,8.6,3.88,8.6,8.6s-3.88,8.6-8.6,8.6-8.6-3.88-8.6-8.6,3.88-8.6,8.6-8.6Z" style="fill: #66b32e; stroke: #1d1d1b; stroke-miterlimit: 10;"/>
      <path d="M265.78,207.77c-2.28,0-4.15,1.87-4.15,4.15s1.87,4.15,4.15,4.15,4.15-1.87,4.15-4.15-1.87-4.15-4.15-4.15Z" style="fill: #000; stroke: #1d1d1b; stroke-miterlimit: 10;"/>
    </g>
    <g>
      <g>
        <path d="M292.42,209.82h-13.17c-1.41,0-2.49-1.34-2.1-2.69.89-3.13,3.29-5.95,6.83-7.89,2.41-1.32,5.21-2.16,8.15-2.46,1.29-.13,2.42.85,2.43,2.15l.03,8.73c0,1.2-.97,2.17-2.17,2.17Z" style="fill: #66b32e; stroke: #1d1d1b; stroke-miterlimit: 10;"/>
        <path d="M300.83,209.82h13.17c1.41,0,2.49-1.34,2.1-2.69-.89-3.13-3.29-5.95-6.83-7.89-2.41-1.32-5.21-2.16-8.15-2.46-1.29-.13-2.42.85-2.43,2.15l-.03,8.73c0,1.2.97,2.17,2.17,2.17Z" style="fill: #66b32e; stroke: #1d1d1b; stroke-miterlimit: 10;"/>
        <path d="M292.42,213.3h-13.17c-1.41,0-2.49,1.34-2.1,2.69.89,3.13,3.29,5.95,6.83,7.89,2.41,1.32,5.21,2.16,8.15,2.46,1.29.13,2.42-.85,2.43-2.15l.03-8.73c0-1.2-.97-2.17-2.17-2.17Z" style="fill: #66b32e; stroke: #1d1d1b; stroke-miterlimit: 10;"/>
        <path d="M300.83,213.3h13.17c1.41,0,2.49,1.34,2.1,2.69-.89,3.13-3.29,5.95-6.83,7.89-2.41,1.32-5.21,2.16-8.15,2.46-1.29.13-2.42-.85-2.43-2.15l-.03-8.73c0-1.2.97-2.17,2.17-2.17Z" style="fill: #66b32e; stroke: #1d1d1b; stroke-miterlimit: 10;"/>
        <path d="M293.63,209.82h-5.83c-.62,0-1.1-.59-.93-1.19.39-1.38,1.46-2.63,3.02-3.49,1.06-.58,2.31-.96,3.61-1.09.57-.06,1.07.38,1.07.95v3.86c.01.53-.42.96-.95.96Z" style="fill: #000; stroke: #1d1d1b; stroke-miterlimit: 10;"/>
        <path d="M293.63,213.3h-5.83c-.62,0-1.1.59-.93,1.19.39,1.38,1.46,2.63,3.02,3.49,1.06.58,2.31.96,3.61,1.09.57.06,1.07-.38,1.07-.95v-3.86c.01-.53-.42-.96-.95-.96Z" style="fill: #000; stroke: #1d1d1b; stroke-miterlimit: 10;"/>
        <path d="M299.62,209.82h5.83c.62,0,1.1-.59.93-1.19-.39-1.38-1.46-2.63-3.02-3.49-1.06-.58-2.31-.96-3.61-1.09-.57-.06-1.07.38-1.07.95v3.86c-.01.53.42.96.95.96Z" style="fill: #000; stroke: #1d1d1b; stroke-miterlimit: 10;"/>
        <path d="M299.62,213.3h5.83c.62,0,1.1.59.93,1.19-.39,1.38-1.46,2.63-3.02,3.49-1.06.58-2.31.96-3.61,1.09-.57.06-1.07-.38-1.07-.95v-3.86c-.01-.53.42-.96.95-.96Z" style="fill: #000; stroke: #1d1d1b; stroke-miterlimit: 10;"/>
      </g>
      <g>
        <path d="M230.72,209.82h-13.17c-1.41,0-2.49-1.34-2.1-2.69.89-3.13,3.29-5.95,6.83-7.89,2.41-1.32,5.21-2.16,8.15-2.46,1.29-.13,2.42.85,2.43,2.15l.03,8.73c0,1.2-.97,2.17-2.17,2.17Z" style="fill: #66b32e; stroke: #1d1d1b; stroke-miterlimit: 10;"/>
        <path d="M239.13,209.82h13.17c1.41,0,2.49-1.34,2.1-2.69-.89-3.13-3.29-5.95-6.83-7.89-2.41-1.32-5.21-2.16-8.15-2.46-1.29-.13-2.42.85-2.43,2.15l-.03,8.73c0,1.2.97,2.17,2.17,2.17Z" style="fill: #66b32e; stroke: #1d1d1b; stroke-miterlimit: 10;"/>
        <path d="M230.72,213.3h-13.17c-1.41,0-2.49,1.34-2.1,2.69.89,3.13,3.29,5.95,6.83,7.89,2.41,1.32,5.21,2.16,8.15,2.46,1.29.13,2.42-.85,2.43-2.15l.03-8.73c0-1.2-.97-2.17-2.17-2.17Z" style="fill: #66b32e; stroke: #1d1d1b; stroke-miterlimit: 10;"/>
        <path d="M239.13,213.3h13.17c1.41,0,2.49,1.34,2.1,2.69-.89,3.13-3.29,5.95-6.83,7.89-2.41,1.32-5.21,2.16-8.15,2.46-1.29.13-2.42-.85-2.43-2.15l-.03-8.73c0-1.2.97-2.17,2.17-2.17Z" style="fill: #66b32e; stroke: #1d1d1b; stroke-miterlimit: 10;"/>
        <path d="M231.93,209.82h-5.83c-.62,0-1.1-.59-.93-1.19.39-1.38,1.46-2.63,3.02-3.49,1.06-.58,2.31-.96,3.61-1.09.57-.06,1.07.38,1.07.95v3.86c.01.53-.42.96-.95.96Z" style="fill: #000; stroke: #1d1d1b; stroke-miterlimit: 10;"/>
        <path d="M231.93,213.3h-5.83c-.62,0-1.1.59-.93,1.19.39,1.38,1.46,2.63,3.02,3.49,1.06.58,2.31.96,3.61,1.09.57.06,1.07-.38,1.07-.95v-3.86c.01-.53-.42-.96-.95-.96Z" style="fill: #000; stroke: #1d1d1b; stroke-miterlimit: 10;"/>
        <path d="M237.92,209.82h5.83c.62,0,1.1-.59.93-1.19-.39-1.38-1.46-2.63-3.02-3.49-1.06-.58-2.31-.96-3.61-1.09-.57-.06-1.07.38-1.07.95v3.86c-.01.53.42.96.95.96Z" style="fill: #000; stroke: #1d1d1b; stroke-miterlimit: 10;"/>
        <path d="M237.92,213.3h5.83c.62,0,1.1.59.93,1.19-.39,1.38-1.46,2.63-3.02,3.49-1.06.58-2.31.96-3.61,1.09-.57.06-1.07-.38-1.07-.95v-3.86c-.01-.53.42-.96.95-.96Z" style="fill: #000; stroke: #1d1d1b; stroke-miterlimit: 10;"/>
      </g>
    </g>
  </g>
</svg>