<?xml version="1.0" encoding="UTF-8"?>
<svg id="Yeux" xmlns="http://www.w3.org/2000/svg" viewBox="0 0 595.28 841.89">
  <g id="_1" data-name="1">
    <path d="M265.77,183.76c14.81,0,27,12.19,27,27s-12.19,27-27,27-27-12.19-27-27,12.19-27,27-27Z" style="fill: #f8f9f7; stroke: #1d1d1b; stroke-miterlimit: 10; stroke-width: 4px;"/>
    <path d="M265.77,192.2c10.24,0,18.67,8.43,18.67,18.67s-8.43,18.67-18.67,18.67-18.67-8.43-18.67-18.67,8.43-18.67,18.67-18.67Z" style="fill: #66b32e; stroke: #1d1d1b; stroke-miterlimit: 10; stroke-width: 4px;"/>
    <path d="M265.77,201.76c-4.94,0-9,4.06-9,9s4.06,9,9,9,9-4.06,9-9-4.06-9-9-9Z" style="fill: #000; stroke: #1d1d1b; stroke-miterlimit: 10; stroke-width: 2px;"/>
  </g>
</svg>