<?xml version="1.0" encoding="UTF-8"?>
<svg id="Yeux" xmlns="http://www.w3.org/2000/svg" viewBox="0 0 595.28 841.89">
  <g id="_7" data-name="7">
    <g>
      <g>
        <path d="M266.16,212.12c6.09,0,11.09,5.01,11.09,11.09s-5.01,11.09-11.09,11.09-11.09-5.01-11.09-11.09,5.01-11.09,11.09-11.09Z" style="fill: #66b32e; stroke: #1d1d1b; stroke-miterlimit: 10;"/>
        <path d="M266.16,217.8c-2.93,0-5.35,2.41-5.35,5.35s2.41,5.35,5.35,5.35,5.35-2.41,5.35-5.35-2.41-5.35-5.35-5.35Z" style="fill: #000; stroke: #1d1d1b; stroke-miterlimit: 10;"/>
      </g>
      <g>
        <path d="M265.78,184.09c6.09,0,11.09,5.01,11.09,11.09s-5.01,11.09-11.09,11.09-11.09-5.01-11.09-11.09,5.01-11.09,11.09-11.09Z" style="fill: #66b32e; stroke: #1d1d1b; stroke-miterlimit: 10;"/>
        <path d="M265.78,189.77c-2.93,0-5.35,2.41-5.35,5.35s2.41,5.35,5.35,5.35,5.35-2.41,5.35-5.35-2.41-5.35-5.35-5.35Z" style="fill: #000; stroke: #1d1d1b; stroke-miterlimit: 10;"/>
      </g>
      <g>
        <g>
          <path d="M216.39,219.31c6.09,0,11.09,5.01,11.09,11.09s-5.01,11.09-11.09,11.09-11.09-5.01-11.09-11.09,5.01-11.09,11.09-11.09Z" style="fill: #66b32e; stroke: #1d1d1b; stroke-miterlimit: 10;"/>
          <path d="M216.39,224.99c-2.93,0-5.35,2.41-5.35,5.35s2.41,5.35,5.35,5.35,5.35-2.41,5.35-5.35-2.41-5.35-5.35-5.35Z" style="fill: #000; stroke: #1d1d1b; stroke-miterlimit: 10;"/>
        </g>
        <g>
          <path d="M315.16,218.93c6.09,0,11.09,5.01,11.09,11.09s-5.01,11.09-11.09,11.09-11.09-5.01-11.09-11.09,5.01-11.09,11.09-11.09Z" style="fill: #66b32e; stroke: #1d1d1b; stroke-miterlimit: 10;"/>
          <path d="M315.16,224.61c-2.93,0-5.35,2.41-5.35,5.35s2.41,5.35,5.35,5.35,5.35-2.41,5.35-5.35-2.41-5.35-5.35-5.35Z" style="fill: #000; stroke: #1d1d1b; stroke-miterlimit: 10;"/>
        </g>
      </g>
      <g>
        <g>
          <path d="M236.67,196.95c6.09,0,11.09,5.01,11.09,11.09s-5.01,11.09-11.09,11.09-11.09-5.01-11.09-11.09,5.01-11.09,11.09-11.09Z" style="fill: #66b32e; stroke: #1d1d1b; stroke-miterlimit: 10;"/>
          <path d="M236.67,202.63c-2.93,0-5.35,2.41-5.35,5.35s2.41,5.35,5.35,5.35,5.35-2.41,5.35-5.35-2.41-5.35-5.35-5.35Z" style="fill: #000; stroke: #1d1d1b; stroke-miterlimit: 10;"/>
        </g>
        <g>
          <path d="M294.88,196.95c6.09,0,11.09,5.01,11.09,11.09s-5.01,11.09-11.09,11.09-11.09-5.01-11.09-11.09,5.01-11.09,11.09-11.09Z" style="fill: #66b32e; stroke: #1d1d1b; stroke-miterlimit: 10;"/>
          <path d="M294.88,202.63c-2.93,0-5.35,2.41-5.35,5.35s2.41,5.35,5.35,5.35,5.35-2.41,5.35-5.35-2.41-5.35-5.35-5.35Z" style="fill: #000; stroke: #1d1d1b; stroke-miterlimit: 10;"/>
        </g>
      </g>
    </g>
  </g>
</svg>