<?xml version="1.0" encoding="UTF-8"?>
<svg id="Yeux" xmlns="http://www.w3.org/2000/svg" viewBox="0 0 595.28 841.89">
  <g id="_6" data-name="6">
    <g>
      <path d="M293.24,193.19c-2.3-1.84-10.66,3.69-15.66,10.44-4.14,5.58-7.4,13.92-5.22,15.66,2.3,1.84,10.66-3.69,15.66-10.44,4.14-5.58,7.4-13.92,5.22-15.66Z" style="fill: #66b32e; stroke: #1d1d1b; stroke-miterlimit: 10;"/>
      <path d="M287.24,200.94c1.25,1.22,1.25,3.24,0,4.46s-3.3,1.22-4.55,0-1.25-3.24,0-4.46,3.3-1.22,4.55,0Z" style="fill: #000; stroke: #1d1d1b; stroke-miterlimit: 10;"/>
      <path d="M290.95,196.23c.88.86.88,2.28,0,3.15s-2.33.86-3.21,0-.88-2.28,0-3.15,2.33-.86,3.21,0Z" style="fill: #000; stroke: #1d1d1b; stroke-miterlimit: 10;"/>
    </g>
    <path d="M247.22,185.57c1.55-1.24,7.19,2.49,10.56,7.04,2.79,3.76,4.99,9.38,3.52,10.56-1.55,1.24-7.19-2.49-10.56-7.04-2.79-3.76-4.99-9.38-3.52-10.56Z" style="fill: #66b32e; stroke: #1d1d1b; stroke-miterlimit: 10;"/>
    <path d="M284.29,185.81c-1.55-1.24-7.19,2.49-10.56,7.04-2.79,3.76-4.99,9.38-3.52,10.56,1.55,1.24,7.19-2.49,10.56-7.04,2.79-3.76,4.99-9.38,3.52-10.56Z" style="fill: #66b32e; stroke: #1d1d1b; stroke-miterlimit: 10;"/>
    <path d="M251.41,191.04c-.82.82-.82,2.18,0,3.01s2.18.82,3.01,0,.82-2.18,0-3.01-2.18-.82-3.01,0Z" style="fill: #000; stroke: #1d1d1b; stroke-miterlimit: 10;"/>
    <path d="M280.25,191.04c.84.82.84,2.18,0,3.01s-2.23.82-3.07,0-.84-2.18,0-3.01,2.23-.82,3.07,0Z" style="fill: #000; stroke: #1d1d1b; stroke-miterlimit: 10;"/>
    <path d="M282.75,187.86c.59.58.59,1.54,0,2.12s-1.57.58-2.17,0-.59-1.54,0-2.12,1.57-.58,2.17,0Z" style="fill: #000; stroke: #1d1d1b; stroke-miterlimit: 10;"/>
    <g>
      <path d="M314.21,210.2c-2.13-3.8-16.67-.87-27.28,5.6-8.78,5.35-17.89,14.97-15.87,18.57,2.13,3.8,16.67.87,27.28-5.6,8.78-5.35,17.89-14.97,15.87-18.57Z" style="fill: #66b32e; stroke: #1d1d1b; stroke-miterlimit: 10;"/>
      <path d="M301.68,217.49c1.03,2.37-.09,5.13-2.48,6.11s-5.21-.16-6.24-2.53c-1.03-2.37.09-5.13,2.48-6.11s5.21.16,6.24,2.53Z" style="fill: #000; stroke: #1d1d1b; stroke-miterlimit: 10;"/>
      <path d="M309.39,213.1c.73,1.67-.06,3.62-1.75,4.32s-3.68-.11-4.4-1.79.06-3.62,1.75-4.32,3.68.11,4.4,1.79Z" style="fill: #000; stroke: #1d1d1b; stroke-miterlimit: 10;"/>
    </g>
    <g>
      <path d="M238.42,192.8c2.3-1.84,10.66,3.69,15.66,10.44,4.14,5.58,7.4,13.92,5.22,15.66-2.3,1.84-10.66-3.69-15.66-10.44-4.14-5.58-7.4-13.92-5.22-15.66Z" style="fill: #66b32e; stroke: #1d1d1b; stroke-miterlimit: 10;"/>
      <path d="M244.42,200.56c-1.25,1.22-1.25,3.24,0,4.46s3.3,1.22,4.55,0,1.25-3.24,0-4.46-3.3-1.22-4.55,0Z" style="fill: #000; stroke: #1d1d1b; stroke-miterlimit: 10;"/>
      <path d="M240.7,195.84c-.88.86-.88,2.28,0,3.15s2.33.86,3.21,0,.88-2.28,0-3.15-2.33-.86-3.21,0Z" style="fill: #000; stroke: #1d1d1b; stroke-miterlimit: 10;"/>
    </g>
    <g>
      <path d="M217.44,209.82c2.13-3.8,16.67-.87,27.28,5.6,8.78,5.35,17.89,14.97,15.87,18.57-2.13,3.8-16.67.87-27.28-5.6-8.78-5.35-17.89-14.97-15.87-18.57Z" style="fill: #66b32e; stroke: #1d1d1b; stroke-miterlimit: 10;"/>
      <path d="M229.98,217.11c-1.03,2.37.09,5.13,2.48,6.11s5.21-.16,6.24-2.53c1.03-2.37-.09-5.13-2.48-6.11s-5.21.16-6.24,2.53Z" style="fill: #000; stroke: #1d1d1b; stroke-miterlimit: 10;"/>
      <path d="M222.27,212.72c-.73,1.67.06,3.62,1.75,4.32s3.68-.11,4.4-1.79-.06-3.62-1.75-4.32-3.68.11-4.4,1.79Z" style="fill: #000; stroke: #1d1d1b; stroke-miterlimit: 10;"/>
    </g>
    <path d="M244.27,200.18c-1.25,1.22-1.25,3.24,0,4.46s3.3,1.22,4.55,0,1.25-3.24,0-4.46-3.3-1.22-4.55,0Z" style="fill: #000; stroke: #1d1d1b; stroke-miterlimit: 10;"/>
    <path d="M240.55,195.46c-.88.86-.88,2.28,0,3.15s2.33.86,3.21,0,.88-2.28,0-3.15-2.33-.86-3.21,0Z" style="fill: #000; stroke: #1d1d1b; stroke-miterlimit: 10;"/>
    <path d="M248.76,187.09c-.59.58-.59,1.54,0,2.12s1.57.58,2.17,0,.59-1.54,0-2.12-1.57-.58-2.17,0Z" style="fill: #000; stroke: #1d1d1b; stroke-miterlimit: 10;"/>
  </g>
</svg>